<svg xmlns="http://www.w3.org/2000/svg" viewBox="0 0 48 48"><circle cx="24" cy="24" r="21" stroke="#EAE3D2" stroke-width="1.9" fill="none"/><circle cx="24" cy="24" r="15" stroke="#EAE3D2" stroke-width="0.8" fill="none"/><path d="M22.2 8.4 L24 6.2 L25.8 8.4 L24 10.600000000000001 Z" fill="#EAE3D2"/><path d="M22.2 39.6 L24 37.4 L25.8 39.6 L24 41.800000000000004 Z" fill="#EAE3D2"/><path d="M6.2 24 L8.4 22.2 L10.600000000000001 24 L8.4 25.8 Z" fill="#EAE3D2"/><path d="M37.4 24 L39.6 22.2 L41.800000000000004 24 L39.6 25.8 Z" fill="#EAE3D2"/><path d="M21.07 28.49Q21.07 28.62 21.15 28.71Q21.23 28.8 21.38 28.84L21.77 28.92Q22.02 29 22.02 29.23Q22.02 29.35 21.94 29.43Q21.85 29.5 21.66 29.5H18.48Q18.29 29.5 18.2 29.43Q18.11 29.35 18.11 29.23Q18.11 29 18.37 28.92L18.76 28.84Q18.91 28.8 18.99 28.71Q19.07 28.62 19.07 28.49V21.41Q19.07 21.28 18.99 21.19Q18.91 21.1 18.76 21.06L18.37 20.98Q18.11 20.9 18.11 20.67Q18.11 20.54 18.2 20.47Q18.29 20.4 18.48 20.4H21.66Q21.85 20.4 21.94 20.47Q22.02 20.54 22.02 20.67Q22.02 20.9 21.77 20.98L21.38 21.06Q21.23 21.1 21.15 21.19Q21.07 21.28 21.07 21.41Z" fill="#EAE3D2"/><path d="M26.94 29.7Q26.4 29.7 26.02 29.56Q25.63 29.43 25.39 29.3Q25.15 29.18 25.04 29.18Q24.92 29.18 24.83 29.26Q24.74 29.34 24.67 29.44Q24.59 29.55 24.5 29.63Q24.41 29.71 24.3 29.71Q24.17 29.71 24.09 29.64Q24 29.56 23.97 29.38L23.52 27.19Q23.5 27.06 23.55 26.97Q23.61 26.87 23.74 26.83Q23.88 26.78 23.99 26.83Q24.09 26.89 24.17 27.04Q24.56 27.81 24.99 28.26Q25.41 28.7 25.88 28.89Q26.34 29.08 26.81 29.08Q27.48 29.08 27.86 28.73Q28.25 28.38 28.25 27.78Q28.25 27.41 28.08 27.09Q27.9 26.78 27.42 26.49Q26.93 26.2 26 25.89Q25 25.57 24.41 25.15Q23.81 24.73 23.55 24.17Q23.28 23.61 23.28 22.88Q23.28 22.1 23.65 21.5Q24.03 20.9 24.71 20.57Q25.39 20.23 26.29 20.23Q26.88 20.23 27.26 20.35Q27.64 20.48 27.88 20.6Q28.12 20.73 28.28 20.73Q28.42 20.73 28.51 20.6Q28.59 20.47 28.69 20.34Q28.79 20.21 28.96 20.21Q29.09 20.21 29.17 20.3Q29.26 20.38 29.33 20.61L29.95 22.8Q30 22.96 29.94 23.08Q29.89 23.2 29.75 23.25Q29.61 23.3 29.5 23.24Q29.39 23.19 29.32 23.05Q28.9 22.21 28.44 21.73Q27.97 21.25 27.48 21.05Q26.99 20.84 26.49 20.84Q25.82 20.84 25.43 21.23Q25.03 21.62 25.03 22.25Q25.03 22.62 25.2 22.95Q25.37 23.27 25.85 23.58Q26.32 23.89 27.22 24.22Q28.23 24.58 28.83 25Q29.42 25.42 29.68 25.94Q29.94 26.46 29.94 27.13Q29.94 27.84 29.58 28.42Q29.23 29 28.56 29.35Q27.89 29.7 26.94 29.7Z" fill="#EAE3D2"/></svg>