<svg xmlns="http://www.w3.org/2000/svg" viewBox="0 0 132 132"><circle cx="66" cy="66" r="58" stroke="#EAE3D2" stroke-width="1.8" fill="none"/><circle cx="66" cy="66" r="56.2" stroke="#EAE3D2" stroke-width="0.7" fill="none"/><circle cx="66" cy="66" r="41" stroke="#EAE3D2" stroke-width="1.2" fill="none"/><circle cx="66" cy="66" r="39" stroke="#EAE3D2" stroke-width="0.5" fill="none"/><path d="M14.899999999999999 66 L17.4 62.8 L19.9 66 L17.4 69.2 Z" fill="#EAE3D2"/><path d="M112.1 66 L114.6 62.8 L117.1 66 L114.6 69.2 Z" fill="#EAE3D2"/><path d="M26.58 45.62Q26.51 45.73 26.44 45.8Q26.37 45.86 26.3 45.82Q26.16 45.74 26.27 45.4Q26.42 44.97 26.37 44.69Q26.32 44.41 25.96 44.21L21.24 41.55Q20.88 41.35 20.65 41.41Q20.41 41.48 20.11 41.83Q19.87 42.09 19.73 42.01Q19.65 41.97 19.66 41.88Q19.67 41.79 19.74 41.67Q19.89 41.4 20.02 41.19Q20.15 40.99 20.27 40.79Q20.4 40.6 20.53 40.37Q20.65 40.15 20.75 39.95Q20.86 39.76 20.96 39.55Q21.06 39.34 21.21 39.08Q21.28 38.95 21.35 38.89Q21.42 38.83 21.49 38.87Q21.57 38.92 21.58 39.03Q21.58 39.13 21.53 39.3Q21.39 39.76 21.45 40Q21.5 40.25 21.86 40.45L26.59 43.1Q26.93 43.3 27.2 43.19Q27.47 43.08 27.77 42.74Q27.89 42.6 27.97 42.55Q28.06 42.5 28.14 42.55Q28.2 42.58 28.2 42.67Q28.19 42.75 28.12 42.88Q27.97 43.14 27.83 43.35Q27.69 43.56 27.57 43.76Q27.44 43.96 27.31 44.19Q27.17 44.44 27.06 44.66Q26.95 44.88 26.84 45.12Q26.72 45.36 26.58 45.62Z" fill="#EAE3D2"/><path d="M35.45 33.96Q35.16 34.28 34.86 34.47Q34.57 34.67 34.25 34.75Q33.94 34.83 33.6 34.81Q33.15 34.77 32.72 34.74Q32.3 34.71 31.8 34.63Q31.3 34.54 30.6 34.41Q30.27 34.33 29.97 34.44Q29.75 34.52 29.58 34.65Q29.41 34.78 29.31 34.87Q29.25 34.93 29.27 35Q29.3 35.08 29.38 35.15L30.99 36.61Q31.27 36.87 31.58 36.89Q31.89 36.91 32.27 36.62Q32.41 36.52 32.51 36.48Q32.6 36.45 32.67 36.51Q32.73 36.56 32.7 36.65Q32.67 36.74 32.57 36.84Q32.37 37.06 32.2 37.23Q32.03 37.39 31.88 37.53Q31.72 37.68 31.57 37.84Q31.38 38.06 31.22 38.26Q31.06 38.47 30.9 38.67Q30.74 38.87 30.53 39.1Q30.44 39.2 30.36 39.25Q30.27 39.3 30.21 39.24Q30.1 39.13 30.28 38.83Q30.52 38.43 30.52 38.17Q30.52 37.9 30.21 37.62L26.34 34.13Q26.04 33.85 25.85 33.75Q25.66 33.64 25.49 33.69Q25.33 33.74 25.07 33.95Q24.93 34.08 24.82 34.1Q24.72 34.11 24.66 34.06Q24.6 34.01 24.63 33.92Q24.66 33.82 24.75 33.72Q24.98 33.46 25.12 33.33Q25.26 33.2 25.38 33.07Q25.5 32.94 25.68 32.75Q25.84 32.57 25.95 32.42Q26.07 32.26 26.22 32.07Q26.36 31.88 26.61 31.61Q27.51 30.61 28.35 30.4Q29.19 30.2 29.92 30.86Q30.32 31.22 30.46 31.64Q30.59 32.07 30.56 32.48Q30.52 32.9 30.4 33.25Q30.38 33.29 30.41 33.32Q30.45 33.34 30.51 33.36Q31.17 33.46 31.77 33.54Q32.36 33.62 32.97 33.64Q33.57 33.66 34.26 33.6Q34.71 33.56 35 33.32Q35.29 33.09 35.58 32.78Q35.7 32.65 35.82 32.76Q35.97 32.9 35.93 33.11Q35.89 33.33 35.75 33.55Q35.61 33.78 35.45 33.96ZM29.35 34.35Q29.7 33.97 29.77 33.54Q29.84 33.11 29.68 32.71Q29.53 32.3 29.19 31.99Q28.81 31.65 28.42 31.48Q28.04 31.31 27.64 31.42Q27.25 31.53 26.81 32.01Q26.59 32.26 26.68 32.51Q26.77 32.75 27.25 33.2Q27.45 33.4 27.8 33.72Q28.16 34.05 28.65 34.49Q28.86 34.69 29.02 34.62Q29.17 34.55 29.35 34.35Z" fill="#EAE3D2"/><path d="M42.53 28.51Q41.85 28.94 41.08 29.08Q40.32 29.23 39.56 29.08Q38.81 28.94 38.14 28.5Q37.48 28.05 37.01 27.3Q36.57 26.61 36.41 25.83Q36.24 25.05 36.37 24.28Q36.5 23.5 36.98 22.79Q37.46 22.08 38.31 21.55Q39 21.12 39.77 20.97Q40.53 20.83 41.29 20.97Q42.04 21.12 42.71 21.56Q43.37 22 43.84 22.75Q44.27 23.43 44.44 24.22Q44.61 25 44.48 25.78Q44.35 26.55 43.87 27.26Q43.39 27.97 42.53 28.51ZM42.42 27.98Q43.14 27.54 43.4 26.91Q43.67 26.28 43.54 25.54Q43.41 24.8 42.93 24.03Q42.5 23.35 41.97 22.83Q41.45 22.31 40.85 22.01Q40.25 21.71 39.63 21.72Q39.02 21.73 38.42 22.11Q37.73 22.54 37.46 23.16Q37.19 23.78 37.31 24.51Q37.43 25.24 37.91 26.01Q38.35 26.71 38.87 27.23Q39.39 27.75 39.99 28.05Q40.59 28.35 41.21 28.35Q41.82 28.36 42.42 27.98Z" fill="#EAE3D2"/><path d="M57.34 22.55Q57.23 22.58 56.86 22.49Q56.49 22.4 56.08 22.08Q55.91 21.97 55.57 21.74Q55.22 21.51 54.76 21.2Q54.29 20.89 53.77 20.54Q53.24 20.19 52.71 19.84Q52.19 19.5 51.72 19.19Q51.26 18.88 50.9 18.65Q50.54 18.41 50.36 18.31Q50.28 18.24 50.22 18.21Q50.15 18.18 50.11 18.19Q50.06 18.21 50.06 18.3Q50.06 18.39 50.08 18.46Q50.23 19.02 50.43 19.75Q50.63 20.48 50.84 21.25Q51.05 22.02 51.23 22.69Q51.32 23.02 51.58 23.22Q51.83 23.42 52.3 23.39Q52.47 23.38 52.58 23.4Q52.69 23.42 52.72 23.51Q52.74 23.58 52.65 23.64Q52.57 23.7 52.43 23.74Q52.12 23.82 51.95 23.85Q51.77 23.88 51.63 23.91Q51.49 23.95 51.26 24.01Q51.04 24.07 50.89 24.13Q50.74 24.18 50.59 24.24Q50.44 24.29 50.22 24.35Q50.1 24.39 49.99 24.38Q49.88 24.38 49.86 24.3Q49.84 24.22 49.92 24.14Q49.99 24.06 50.16 23.97Q50.44 23.79 50.52 23.5Q50.6 23.21 50.53 22.86Q50.46 22.4 50.31 21.67Q50.16 20.94 49.95 20.04Q49.74 19.14 49.47 18.19Q49.3 17.58 48.92 17.4Q48.53 17.22 48 17.2Q47.94 17.19 47.77 17.16Q47.61 17.13 47.58 17.03Q47.55 16.92 47.65 16.86Q47.74 16.79 47.81 16.78Q48.11 16.7 48.34 16.65Q48.57 16.59 48.78 16.54Q48.99 16.5 49.22 16.44Q49.46 16.38 49.77 16.29Q49.87 16.27 49.95 16.3Q50.02 16.34 50.08 16.39Q50.25 16.51 50.61 16.76Q50.97 17.01 51.46 17.34Q51.95 17.68 52.5 18.06Q53.05 18.43 53.61 18.82Q54.16 19.2 54.65 19.53Q55.14 19.87 55.5 20.11Q55.86 20.36 56.02 20.46Q56.08 20.5 56.18 20.56Q56.27 20.62 56.33 20.6Q56.44 20.57 56.39 20.35Q56.32 20.12 56.19 19.65Q56.06 19.19 55.9 18.58Q55.74 17.96 55.55 17.29Q55.36 16.61 55.16 15.94Q55.08 15.69 54.8 15.58Q54.52 15.46 54.24 15.48Q54.07 15.5 53.91 15.48Q53.76 15.46 53.73 15.37Q53.71 15.3 53.84 15.23Q53.97 15.15 54.1 15.12Q54.27 15.07 54.41 15.03Q54.54 15 54.67 14.96Q54.79 14.92 54.92 14.89Q55.19 14.82 55.35 14.77Q55.51 14.71 55.7 14.65Q55.88 14.59 56.22 14.49Q56.36 14.45 56.45 14.46Q56.55 14.48 56.57 14.56Q56.62 14.72 56.28 14.89Q55.88 15.08 55.77 15.26Q55.66 15.43 55.73 15.74Q55.78 15.92 55.89 16.35Q55.99 16.77 56.14 17.34Q56.29 17.91 56.46 18.54Q56.62 19.16 56.78 19.76Q56.95 20.37 57.09 20.85Q57.16 21.13 57.26 21.38Q57.35 21.64 57.42 21.82Q57.49 22.01 57.52 22.1Q57.58 22.32 57.52 22.42Q57.46 22.52 57.34 22.55Z" fill="#EAE3D2"/><path d="M64.68 21.8Q64.18 21.81 63.73 21.68Q63.29 21.55 62.91 21.29Q62.86 21.24 62.8 21.17Q62.75 21.11 62.72 21.04Q62.63 20.76 62.59 20.35Q62.55 19.94 62.54 19.61Q62.53 19.53 62.6 19.49Q62.68 19.44 62.77 19.44Q62.86 19.44 62.91 19.47Q62.96 19.5 62.99 19.58Q63.26 20.49 63.76 20.92Q64.27 21.36 64.84 21.35Q65.25 21.34 65.54 21.16Q65.83 20.97 65.99 20.66Q66.15 20.35 66.14 19.97Q66.13 19.51 65.97 19.23Q65.81 18.94 65.5 18.72Q65.2 18.5 64.75 18.24Q64.26 17.97 63.79 17.66Q63.33 17.36 63.02 16.95Q62.71 16.54 62.69 15.92Q62.68 15.28 62.97 14.77Q63.27 14.27 63.85 13.96Q64.43 13.65 65.26 13.64Q65.69 13.63 66.05 13.71Q66.4 13.79 66.62 13.88Q66.73 13.92 66.8 14Q66.87 14.08 66.91 14.2Q66.97 14.45 67.05 14.78Q67.13 15.12 67.14 15.47Q67.14 15.6 66.95 15.6Q66.84 15.61 66.74 15.56Q66.65 15.51 66.62 15.44Q66.37 14.78 66 14.44Q65.64 14.1 65.1 14.11Q64.74 14.12 64.45 14.25Q64.16 14.38 63.99 14.67Q63.83 14.95 63.84 15.41Q63.84 15.73 64.07 16.01Q64.3 16.29 64.68 16.54Q65.07 16.78 65.54 17.05Q66.04 17.34 66.44 17.65Q66.84 17.97 67.08 18.38Q67.32 18.79 67.33 19.36Q67.35 20.12 67.02 20.66Q66.7 21.2 66.1 21.49Q65.5 21.78 64.68 21.8Z" fill="#EAE3D2"/><path d="M73.76 22.3Q73.63 22.28 73.54 22.23Q73.45 22.18 73.47 22.1Q73.49 22.01 73.6 21.98Q73.7 21.95 73.87 21.95Q74.34 21.96 74.6 21.82Q74.86 21.68 74.95 21.27L75.94 16.62Q76.05 16.11 76.09 15.84Q76.12 15.57 76.09 15.46Q76.07 15.35 75.99 15.31Q75.86 15.24 75.68 15.2Q75.51 15.16 75.27 15.11L74.81 15.01Q74.51 14.94 74.18 15.01Q73.85 15.09 73.65 15.3Q73.59 15.36 73.47 15.46Q73.36 15.57 73.23 15.63Q73.11 15.7 73 15.68Q72.94 15.66 72.93 15.61Q72.91 15.56 72.92 15.49Q72.95 15.36 73.05 15.24Q73.31 14.91 73.46 14.64Q73.6 14.38 73.73 14Q73.79 13.82 73.87 13.79Q73.95 13.76 74.02 13.77Q74.08 13.78 74.15 13.95Q74.22 14.12 74.26 14.23Q74.33 14.35 74.57 14.47Q74.82 14.58 75.04 14.63L79.28 15.52Q79.65 15.6 79.9 15.6Q80.15 15.61 80.32 15.57Q80.5 15.52 80.61 15.44Q80.73 15.36 80.88 15.4Q80.93 15.41 80.93 15.49Q80.94 15.57 80.92 15.66Q80.91 15.71 80.88 15.8Q80.85 15.89 80.82 15.95Q80.73 16.16 80.66 16.28Q80.59 16.4 80.55 16.51Q80.51 16.62 80.47 16.79L80.44 16.96Q80.41 17.1 80.33 17.22Q80.26 17.34 80.16 17.32Q80.07 17.3 80.04 17.16Q80 17.03 80 16.78Q79.99 16.46 79.78 16.24Q79.58 16.03 79.03 15.91L78.04 15.7Q77.81 15.65 77.66 15.7Q77.52 15.75 77.42 16.01Q77.32 16.28 77.19 16.89L76.19 21.54Q76.11 21.94 76.3 22.17Q76.49 22.41 76.91 22.6Q77.07 22.67 77.15 22.73Q77.22 22.8 77.2 22.89Q77.19 22.96 77.1 22.98Q77.01 23 76.87 22.97Q76.58 22.91 76.33 22.84Q76.09 22.77 75.86 22.7Q75.63 22.64 75.37 22.59Q75.09 22.53 74.84 22.49Q74.59 22.45 74.33 22.41Q74.06 22.37 73.76 22.3Z" fill="#EAE3D2"/><path d="M82.75 24.76Q82.62 24.69 82.55 24.61Q82.48 24.53 82.52 24.45Q82.57 24.37 82.68 24.36Q82.79 24.35 82.97 24.37Q83.3 24.44 83.62 24.39Q83.95 24.34 84.28 24.06Q84.9 23.56 85.45 23.09Q86 22.62 86.52 22.16Q87.04 21.7 87.59 21.21Q88.14 20.71 88.74 20.14Q88.96 19.95 89.09 19.8Q89.22 19.66 89.29 19.54Q89.45 19.58 89.58 19.6Q89.72 19.62 89.9 19.62Q90.06 19.62 90.19 19.53Q90.32 19.45 90.39 19.41Q90.42 19.41 90.45 19.42Q90.48 19.43 90.48 19.48Q90.48 19.55 90.47 19.63Q90.45 19.7 90.43 19.78Q90.28 20.69 90.13 21.63Q89.98 22.57 89.84 23.47Q89.7 24.37 89.59 25.14Q89.47 25.91 89.38 26.49Q89.32 26.9 89.38 27.17Q89.45 27.44 89.58 27.62Q89.72 27.81 89.91 27.96Q90.05 28.07 90.1 28.18Q90.15 28.28 90.1 28.37Q90.07 28.43 89.98 28.42Q89.88 28.4 89.77 28.34Q89.6 28.26 89.33 28.1Q89.06 27.94 88.76 27.78Q88.47 27.61 88.22 27.49Q88.02 27.38 87.78 27.26Q87.53 27.13 87.31 27.03Q87.08 26.93 86.92 26.84Q86.79 26.78 86.73 26.7Q86.67 26.62 86.7 26.56Q86.75 26.47 86.87 26.47Q87 26.46 87.13 26.51Q87.53 26.63 87.76 26.59Q87.99 26.54 88.07 26.31Q88.15 26.13 88.23 25.82Q88.3 25.52 88.37 25.17Q88.44 24.82 88.5 24.53Q88.52 24.43 88.48 24.38Q88.44 24.33 88.31 24.27L86.34 23.25Q86.28 23.23 86.22 23.24Q86.16 23.26 86.06 23.34Q85.96 23.45 85.79 23.62Q85.62 23.78 85.45 23.96Q85.27 24.15 85.12 24.31Q84.98 24.47 84.93 24.55Q84.76 24.8 84.84 25.04Q84.93 25.28 85.22 25.54Q85.49 25.79 85.43 25.92Q85.39 25.99 85.3 25.98Q85.2 25.96 85.07 25.9Q84.87 25.79 84.61 25.65Q84.35 25.5 84.05 25.35Q83.71 25.17 83.37 25.04Q83.03 24.91 82.75 24.76ZM86.86 22.97 88.42 23.77Q88.57 23.84 88.59 23.79Q88.61 23.76 88.62 23.74Q88.62 23.71 88.63 23.66L89.14 20.73Q89.17 20.53 89.14 20.51Q89.12 20.5 88.99 20.63L86.75 22.7Q86.7 22.75 86.69 22.77Q86.66 22.83 86.71 22.87Q86.76 22.92 86.86 22.97Z" fill="#EAE3D2"/><path d="M96.3 33.79Q95.67 33.21 95.27 32.46Q94.88 31.7 94.78 30.9Q94.69 30.1 94.93 29.31Q95.17 28.52 95.79 27.85Q96.36 27.22 97.13 26.91Q97.9 26.6 98.75 26.62Q99.61 26.65 100.45 26.99Q101.29 27.33 102.03 28Q102.35 28.3 102.58 28.56Q102.81 28.83 103 29.1Q103.19 29.37 103.39 29.71Q103.47 29.85 103.47 29.97Q103.47 30.08 103.36 30.22Q103.18 30.47 102.98 30.74Q102.77 31.01 102.5 31.32Q102.43 31.4 102.33 31.37Q102.23 31.34 102.17 31.25Q102.12 31.15 102.18 31.03Q102.37 30.67 102.47 30.34Q102.57 30.01 102.51 29.68Q102.45 29.33 102.22 28.95Q101.98 28.58 101.59 28.22Q101.1 27.77 100.5 27.59Q99.89 27.41 99.28 27.5Q98.67 27.58 98.1 27.87Q97.53 28.16 97.09 28.64Q96.58 29.2 96.27 29.86Q95.95 30.51 95.89 31.18Q95.82 31.85 96.03 32.47Q96.24 33.1 96.77 33.58Q97.41 34.17 98.09 34.26Q98.77 34.35 99.54 34.07Q99.72 34 99.84 34.12Q99.97 34.23 99.84 34.37Q99.76 34.46 99.58 34.59Q99.41 34.71 99.19 34.85Q98.97 34.98 98.78 35.08Q98.62 35.15 98.54 35.15Q98.45 35.16 98.29 35.09Q97.82 34.92 97.3 34.57Q96.78 34.23 96.3 33.79Z" fill="#EAE3D2"/><path d="M101.62 39.35Q101.55 39.23 101.52 39.13Q101.5 39.02 101.57 38.98Q101.7 38.89 101.96 39.17Q102.27 39.51 102.52 39.55Q102.76 39.59 103.12 39.36L107.7 36.48Q108.04 36.27 108.1 36.03Q108.15 35.8 107.98 35.35Q107.86 35.02 108 34.93Q108.07 34.89 108.15 34.94Q108.23 35 108.3 35.11Q108.46 35.38 108.58 35.58Q108.69 35.79 108.81 35.98Q108.92 36.17 109.05 36.38Q109.17 36.57 109.28 36.74Q109.39 36.9 109.52 37.09Q109.64 37.27 109.8 37.53Q109.88 37.65 109.89 37.73Q109.91 37.81 109.84 37.86Q109.76 37.91 109.67 37.87Q109.58 37.82 109.45 37.69Q109.12 37.36 108.89 37.37Q108.67 37.37 108.38 37.56L106.41 38.79Q106.36 38.82 106.31 38.88Q106.25 38.94 106.28 38.98Q106.31 39.03 106.41 39.07Q106.52 39.11 106.62 39.13L109.96 39.83Q110.1 39.85 110.2 39.85Q110.31 39.84 110.38 39.8Q110.57 39.68 110.46 39.37Q110.41 39.19 110.41 39.09Q110.41 39 110.5 38.95Q110.56 38.91 110.63 38.97Q110.71 39.02 110.78 39.14L111.16 39.73Q111.36 40.05 111.59 40.39Q111.81 40.73 112.01 41.03Q112.22 41.32 112.32 41.49Q112.38 41.59 112.39 41.68Q112.39 41.77 112.34 41.8Q112.26 41.85 112.16 41.79Q112.05 41.74 111.93 41.61Q111.59 41.23 111.19 40.94Q110.78 40.64 110.3 40.47Q109.8 40.3 109.33 40.18Q108.85 40.05 108.37 39.95Q107.88 39.84 107.3 39.72Q107.16 39.68 107.1 39.91L105.99 44.02Q105.9 44.35 105.86 44.56Q105.81 44.78 105.84 45.01Q105.86 45.24 105.97 45.55Q106.03 45.73 106.05 45.84Q106.07 45.95 105.99 46.01Q105.93 46.04 105.83 45.97Q105.74 45.91 105.65 45.75Q105.46 45.46 105.32 45.2Q105.18 44.95 105.05 44.71Q104.92 44.46 104.73 44.16Q104.58 43.92 104.44 43.73Q104.3 43.55 104.09 43.2Q104.02 43.09 104 43Q103.98 42.9 104.05 42.86Q104.17 42.78 104.39 43Q104.67 43.28 104.83 43.17Q104.89 43.14 104.93 43.05Q104.97 42.96 105.01 42.85L105.99 39.47Q106.01 39.37 106.02 39.27Q106.03 39.17 106.01 39.13Q105.98 39.09 105.91 39.12Q105.84 39.16 105.77 39.19Q105.3 39.49 104.87 39.78Q104.44 40.06 103.89 40.44Q103.68 40.58 103.55 40.73Q103.42 40.89 103.4 41.08Q103.37 41.28 103.47 41.58Q103.54 41.75 103.55 41.85Q103.56 41.96 103.48 42.01Q103.42 42.05 103.33 41.99Q103.24 41.92 103.16 41.8Q102.98 41.52 102.89 41.33Q102.8 41.14 102.73 40.98Q102.65 40.82 102.53 40.62Q102.39 40.39 102.25 40.21Q102.11 40.04 101.96 39.84Q101.81 39.65 101.62 39.35Z" fill="#EAE3D2"/><path d="M24.86 98.82Q24.77 98.72 24.74 98.63Q24.71 98.54 24.77 98.49Q24.83 98.43 24.93 98.46Q25.03 98.48 25.18 98.56Q25.44 98.72 25.73 98.78Q26.03 98.84 26.4 98.71Q27.09 98.47 27.72 98.25Q28.34 98.02 28.93 97.79Q29.52 97.56 30.15 97.31Q30.78 97.06 31.48 96.77Q31.74 96.67 31.89 96.59Q32.05 96.5 32.15 96.42Q32.27 96.51 32.38 96.57Q32.49 96.63 32.65 96.69Q32.78 96.74 32.93 96.71Q33.07 96.67 33.14 96.67Q33.16 96.68 33.18 96.69Q33.21 96.71 33.19 96.76Q33.17 96.82 33.13 96.87Q33.09 96.93 33.05 97Q32.63 97.73 32.2 98.49Q31.77 99.25 31.36 99.98Q30.96 100.71 30.62 101.33Q30.27 101.96 30.01 102.42Q29.83 102.76 29.8 103.01Q29.76 103.26 29.82 103.46Q29.88 103.66 30 103.86Q30.08 104 30.09 104.11Q30.1 104.21 30.03 104.27Q29.98 104.32 29.91 104.27Q29.83 104.23 29.75 104.14Q29.63 104.01 29.45 103.79Q29.27 103.57 29.07 103.33Q28.87 103.1 28.7 102.91Q28.56 102.76 28.39 102.57Q28.22 102.38 28.05 102.23Q27.89 102.07 27.78 101.95Q27.69 101.85 27.67 101.76Q27.64 101.67 27.69 101.63Q27.75 101.57 27.86 101.61Q27.97 101.64 28.07 101.72Q28.37 101.96 28.59 101.99Q28.8 102.03 28.94 101.86Q29.07 101.72 29.23 101.48Q29.39 101.25 29.57 100.97Q29.74 100.69 29.88 100.46Q29.93 100.38 29.91 100.33Q29.89 100.27 29.8 100.17L28.42 98.67Q28.39 98.63 28.33 98.63Q28.27 98.62 28.16 98.66Q28.04 98.73 27.84 98.81Q27.64 98.9 27.43 99Q27.22 99.1 27.05 99.2Q26.87 99.29 26.8 99.34Q26.57 99.5 26.57 99.74Q26.57 99.97 26.73 100.28Q26.89 100.58 26.8 100.67Q26.74 100.72 26.66 100.68Q26.59 100.64 26.5 100.54Q26.36 100.39 26.18 100.18Q26 99.97 25.79 99.74Q25.56 99.48 25.31 99.26Q25.06 99.04 24.86 98.82ZM28.97 98.6 30.05 99.78Q30.15 99.89 30.19 99.86Q30.22 99.83 30.23 99.81Q30.24 99.8 30.27 99.76L31.64 97.4Q31.73 97.24 31.71 97.21Q31.7 97.2 31.54 97.27L28.96 98.33Q28.9 98.36 28.88 98.37Q28.84 98.41 28.87 98.47Q28.9 98.52 28.97 98.6Z" fill="#EAE3D2"/><path d="M32.53 106.69Q32.42 106.61 32.36 106.54Q32.31 106.47 32.36 106.41Q32.4 106.34 32.5 106.36Q32.6 106.39 32.76 106.44Q33.01 106.54 33.28 106.47Q33.55 106.4 33.81 106.12Q34.36 105.51 34.91 104.86Q35.46 104.22 35.95 103.63Q36.44 103.04 36.8 102.56Q36.84 102.5 36.9 102.41Q36.95 102.33 36.99 102.25Q37.06 102.15 37.09 102.05Q37.12 101.94 37.06 101.81Q37 101.59 36.89 101.44Q36.78 101.29 36.62 101.13Q36.53 101.04 36.51 100.95Q36.48 100.86 36.53 100.8Q36.58 100.72 36.68 100.75Q36.77 100.79 36.9 100.88Q37.01 100.95 37.19 101.1Q37.37 101.24 37.59 101.4Q37.81 101.57 38.01 101.72Q38.2 101.87 38.34 101.97Q38.4 102.01 38.43 102.09Q38.46 102.17 38.42 102.25Q38.36 102.45 38.29 102.65Q38.22 102.86 38.16 103.08L37.16 107.51Q37.15 107.59 37.21 107.64Q37.26 107.69 37.32 107.65L41.32 105.29Q41.52 105.12 41.7 104.96Q41.87 104.79 42 104.68Q42.11 104.58 42.19 104.63L42.54 104.87Q42.84 105.08 43.22 105.28Q43.59 105.48 43.77 105.6Q43.83 105.65 43.89 105.72Q43.95 105.79 43.9 105.85Q43.85 105.93 43.77 105.93Q43.7 105.92 43.55 105.89Q43.42 105.86 43.27 105.82Q43.12 105.78 42.99 105.76Q42.8 105.72 42.65 105.77Q42.5 105.82 42.39 106Q41.95 106.64 41.61 107.19Q41.27 107.74 40.96 108.23Q40.65 108.73 40.36 109.24Q40.06 109.74 39.72 110.3Q39.55 110.58 39.62 110.85Q39.69 111.11 39.97 111.4Q40.07 111.51 40.12 111.59Q40.16 111.68 40.11 111.75Q40.07 111.8 39.99 111.79Q39.91 111.77 39.8 111.7Q39.57 111.54 39.39 111.39Q39.21 111.25 39.03 111.11Q38.85 110.98 38.65 110.84Q38.47 110.71 38.31 110.62Q38.15 110.52 37.97 110.41Q37.79 110.31 37.55 110.15Q37.45 110.08 37.4 110.01Q37.35 109.94 37.39 109.88Q37.44 109.81 37.53 109.81Q37.63 109.82 37.77 109.89Q38.09 110.04 38.3 109.97Q38.51 109.91 38.71 109.61Q39.13 108.98 39.49 108.43Q39.84 107.89 40.17 107.35Q40.51 106.81 40.88 106.21Q40.93 106.13 40.89 106.11Q40.85 106.08 40.74 106.14L35.89 108.99Q35.82 109.04 35.75 108.99Q35.68 108.93 35.7 108.86Q36.04 107.53 36.32 106.21Q36.6 104.88 36.9 103.43Q36.91 103.36 36.86 103.34Q36.8 103.31 36.75 103.37Q36.29 103.89 35.87 104.39Q35.45 104.89 35.07 105.4Q34.69 105.91 34.3 106.48Q34.12 106.73 34.15 107.02Q34.18 107.32 34.44 107.59Q34.56 107.71 34.61 107.8Q34.66 107.89 34.61 107.96Q34.57 108.01 34.48 107.99Q34.39 107.97 34.28 107.89Q34.04 107.73 33.92 107.62Q33.8 107.52 33.71 107.45Q33.61 107.38 33.43 107.25Q33.26 107.13 33.12 107.05Q32.98 106.97 32.84 106.89Q32.71 106.81 32.53 106.69Z" fill="#EAE3D2"/><path d="M45.16 114.31Q44.74 114.13 44.41 113.86Q44.09 113.58 43.87 113.22Q43.85 113.16 43.83 113.08Q43.81 113.01 43.81 112.94Q43.84 112.68 43.96 112.32Q44.09 111.96 44.19 111.68Q44.22 111.61 44.3 111.6Q44.37 111.59 44.45 111.62Q44.52 111.65 44.56 111.7Q44.59 111.74 44.58 111.82Q44.47 112.68 44.72 113.24Q44.98 113.79 45.47 114Q45.81 114.15 46.12 114.1Q46.43 114.05 46.69 113.85Q46.94 113.66 47.07 113.33Q47.24 112.95 47.21 112.65Q47.18 112.35 47.01 112.05Q46.84 111.75 46.56 111.37Q46.26 110.95 45.98 110.53Q45.7 110.1 45.6 109.63Q45.49 109.17 45.71 108.66Q45.94 108.11 46.38 107.8Q46.82 107.49 47.42 107.45Q48.02 107.41 48.72 107.71Q49.08 107.86 49.35 108.07Q49.62 108.27 49.76 108.43Q49.84 108.5 49.87 108.59Q49.89 108.69 49.88 108.8Q49.84 109.03 49.78 109.34Q49.72 109.65 49.6 109.95Q49.55 110.06 49.39 109.99Q49.3 109.95 49.23 109.88Q49.17 109.8 49.18 109.73Q49.21 109.08 49.04 108.66Q48.87 108.24 48.41 108.04Q48.11 107.92 47.81 107.92Q47.52 107.92 47.27 108.09Q47.02 108.27 46.86 108.65Q46.74 108.93 46.83 109.24Q46.92 109.56 47.14 109.92Q47.37 110.27 47.67 110.67Q47.97 111.1 48.19 111.51Q48.41 111.93 48.46 112.36Q48.5 112.79 48.29 113.28Q48.02 113.91 47.55 114.24Q47.07 114.57 46.46 114.59Q45.85 114.61 45.16 114.31Z" fill="#EAE3D2"/><path d="M53.01 116.88Q52.89 116.86 52.82 116.81Q52.74 116.76 52.75 116.69Q52.77 116.61 52.87 116.58Q52.96 116.55 53.12 116.56Q53.55 116.57 53.79 116.45Q54.03 116.32 54.12 115.95L55.08 111.7Q55.19 111.23 55.22 110.98Q55.25 110.73 55.23 110.63Q55.21 110.53 55.14 110.49Q55.02 110.43 54.86 110.39Q54.7 110.35 54.48 110.3L54.06 110.21Q53.79 110.14 53.48 110.2Q53.18 110.27 52.99 110.46Q52.93 110.51 52.83 110.61Q52.72 110.7 52.61 110.76Q52.49 110.82 52.4 110.8Q52.34 110.79 52.33 110.74Q52.31 110.69 52.32 110.62Q52.35 110.51 52.44 110.4Q52.69 110.1 52.82 109.86Q52.96 109.62 53.08 109.27Q53.14 109.11 53.21 109.08Q53.29 109.05 53.35 109.06Q53.41 109.08 53.47 109.23Q53.53 109.39 53.56 109.48Q53.63 109.6 53.85 109.71Q54.07 109.81 54.28 109.86L58.15 110.73Q58.49 110.8 58.72 110.81Q58.95 110.82 59.1 110.78Q59.27 110.74 59.37 110.67Q59.48 110.6 59.62 110.63Q59.66 110.64 59.67 110.72Q59.67 110.79 59.65 110.88Q59.64 110.92 59.61 111Q59.58 111.09 59.56 111.14Q59.47 111.33 59.41 111.44Q59.34 111.55 59.3 111.65Q59.26 111.75 59.23 111.91L59.19 112.06Q59.16 112.19 59.1 112.29Q59.03 112.4 58.94 112.38Q58.85 112.36 58.83 112.24Q58.8 112.11 58.79 111.89Q58.79 111.59 58.61 111.39Q58.42 111.19 57.92 111.08L57.01 110.87Q56.8 110.83 56.67 110.87Q56.53 110.91 56.44 111.16Q56.34 111.4 56.22 111.96L55.25 116.21Q55.17 116.57 55.34 116.79Q55.51 117.01 55.9 117.19Q56.04 117.25 56.11 117.31Q56.18 117.38 56.16 117.46Q56.15 117.53 56.07 117.54Q55.98 117.56 55.86 117.53Q55.59 117.47 55.37 117.4Q55.14 117.33 54.93 117.27Q54.72 117.21 54.48 117.16Q54.23 117.1 54 117.06Q53.77 117.02 53.53 116.98Q53.29 116.95 53.01 116.88Z" fill="#EAE3D2"/><path d="M61.67 118.39Q61.53 118.38 61.46 118.35Q61.38 118.31 61.38 118.24Q61.39 118.1 61.71 118.05Q62.12 117.97 62.31 117.82Q62.49 117.67 62.51 117.28L62.68 112.31Q62.7 111.94 62.55 111.77Q62.4 111.6 62 111.51Q61.83 111.47 61.76 111.41Q61.68 111.35 61.68 111.28Q61.69 111.21 61.76 111.17Q61.84 111.14 61.97 111.14Q62.34 111.16 62.63 111.18Q62.92 111.2 63.2 111.22Q63.48 111.24 63.81 111.25Q64.25 111.27 64.74 111.28Q65.23 111.29 65.62 111.29Q66 111.31 66.25 111.3Q66.49 111.29 66.54 111.29Q66.6 111.29 66.67 111.32Q66.74 111.35 66.75 111.43Q66.8 111.77 66.84 112.1Q66.89 112.43 66.89 112.67Q66.88 112.78 66.83 112.82Q66.78 112.85 66.72 112.85Q66.67 112.85 66.64 112.81Q66.61 112.78 66.58 112.71Q66.51 112.49 66.45 112.31Q66.39 112.12 66.3 112.03Q66.16 111.87 65.98 111.79Q65.8 111.71 65.57 111.7L64.33 111.65Q64.19 111.65 64.03 111.75Q63.87 111.85 63.86 112.03L63.78 114.28Q63.78 114.39 63.84 114.46Q63.9 114.52 63.99 114.53L65.04 114.56Q65.35 114.57 65.48 114.44Q65.61 114.3 65.69 114Q65.78 113.79 65.91 113.79Q65.97 113.79 66.01 113.84Q66.05 113.89 66.05 113.99Q66.04 114.06 66.03 114.21Q66.01 114.37 65.99 114.53Q65.98 114.7 65.97 114.79Q65.97 114.91 65.97 115.09Q65.97 115.26 65.97 115.42Q65.98 115.59 65.98 115.66Q65.98 115.76 65.95 115.82Q65.93 115.88 65.87 115.88Q65.69 115.87 65.62 115.55Q65.56 115.26 65.45 115.12Q65.34 114.97 65.12 114.96L64.1 114.93Q63.92 114.92 63.84 114.97Q63.75 115.02 63.75 115.2L63.67 117.3Q63.66 117.68 63.82 117.84Q63.98 117.99 64.32 118.01L65.19 118.04Q65.5 118.05 65.73 118.01Q65.96 117.97 66.13 117.86Q66.32 117.73 66.47 117.53Q66.62 117.33 66.79 117.02Q66.83 116.96 66.88 116.92Q66.92 116.89 66.98 116.9Q67.05 116.9 67.07 116.95Q67.1 117 67.09 117.08Q67.09 117.2 67.03 117.44Q66.96 117.68 66.87 117.94Q66.78 118.2 66.71 118.39Q66.67 118.46 66.63 118.51Q66.58 118.56 66.51 118.56Q66.12 118.54 65.69 118.52Q65.26 118.49 64.81 118.46Q64.36 118.44 63.91 118.41Q63.46 118.38 63.02 118.37Q62.79 118.36 62.58 118.37Q62.37 118.38 62.16 118.39Q61.94 118.39 61.67 118.39Z" fill="#EAE3D2"/><path d="M77.29 117.55Q76.9 117.61 76.58 117.58Q76.25 117.54 75.98 117.42Q75.71 117.3 75.48 117.09Q75.18 116.8 74.9 116.54Q74.61 116.27 74.3 115.92Q73.99 115.58 73.57 115.08Q73.38 114.83 73.1 114.74Q72.9 114.67 72.7 114.66Q72.51 114.66 72.39 114.66Q72.31 114.68 72.28 114.74Q72.25 114.81 72.27 114.91L72.58 116.87Q72.64 117.22 72.85 117.41Q73.06 117.61 73.49 117.62Q73.65 117.63 73.74 117.66Q73.83 117.69 73.84 117.77Q73.85 117.84 73.78 117.88Q73.71 117.93 73.58 117.95Q73.31 117.99 73.09 118.01Q72.88 118.03 72.69 118.04Q72.49 118.06 72.29 118.09Q72.03 118.13 71.8 118.18Q71.56 118.24 71.33 118.29Q71.1 118.34 70.82 118.39Q70.7 118.41 70.61 118.39Q70.53 118.38 70.52 118.3Q70.49 118.16 70.8 118.05Q71.2 117.91 71.35 117.71Q71.51 117.52 71.45 117.14L70.69 112.43Q70.63 112.06 70.56 111.88Q70.49 111.69 70.34 111.63Q70.19 111.57 69.89 111.58Q69.71 111.58 69.63 111.53Q69.54 111.49 69.53 111.41Q69.52 111.35 69.59 111.29Q69.67 111.24 69.79 111.22Q70.1 111.17 70.28 111.16Q70.45 111.14 70.61 111.12Q70.77 111.1 71.01 111.06Q71.23 111.03 71.4 110.98Q71.57 110.94 71.78 110.89Q72 110.84 72.34 110.78Q73.55 110.59 74.27 110.93Q74.98 111.26 75.13 112.15Q75.21 112.64 75.06 113.02Q74.91 113.4 74.65 113.68Q74.38 113.96 74.1 114.13Q74.05 114.15 74.07 114.19Q74.08 114.23 74.11 114.28Q74.52 114.72 74.91 115.12Q75.29 115.53 75.71 115.89Q76.13 116.25 76.65 116.6Q77 116.83 77.34 116.84Q77.68 116.84 78.06 116.78Q78.22 116.75 78.25 116.9Q78.28 117.09 78.12 117.22Q77.97 117.35 77.74 117.43Q77.51 117.51 77.29 117.55ZM72.71 114.32Q73.18 114.25 73.48 113.98Q73.77 113.72 73.9 113.34Q74.02 112.96 73.95 112.54Q73.88 112.08 73.7 111.74Q73.52 111.4 73.18 111.25Q72.83 111.1 72.24 111.19Q71.94 111.24 71.86 111.47Q71.79 111.7 71.87 112.28Q71.9 112.55 71.97 112.98Q72.03 113.42 72.13 114.01Q72.17 114.28 72.32 114.32Q72.47 114.36 72.71 114.32Z" fill="#EAE3D2"/><path d="M85.03 114.96Q84.83 115.04 84.45 115.16Q84.07 115.29 83.64 115.43Q83.22 115.58 82.89 115.71Q82.68 115.79 82.51 115.87Q82.33 115.95 82.14 116.04Q81.95 116.12 81.69 116.22Q81.58 116.27 81.49 116.27Q81.4 116.26 81.38 116.19Q81.34 116.11 81.4 116.05Q81.46 115.98 81.6 115.89Q81.96 115.67 82.05 115.46Q82.14 115.25 82.01 114.9L80.2 110.26Q80.06 109.92 79.86 109.83Q79.65 109.73 79.23 109.8Q79.06 109.83 78.98 109.82Q78.89 109.81 78.86 109.73Q78.83 109.65 78.89 109.59Q78.95 109.52 79.07 109.48Q79.32 109.38 79.52 109.31Q79.72 109.25 79.91 109.18Q80.09 109.11 80.33 109.02Q80.49 108.96 80.75 108.85Q81 108.74 81.28 108.61Q81.56 108.47 81.8 108.37Q82.04 108.26 82.17 108.21Q83.12 107.84 83.92 107.81Q84.73 107.78 85.38 108.04Q86.02 108.3 86.5 108.8Q86.97 109.3 87.24 110Q87.52 110.72 87.51 111.46Q87.5 112.2 87.2 112.89Q86.91 113.58 86.36 114.11Q85.82 114.65 85.03 114.96ZM84.73 114.59Q85.49 114.3 85.91 113.71Q86.33 113.12 86.38 112.34Q86.43 111.56 86.09 110.7Q85.81 109.97 85.37 109.48Q84.94 109 84.42 108.74Q83.9 108.48 83.34 108.46Q82.78 108.43 82.26 108.64Q81.86 108.79 81.59 108.93Q81.31 109.06 81.21 109.23Q81.11 109.4 81.22 109.67L82.98 114.2Q83.14 114.59 83.4 114.71Q83.67 114.84 84.02 114.79Q84.36 114.73 84.73 114.59Z" fill="#EAE3D2"/><path d="M91.86 111.84Q91.75 111.91 91.65 111.93Q91.56 111.94 91.52 111.88Q91.47 111.8 91.51 111.71Q91.55 111.62 91.65 111.48Q91.85 111.25 91.96 110.97Q92.06 110.69 91.99 110.3Q91.87 109.58 91.75 108.93Q91.62 108.28 91.49 107.65Q91.36 107.03 91.21 106.37Q91.07 105.71 90.88 104.97Q90.83 104.71 90.77 104.54Q90.71 104.37 90.65 104.26Q90.75 104.15 90.83 104.05Q90.91 103.95 90.99 103.81Q91.06 103.68 91.05 103.54Q91.04 103.39 91.05 103.32Q91.06 103.3 91.08 103.28Q91.1 103.26 91.14 103.29Q91.2 103.31 91.25 103.36Q91.3 103.41 91.36 103.46Q92.02 103.99 92.7 104.54Q93.38 105.08 94.03 105.6Q94.69 106.12 95.26 106.55Q95.82 106.99 96.24 107.32Q96.54 107.56 96.78 107.63Q97.02 107.7 97.23 107.68Q97.44 107.65 97.65 107.57Q97.8 107.5 97.91 107.51Q98.01 107.52 98.06 107.6Q98.1 107.65 98.04 107.72Q97.99 107.79 97.89 107.86Q97.74 107.95 97.49 108.1Q97.25 108.24 96.98 108.4Q96.72 108.56 96.51 108.7Q96.33 108.81 96.12 108.95Q95.91 109.09 95.73 109.22Q95.55 109.36 95.41 109.45Q95.3 109.52 95.21 109.53Q95.12 109.55 95.08 109.49Q95.03 109.42 95.09 109.32Q95.14 109.22 95.24 109.13Q95.51 108.87 95.58 108.66Q95.65 108.46 95.5 108.29Q95.39 108.14 95.18 107.94Q94.97 107.75 94.73 107.53Q94.48 107.32 94.27 107.14Q94.21 107.08 94.15 107.09Q94.09 107.1 93.98 107.18L92.28 108.29Q92.23 108.32 92.22 108.38Q92.2 108.44 92.23 108.55Q92.27 108.68 92.32 108.89Q92.37 109.1 92.44 109.33Q92.51 109.55 92.58 109.74Q92.64 109.93 92.68 110.01Q92.8 110.25 93.03 110.29Q93.26 110.33 93.6 110.22Q93.92 110.11 93.99 110.22Q94.04 110.29 93.98 110.35Q93.93 110.42 93.82 110.49Q93.64 110.61 93.41 110.75Q93.17 110.89 92.91 111.06Q92.62 111.26 92.36 111.46Q92.11 111.67 91.86 111.84ZM92.29 107.75 93.63 106.87Q93.76 106.78 93.73 106.74Q93.71 106.71 93.69 106.69Q93.68 106.68 93.64 106.65L91.53 104.92Q91.39 104.8 91.36 104.82Q91.34 104.83 91.39 105L92.03 107.71Q92.04 107.78 92.06 107.8Q92.09 107.84 92.15 107.82Q92.21 107.8 92.29 107.75Z" fill="#EAE3D2"/><path d="M100.85 105.51Q100.75 105.62 100.67 105.66Q100.6 105.7 100.54 105.64Q100.48 105.59 100.52 105.5Q100.56 105.4 100.64 105.25Q100.77 105.02 100.75 104.74Q100.72 104.46 100.49 104.17Q99.97 103.52 99.42 102.87Q98.88 102.23 98.37 101.65Q97.86 101.07 97.45 100.65Q97.39 100.59 97.32 100.53Q97.25 100.46 97.18 100.4Q97.09 100.32 96.99 100.28Q96.89 100.23 96.75 100.27Q96.52 100.3 96.36 100.38Q96.19 100.47 96.01 100.59Q95.91 100.67 95.82 100.68Q95.72 100.69 95.67 100.63Q95.59 100.56 95.65 100.48Q95.7 100.39 95.81 100.28Q95.9 100.18 96.07 100.03Q96.23 99.87 96.43 99.68Q96.64 99.49 96.82 99.32Q96.99 99.15 97.11 99.03Q97.16 98.97 97.24 98.96Q97.32 98.95 97.4 98.99Q97.58 99.09 97.78 99.19Q97.97 99.29 98.18 99.39L102.4 101.07Q102.47 101.1 102.53 101.05Q102.58 101.01 102.56 100.94L100.87 96.61Q100.73 96.39 100.59 96.19Q100.46 95.99 100.37 95.84Q100.29 95.72 100.36 95.65L100.64 95.35Q100.9 95.08 101.16 94.74Q101.41 94.41 101.56 94.25Q101.61 94.19 101.7 94.15Q101.78 94.1 101.83 94.15Q101.9 94.22 101.88 94.29Q101.87 94.37 101.81 94.51Q101.76 94.63 101.7 94.77Q101.64 94.91 101.59 95.04Q101.53 95.22 101.55 95.38Q101.57 95.54 101.73 95.67Q102.3 96.21 102.79 96.63Q103.27 97.06 103.71 97.44Q104.15 97.82 104.61 98.19Q105.06 98.56 105.56 99Q105.8 99.2 106.08 99.18Q106.35 99.15 106.68 98.92Q106.81 98.84 106.9 98.81Q106.98 98.78 107.05 98.84Q107.1 98.88 107.07 98.96Q107.04 99.04 106.95 99.14Q106.76 99.34 106.58 99.49Q106.41 99.65 106.25 99.8Q106.08 99.96 105.92 100.13Q105.77 100.29 105.64 100.43Q105.52 100.58 105.39 100.74Q105.26 100.9 105.06 101.11Q104.98 101.2 104.9 101.24Q104.82 101.28 104.77 101.22Q104.71 101.17 104.73 101.07Q104.75 100.98 104.84 100.85Q105.04 100.56 105.01 100.34Q104.98 100.13 104.71 99.88Q104.16 99.36 103.68 98.93Q103.2 98.49 102.72 98.08Q102.24 97.66 101.7 97.2Q101.63 97.13 101.6 97.17Q101.57 97.21 101.61 97.32L103.65 102.56Q103.69 102.65 103.63 102.71Q103.56 102.77 103.49 102.73Q102.24 102.18 100.97 101.7Q99.71 101.21 98.33 100.68Q98.26 100.66 98.22 100.71Q98.19 100.76 98.24 100.82Q98.69 101.36 99.11 101.85Q99.54 102.34 99.98 102.8Q100.42 103.27 100.92 103.74Q101.14 103.95 101.44 103.97Q101.73 103.98 102.04 103.77Q102.18 103.68 102.27 103.64Q102.37 103.6 102.43 103.66Q102.48 103.71 102.44 103.8Q102.41 103.88 102.32 103.98Q102.11 104.19 101.99 104.29Q101.87 104.39 101.79 104.48Q101.7 104.56 101.55 104.72Q101.4 104.87 101.3 104.99Q101.2 105.12 101.09 105.24Q100.99 105.36 100.85 105.51Z" fill="#EAE3D2"/><path d="M37.75 82.19Q37.71 82.13 37.7 82.08Q37.69 82.03 37.72 82.01Q37.79 81.97 37.93 82.1Q38.1 82.28 38.23 82.32Q38.37 82.36 38.55 82.24L41 80.69Q41.18 80.57 41.21 80.44Q41.25 80.32 41.16 80.09Q41.12 80 41.13 79.95Q41.13 79.89 41.17 79.87Q41.2 79.85 41.24 79.87Q41.29 79.9 41.33 79.96Q41.44 80.14 41.53 80.29Q41.61 80.43 41.69 80.58Q41.77 80.72 41.88 80.88Q42.01 81.1 42.17 81.33Q42.33 81.57 42.45 81.76Q42.57 81.95 42.66 82.06Q42.74 82.18 42.75 82.2Q42.78 82.23 42.78 82.28Q42.79 82.32 42.76 82.35Q42.61 82.48 42.47 82.62Q42.33 82.75 42.21 82.82Q42.15 82.86 42.12 82.84Q42.08 82.83 42.07 82.8Q42.05 82.78 42.06 82.75Q42.06 82.72 42.08 82.69Q42.17 82.58 42.24 82.49Q42.31 82.4 42.32 82.33Q42.35 82.21 42.33 82.1Q42.31 81.98 42.24 81.87L41.86 81.26Q41.81 81.19 41.71 81.15Q41.61 81.1 41.52 81.16L40.42 81.86Q40.36 81.89 40.35 81.95Q40.34 82 40.36 82.04L40.69 82.56Q40.79 82.71 40.9 82.73Q41.01 82.74 41.18 82.69Q41.31 82.66 41.35 82.72Q41.37 82.75 41.36 82.79Q41.34 82.82 41.3 82.85Q41.26 82.87 41.18 82.92Q41.11 82.96 41.02 83.01Q40.94 83.05 40.89 83.08Q40.83 83.12 40.75 83.18Q40.66 83.23 40.59 83.29Q40.51 83.35 40.47 83.37Q40.43 83.41 40.39 83.41Q40.35 83.42 40.33 83.39Q40.28 83.3 40.41 83.16Q40.53 83.04 40.56 82.94Q40.6 82.84 40.53 82.73L40.21 82.23Q40.15 82.14 40.1 82.12Q40.05 82.09 39.96 82.15L38.93 82.8Q38.74 82.92 38.72 83.05Q38.7 83.18 38.8 83.34L39.07 83.77Q39.17 83.92 39.26 84.02Q39.36 84.12 39.47 84.17Q39.59 84.22 39.74 84.22Q39.89 84.23 40.08 84.21Q40.13 84.21 40.16 84.22Q40.2 84.23 40.21 84.26Q40.23 84.29 40.21 84.32Q40.2 84.35 40.16 84.37Q40.1 84.41 39.96 84.46Q39.83 84.51 39.67 84.55Q39.52 84.59 39.4 84.61Q39.36 84.62 39.32 84.62Q39.28 84.61 39.26 84.58Q39.14 84.38 39.01 84.17Q38.88 83.95 38.74 83.73Q38.61 83.5 38.47 83.28Q38.34 83.05 38.2 82.84Q38.13 82.72 38.06 82.63Q37.98 82.53 37.91 82.43Q37.83 82.33 37.75 82.19Z" fill="#EAE3D2"/><path d="M41.84 87.88Q41.66 87.69 41.55 87.46Q41.45 87.24 41.42 86.99Q41.43 86.96 41.43 86.91Q41.44 86.87 41.46 86.83Q41.54 86.7 41.69 86.54Q41.84 86.38 41.96 86.25Q42 86.22 42.04 86.24Q42.08 86.25 42.12 86.29Q42.15 86.32 42.15 86.35Q42.16 86.39 42.14 86.43Q41.87 86.85 41.87 87.21Q41.87 87.56 42.08 87.79Q42.22 87.95 42.4 88Q42.58 88.05 42.76 88.01Q42.94 87.96 43.09 87.83Q43.27 87.66 43.33 87.5Q43.38 87.33 43.37 87.13Q43.35 86.93 43.29 86.66Q43.23 86.37 43.19 86.07Q43.14 85.78 43.2 85.51Q43.26 85.24 43.5 85.02Q43.75 84.79 44.06 84.73Q44.37 84.67 44.69 84.8Q45.02 84.92 45.32 85.25Q45.47 85.42 45.57 85.59Q45.66 85.76 45.7 85.88Q45.72 85.93 45.71 85.99Q45.7 86.05 45.67 86.1Q45.59 86.22 45.49 86.37Q45.38 86.52 45.24 86.64Q45.19 86.69 45.12 86.61Q45.08 86.57 45.07 86.52Q45.05 86.46 45.07 86.43Q45.25 86.09 45.26 85.83Q45.27 85.56 45.07 85.35Q44.94 85.21 44.79 85.14Q44.63 85.07 44.46 85.1Q44.29 85.13 44.11 85.3Q43.98 85.41 43.95 85.6Q43.92 85.79 43.95 86.03Q43.99 86.28 44.05 86.56Q44.11 86.86 44.12 87.13Q44.14 87.4 44.06 87.64Q43.98 87.88 43.75 88.09Q43.45 88.36 43.12 88.42Q42.79 88.48 42.46 88.34Q42.14 88.21 41.84 87.88Z" fill="#EAE3D2"/><path d="M45.87 91.56Q45.82 91.52 45.79 91.48Q45.75 91.43 45.78 91.4Q45.81 91.36 45.87 91.37Q45.92 91.38 46.01 91.42Q46.23 91.53 46.39 91.52Q46.55 91.51 46.68 91.33L48.2 89.3Q48.37 89.07 48.44 88.95Q48.52 88.83 48.53 88.77Q48.54 88.71 48.51 88.67Q48.46 88.61 48.39 88.55Q48.31 88.49 48.21 88.41L48.01 88.26Q47.88 88.16 47.7 88.13Q47.53 88.09 47.38 88.14Q47.34 88.16 47.26 88.19Q47.18 88.21 47.11 88.21Q47.03 88.22 46.98 88.18Q46.96 88.16 46.96 88.13Q46.96 88.1 46.99 88.07Q47.03 88.02 47.1 87.98Q47.31 87.88 47.43 87.79Q47.56 87.69 47.71 87.53Q47.78 87.46 47.83 87.46Q47.87 87.47 47.9 87.49Q47.93 87.51 47.93 87.6Q47.92 87.7 47.92 87.76Q47.92 87.84 48.02 87.95Q48.11 88.06 48.21 88.13L50.06 89.51Q50.22 89.63 50.34 89.68Q50.46 89.74 50.55 89.76Q50.65 89.78 50.72 89.77Q50.8 89.75 50.86 89.8Q50.88 89.82 50.87 89.86Q50.85 89.9 50.82 89.94Q50.81 89.96 50.77 90Q50.74 90.04 50.71 90.06Q50.62 90.14 50.56 90.18Q50.5 90.23 50.46 90.27Q50.41 90.31 50.35 90.39L50.3 90.46Q50.25 90.52 50.19 90.56Q50.13 90.61 50.09 90.57Q50.05 90.54 50.06 90.47Q50.08 90.4 50.13 90.28Q50.2 90.12 50.14 89.97Q50.09 89.82 49.85 89.64L49.42 89.32Q49.32 89.24 49.24 89.23Q49.16 89.22 49.05 89.33Q48.94 89.44 48.74 89.7L47.22 91.73Q47.09 91.91 47.13 92.07Q47.17 92.22 47.34 92.41Q47.4 92.48 47.42 92.53Q47.44 92.58 47.41 92.62Q47.39 92.65 47.34 92.64Q47.29 92.62 47.23 92.58Q47.1 92.48 47 92.4Q46.9 92.31 46.8 92.23Q46.7 92.14 46.59 92.06Q46.47 91.97 46.36 91.89Q46.24 91.82 46.13 91.74Q46.01 91.66 45.87 91.56Z" fill="#EAE3D2"/><path d="M54.77 95.52Q54.61 95.46 54.54 95.3Q54.47 95.15 54.53 94.99Q54.6 94.82 54.75 94.76Q54.91 94.69 55.06 94.75Q55.22 94.81 55.29 94.96Q55.36 95.12 55.3 95.28Q55.24 95.44 55.08 95.51Q54.93 95.58 54.77 95.52Z" fill="#EAE3D2"/><path d="M61.35 98.3Q61.27 98.29 61.22 98.27Q61.18 98.25 61.18 98.21Q61.18 98.16 61.24 98.15Q61.29 98.13 61.39 98.11Q61.55 98.08 61.66 97.96Q61.77 97.85 61.82 97.63Q61.91 97.16 61.99 96.67Q62.08 96.19 62.14 95.75Q62.21 95.3 62.24 94.96Q62.25 94.92 62.25 94.86Q62.25 94.8 62.25 94.75Q62.25 94.68 62.24 94.62Q62.22 94.56 62.15 94.51Q62.05 94.42 61.95 94.37Q61.85 94.33 61.73 94.3Q61.66 94.28 61.62 94.24Q61.58 94.21 61.58 94.16Q61.58 94.1 61.64 94.1Q61.7 94.09 61.79 94.09Q61.87 94.1 62 94.11Q62.14 94.13 62.29 94.15Q62.45 94.17 62.6 94.18Q62.74 94.2 62.84 94.2Q62.88 94.21 62.92 94.24Q62.95 94.27 62.96 94.32Q62.99 94.44 63.02 94.56Q63.04 94.68 63.08 94.81L63.91 97.32Q63.92 97.36 63.97 97.37Q64.01 97.38 64.03 97.34L65.32 94.97Q65.37 94.82 65.41 94.69Q65.44 94.55 65.47 94.46Q65.5 94.38 65.56 94.38L65.8 94.4Q66.02 94.41 66.26 94.4Q66.51 94.38 66.63 94.39Q66.68 94.39 66.73 94.41Q66.78 94.43 66.78 94.48Q66.77 94.53 66.73 94.55Q66.69 94.57 66.61 94.6Q66.53 94.62 66.45 94.65Q66.36 94.68 66.29 94.7Q66.19 94.74 66.13 94.81Q66.06 94.88 66.06 95Q66.03 95.46 66.03 95.83Q66.02 96.21 66.02 96.55Q66.01 96.89 66.02 97.23Q66.02 97.57 66.02 97.95Q66.02 98.14 66.13 98.25Q66.25 98.36 66.47 98.42Q66.56 98.45 66.6 98.47Q66.65 98.5 66.65 98.55Q66.64 98.59 66.6 98.61Q66.55 98.63 66.47 98.62Q66.32 98.61 66.18 98.59Q66.05 98.57 65.92 98.56Q65.79 98.54 65.65 98.54Q65.52 98.53 65.41 98.53Q65.3 98.53 65.18 98.53Q65.06 98.53 64.89 98.52Q64.82 98.52 64.77 98.5Q64.73 98.48 64.73 98.43Q64.73 98.39 64.78 98.36Q64.83 98.33 64.92 98.32Q65.13 98.3 65.21 98.21Q65.29 98.12 65.31 97.91Q65.33 97.46 65.34 97.09Q65.36 96.71 65.36 96.34Q65.37 95.97 65.37 95.56Q65.38 95.51 65.35 95.51Q65.32 95.51 65.28 95.56L63.72 98.44Q63.69 98.49 63.64 98.48Q63.59 98.48 63.58 98.43Q63.35 97.67 63.1 96.92Q62.84 96.18 62.56 95.37Q62.54 95.33 62.5 95.33Q62.47 95.33 62.46 95.38Q62.39 95.78 62.33 96.15Q62.27 96.53 62.23 96.9Q62.19 97.27 62.17 97.66Q62.16 97.84 62.26 97.98Q62.36 98.12 62.57 98.18Q62.67 98.2 62.72 98.23Q62.77 98.26 62.77 98.31Q62.77 98.35 62.71 98.36Q62.66 98.38 62.58 98.37Q62.41 98.36 62.32 98.35Q62.23 98.33 62.16 98.33Q62.09 98.32 61.97 98.31Q61.85 98.3 61.75 98.3Q61.66 98.3 61.57 98.3Q61.47 98.3 61.35 98.3Z" fill="#EAE3D2"/><path d="M69.57 98.43Q69.48 98.45 69.43 98.44Q69.38 98.44 69.38 98.39Q69.37 98.35 69.42 98.32Q69.47 98.28 69.56 98.24Q69.7 98.17 69.78 98.03Q69.86 97.9 69.85 97.68Q69.82 97.19 69.78 96.7Q69.74 96.21 69.69 95.77Q69.65 95.32 69.6 94.98Q69.59 94.94 69.58 94.88Q69.57 94.82 69.55 94.77Q69.54 94.71 69.5 94.65Q69.47 94.59 69.39 94.56Q69.28 94.5 69.17 94.49Q69.06 94.47 68.93 94.47Q68.86 94.47 68.81 94.44Q68.76 94.42 68.76 94.37Q68.74 94.32 68.8 94.29Q68.85 94.27 68.94 94.25Q69.02 94.24 69.15 94.22Q69.28 94.2 69.44 94.18Q69.6 94.16 69.74 94.14Q69.89 94.12 69.98 94.1Q70.02 94.09 70.07 94.11Q70.11 94.13 70.13 94.18Q70.19 94.29 70.24 94.4Q70.3 94.51 70.37 94.63L71.8 96.85Q71.82 96.89 71.87 96.89Q71.91 96.88 71.92 96.84L72.58 94.22Q72.59 94.07 72.59 93.93Q72.59 93.79 72.6 93.69Q72.6 93.6 72.66 93.59L72.9 93.55Q73.11 93.51 73.35 93.43Q73.58 93.36 73.7 93.33Q73.75 93.33 73.8 93.33Q73.86 93.34 73.86 93.38Q73.87 93.43 73.84 93.46Q73.81 93.5 73.73 93.54Q73.67 93.58 73.59 93.63Q73.52 93.68 73.45 93.72Q73.36 93.78 73.32 93.87Q73.28 93.95 73.3 94.07Q73.39 94.51 73.48 94.88Q73.57 95.24 73.65 95.57Q73.73 95.9 73.82 96.23Q73.91 96.56 74 96.93Q74.04 97.11 74.18 97.19Q74.32 97.27 74.55 97.28Q74.64 97.28 74.7 97.29Q74.75 97.31 74.76 97.36Q74.76 97.4 74.72 97.43Q74.68 97.45 74.61 97.47Q74.45 97.5 74.32 97.51Q74.18 97.53 74.05 97.55Q73.92 97.57 73.78 97.59Q73.66 97.62 73.55 97.64Q73.45 97.67 73.33 97.7Q73.21 97.74 73.05 97.77Q72.98 97.78 72.93 97.77Q72.88 97.77 72.87 97.72Q72.86 97.68 72.9 97.64Q72.94 97.6 73.03 97.57Q73.23 97.5 73.28 97.39Q73.34 97.27 73.3 97.07Q73.21 96.63 73.13 96.27Q73.05 95.9 72.96 95.54Q72.87 95.18 72.78 94.78Q72.77 94.73 72.74 94.73Q72.71 94.74 72.69 94.81L71.89 97.98Q71.88 98.04 71.83 98.04Q71.78 98.05 71.76 98.01Q71.35 97.32 70.91 96.67Q70.48 96.01 70 95.29Q69.98 95.26 69.94 95.27Q69.91 95.29 69.91 95.33Q69.94 95.74 69.98 96.11Q70.02 96.49 70.07 96.86Q70.12 97.23 70.2 97.62Q70.23 97.79 70.37 97.9Q70.5 98.01 70.72 98.01Q70.82 98.01 70.87 98.03Q70.93 98.04 70.94 98.09Q70.95 98.13 70.9 98.16Q70.86 98.19 70.78 98.2Q70.61 98.23 70.52 98.24Q70.43 98.25 70.36 98.26Q70.29 98.27 70.17 98.29Q70.05 98.32 69.96 98.34Q69.87 98.36 69.78 98.39Q69.69 98.41 69.57 98.43Z" fill="#EAE3D2"/><path d="M77.41 96.55Q77.34 96.58 77.28 96.59Q77.22 96.59 77.2 96.55Q77.18 96.5 77.22 96.45Q77.26 96.41 77.33 96.34Q77.42 96.26 77.53 96.13Q77.63 96 77.72 95.82Q77.81 95.64 77.87 95.43L78.18 94.19Q78.21 94.07 78.19 93.98Q78.17 93.89 78.03 93.81L76.73 93.05Q76.54 92.93 76.39 92.88Q76.25 92.82 76.13 92.82Q76.02 92.81 75.9 92.83Q75.81 92.84 75.75 92.83Q75.69 92.83 75.67 92.78Q75.65 92.74 75.69 92.71Q75.72 92.67 75.79 92.64Q75.97 92.56 76.23 92.46Q76.5 92.36 76.73 92.26Q76.91 92.18 77.08 92.09Q77.24 92 77.35 91.95Q77.42 91.92 77.48 91.91Q77.54 91.91 77.56 91.94Q77.58 91.99 77.54 92.04Q77.5 92.08 77.42 92.15Q77.29 92.26 77.23 92.33Q77.16 92.41 77.2 92.49Q77.24 92.58 77.5 92.72L78.37 93.23Q78.48 93.29 78.51 93.27Q78.55 93.25 78.57 93.16L78.79 92.13Q78.82 92.01 78.83 91.92Q78.83 91.82 78.8 91.76Q78.77 91.69 78.69 91.67Q78.61 91.65 78.46 91.69Q78.39 91.7 78.31 91.7Q78.23 91.7 78.21 91.65Q78.2 91.62 78.24 91.58Q78.28 91.54 78.36 91.5Q78.44 91.46 78.52 91.43Q78.6 91.4 78.68 91.37Q78.76 91.34 78.86 91.29Q79.03 91.21 79.18 91.12Q79.34 91.03 79.48 90.97Q79.55 90.93 79.61 90.93Q79.67 90.92 79.69 90.96Q79.71 91 79.67 91.05Q79.63 91.1 79.55 91.16Q79.42 91.27 79.31 91.52Q79.21 91.77 79.14 92.04L78.81 93.22Q78.77 93.34 78.78 93.4Q78.79 93.45 78.87 93.51L80.4 94.42Q80.59 94.54 80.79 94.59Q80.99 94.64 81.15 94.62Q81.25 94.6 81.32 94.6Q81.38 94.61 81.41 94.66Q81.42 94.69 81.39 94.73Q81.35 94.77 81.27 94.8Q81.15 94.86 80.98 94.92Q80.81 94.99 80.64 95.05Q80.47 95.12 80.32 95.19Q80.14 95.27 79.98 95.35Q79.82 95.43 79.69 95.49Q79.62 95.52 79.56 95.52Q79.51 95.52 79.49 95.48Q79.47 95.44 79.52 95.39Q79.57 95.33 79.62 95.29Q79.7 95.21 79.77 95.11Q79.84 95.01 79.79 94.89Q79.77 94.85 79.73 94.82Q79.7 94.79 79.65 94.75L78.63 94.15Q78.54 94.09 78.5 94.1Q78.46 94.11 78.44 94.2L78.16 95.45Q78.15 95.53 78.16 95.58Q78.16 95.64 78.18 95.67Q78.22 95.75 78.32 95.78Q78.41 95.81 78.54 95.78Q78.64 95.76 78.7 95.77Q78.76 95.77 78.78 95.82Q78.8 95.85 78.76 95.89Q78.72 95.93 78.65 95.96Q78.54 96.01 78.39 96.07Q78.24 96.13 78.1 96.2Q77.91 96.28 77.74 96.38Q77.57 96.48 77.41 96.55Z" fill="#EAE3D2"/><path d="M83.69 93.39Q83.63 93.44 83.57 93.46Q83.52 93.47 83.49 93.44Q83.46 93.4 83.49 93.34Q83.51 93.29 83.57 93.21Q83.64 93.11 83.72 92.96Q83.79 92.81 83.84 92.62Q83.89 92.42 83.9 92.2L83.94 90.92Q83.94 90.81 83.9 90.72Q83.86 90.63 83.71 90.58L82.28 90.12Q82.06 90.05 81.91 90.03Q81.76 90 81.65 90.02Q81.53 90.04 81.42 90.08Q81.33 90.12 81.27 90.12Q81.21 90.13 81.18 90.08Q81.16 90.05 81.19 90.01Q81.21 89.97 81.27 89.92Q81.43 89.8 81.67 89.65Q81.9 89.5 82.11 89.35Q82.27 89.23 82.41 89.11Q82.55 88.98 82.65 88.91Q82.71 88.86 82.77 88.85Q82.82 88.83 82.85 88.86Q82.88 88.9 82.85 88.96Q82.82 89.01 82.76 89.09Q82.66 89.23 82.61 89.31Q82.56 89.4 82.62 89.47Q82.67 89.55 82.96 89.63L83.92 89.94Q84.04 89.98 84.07 89.95Q84.09 89.93 84.1 89.84L84.1 88.78Q84.1 88.66 84.08 88.56Q84.07 88.47 84.03 88.42Q83.98 88.36 83.9 88.35Q83.81 88.35 83.68 88.42Q83.61 88.44 83.53 88.46Q83.46 88.48 83.43 88.44Q83.4 88.41 83.44 88.36Q83.47 88.31 83.53 88.26Q83.61 88.2 83.68 88.16Q83.75 88.11 83.82 88.06Q83.89 88.01 83.98 87.95Q84.13 87.84 84.26 87.71Q84.4 87.59 84.52 87.5Q84.58 87.45 84.64 87.43Q84.69 87.41 84.72 87.44Q84.75 87.48 84.72 87.54Q84.69 87.59 84.63 87.67Q84.53 87.8 84.47 88.07Q84.42 88.34 84.41 88.61L84.34 89.84Q84.34 89.97 84.36 90.02Q84.38 90.07 84.47 90.11L86.16 90.67Q86.37 90.75 86.58 90.75Q86.78 90.76 86.93 90.7Q87.02 90.67 87.09 90.66Q87.16 90.65 87.19 90.69Q87.21 90.72 87.19 90.76Q87.16 90.81 87.09 90.86Q86.98 90.94 86.83 91.04Q86.68 91.14 86.53 91.24Q86.38 91.34 86.24 91.44Q86.08 91.56 85.94 91.67Q85.8 91.78 85.69 91.87Q85.63 91.91 85.58 91.93Q85.52 91.94 85.5 91.91Q85.47 91.87 85.5 91.81Q85.54 91.74 85.58 91.69Q85.65 91.6 85.69 91.48Q85.73 91.37 85.66 91.27Q85.63 91.23 85.59 91.21Q85.55 91.18 85.49 91.16L84.37 90.79Q84.27 90.75 84.23 90.77Q84.19 90.79 84.2 90.88L84.19 92.16Q84.19 92.24 84.21 92.29Q84.23 92.34 84.26 92.37Q84.32 92.44 84.42 92.45Q84.52 92.45 84.63 92.4Q84.73 92.36 84.79 92.35Q84.85 92.34 84.88 92.38Q84.9 92.41 84.87 92.46Q84.84 92.51 84.77 92.56Q84.68 92.62 84.55 92.72Q84.41 92.81 84.29 92.9Q84.12 93.03 83.97 93.16Q83.83 93.29 83.69 93.39Z" fill="#EAE3D2"/><path d="M90.47 87.52Q90.43 87.57 90.36 87.55Q90.27 87.52 90.14 87.47Q90.01 87.42 89.91 87.39L86.8 86.25Q86.63 86.19 86.47 86.19Q86.31 86.2 86.16 86.3Q86.08 86.34 86.02 86.36Q85.97 86.38 85.93 86.35Q85.89 86.32 85.91 86.27Q85.93 86.23 85.98 86.17Q86.06 86.09 86.15 85.99Q86.25 85.89 86.35 85.77Q86.45 85.66 86.55 85.55Q86.63 85.46 86.72 85.35Q86.81 85.23 86.9 85.13Q86.98 85.03 87.04 84.96Q87.09 84.91 87.14 84.88Q87.19 84.85 87.22 84.87Q87.26 84.91 87.25 84.97Q87.24 85.04 87.19 85.11Q87.09 85.27 87.06 85.39Q87.03 85.51 87.11 85.58Q87.17 85.64 87.24 85.66Q87.31 85.69 87.35 85.71L89.73 86.62Q89.77 86.63 89.78 86.62Q89.8 86.61 89.78 86.56L88.68 84.5Q88.51 84.19 88.31 84.14Q88.11 84.1 87.94 84.26Q87.88 84.32 87.81 84.34Q87.75 84.36 87.71 84.33Q87.68 84.3 87.7 84.25Q87.72 84.19 87.77 84.14Q87.84 84.06 87.91 83.99Q87.97 83.92 88.04 83.84Q88.11 83.77 88.19 83.67Q88.32 83.53 88.44 83.38Q88.55 83.22 88.65 83.12Q88.7 83.05 88.75 83.02Q88.8 82.99 88.84 83.03Q88.87 83.06 88.86 83.11Q88.84 83.17 88.8 83.26Q88.69 83.46 88.71 83.68Q88.73 83.89 88.84 84.1L90.14 86.73Q90.19 86.83 90.25 86.95Q90.31 87.07 90.37 87.19Q90.44 87.31 90.48 87.42Q90.5 87.45 90.49 87.47Q90.49 87.5 90.47 87.52Z" fill="#EAE3D2"/><path d="M93.41 83.53Q93.37 83.59 93.33 83.62Q93.3 83.66 93.26 83.63Q93.19 83.59 93.25 83.41Q93.34 83.18 93.31 83.03Q93.29 82.88 93.11 82.77L90.63 81.28Q90.44 81.16 90.32 81.19Q90.19 81.22 90.02 81.4Q89.89 81.54 89.82 81.49Q89.78 81.47 89.78 81.42Q89.79 81.38 89.83 81.31Q89.91 81.17 89.99 81.06Q90.06 80.95 90.13 80.85Q90.2 80.75 90.27 80.63Q90.34 80.52 90.4 80.41Q90.46 80.31 90.52 80.2Q90.57 80.09 90.66 79.95Q90.7 79.89 90.73 79.86Q90.77 79.83 90.81 79.85Q90.85 79.88 90.85 79.93Q90.85 79.99 90.82 80.08Q90.74 80.32 90.77 80.45Q90.79 80.58 90.98 80.69L93.46 82.19Q93.64 82.3 93.78 82.25Q93.93 82.19 94.09 82.01Q94.16 81.94 94.2 81.92Q94.25 81.89 94.29 81.92Q94.33 81.94 94.32 81.98Q94.32 82.03 94.28 82.1Q94.19 82.23 94.12 82.34Q94.04 82.45 93.97 82.56Q93.9 82.66 93.83 82.78Q93.75 82.91 93.68 83.03Q93.62 83.14 93.56 83.27Q93.49 83.39 93.41 83.53Z" fill="#EAE3D2"/><path d="M58.78 74Q58.78 74.34 58.98 74.56Q59.18 74.77 59.56 74.87L60.5 75.08Q61.13 75.27 61.13 75.83Q61.13 76.13 60.92 76.32Q60.71 76.5 60.25 76.5H52.41Q51.94 76.5 51.73 76.32Q51.51 76.13 51.51 75.83Q51.51 75.27 52.14 75.08L53.1 74.87Q53.48 74.77 53.67 74.56Q53.86 74.34 53.86 74V56.6Q53.86 56.26 53.67 56.04Q53.48 55.83 53.1 55.73L52.14 55.52Q51.51 55.33 51.51 54.77Q51.51 54.45 51.73 54.28Q51.94 54.1 52.41 54.1H60.25Q60.71 54.1 60.92 54.28Q61.13 54.45 61.13 54.77Q61.13 55.33 60.5 55.52L59.56 55.73Q59.18 55.83 58.98 56.04Q58.78 56.26 58.78 56.6Z" fill="#EAE3D2"/><path d="M73.24 76.98Q71.91 76.98 70.97 76.66Q70.02 76.34 69.43 76.02Q68.84 75.7 68.55 75.7Q68.26 75.7 68.05 75.9Q67.83 76.1 67.64 76.36Q67.45 76.63 67.23 76.83Q67.02 77.03 66.73 77.03Q66.42 77.03 66.22 76.84Q66.01 76.64 65.93 76.21L64.82 70.82Q64.76 70.5 64.9 70.27Q65.03 70.04 65.35 69.92Q65.7 69.8 65.97 69.93Q66.23 70.07 66.42 70.45Q67.38 72.34 68.43 73.44Q69.48 74.53 70.62 75Q71.75 75.48 72.92 75.48Q74.57 75.48 75.51 74.61Q76.46 73.75 76.47 72.28Q76.47 71.35 76.04 70.57Q75.61 69.8 74.42 69.08Q73.22 68.37 70.92 67.62Q68.47 66.82 67.01 65.79Q65.54 64.76 64.88 63.38Q64.22 62 64.22 60.21Q64.22 58.28 65.14 56.8Q66.07 55.33 67.74 54.51Q69.42 53.68 71.64 53.68Q73.08 53.68 74.02 53.99Q74.95 54.29 75.55 54.6Q76.15 54.9 76.54 54.9Q76.89 54.9 77.1 54.59Q77.3 54.28 77.54 53.96Q77.78 53.64 78.2 53.64Q78.52 53.64 78.74 53.84Q78.95 54.05 79.11 54.61L80.65 60.02Q80.76 60.4 80.62 60.7Q80.49 61 80.15 61.12Q79.82 61.24 79.54 61.1Q79.27 60.96 79.1 60.61Q78.07 58.56 76.92 57.38Q75.77 56.2 74.57 55.69Q73.37 55.19 72.12 55.19Q70.49 55.19 69.51 56.14Q68.54 57.09 68.54 58.64Q68.54 59.57 68.96 60.37Q69.38 61.17 70.55 61.93Q71.72 62.69 73.93 63.49Q76.42 64.39 77.89 65.42Q79.35 66.45 79.99 67.73Q80.63 69.01 80.63 70.66Q80.62 72.4 79.74 73.84Q78.87 75.27 77.22 76.12Q75.58 76.98 73.24 76.98Z" fill="#EAE3D2"/></svg>