<svg xmlns="http://www.w3.org/2000/svg" viewBox="0 0 497 132"><g transform="translate(0,7) scale(0.8939)"><circle cx="66" cy="66" r="58" stroke="#EAE3D2" stroke-width="1.8" fill="none"/><circle cx="66" cy="66" r="56.2" stroke="#EAE3D2" stroke-width="0.7" fill="none"/><circle cx="66" cy="66" r="41" stroke="#EAE3D2" stroke-width="1.2" fill="none"/><circle cx="66" cy="66" r="39" stroke="#EAE3D2" stroke-width="0.5" fill="none"/><path d="M14.899999999999999 66 L17.4 62.8 L19.9 66 L17.4 69.2 Z" fill="#EAE3D2"/><path d="M112.1 66 L114.6 62.8 L117.1 66 L114.6 69.2 Z" fill="#EAE3D2"/><path d="M26.58 45.62Q26.51 45.73 26.44 45.8Q26.37 45.86 26.3 45.82Q26.16 45.74 26.27 45.4Q26.42 44.97 26.37 44.69Q26.32 44.41 25.96 44.21L21.24 41.55Q20.88 41.35 20.65 41.41Q20.41 41.48 20.11 41.83Q19.87 42.09 19.73 42.01Q19.65 41.97 19.66 41.88Q19.67 41.79 19.74 41.67Q19.89 41.4 20.02 41.19Q20.15 40.99 20.27 40.79Q20.4 40.6 20.53 40.37Q20.65 40.15 20.75 39.95Q20.86 39.76 20.96 39.55Q21.06 39.34 21.21 39.08Q21.28 38.95 21.35 38.89Q21.42 38.83 21.49 38.87Q21.57 38.92 21.58 39.03Q21.58 39.13 21.53 39.3Q21.39 39.76 21.45 40Q21.5 40.25 21.86 40.45L26.59 43.1Q26.93 43.3 27.2 43.19Q27.47 43.08 27.77 42.74Q27.89 42.6 27.97 42.55Q28.06 42.5 28.14 42.55Q28.2 42.58 28.2 42.67Q28.19 42.75 28.12 42.88Q27.97 43.14 27.83 43.35Q27.69 43.56 27.57 43.76Q27.44 43.96 27.31 44.19Q27.17 44.44 27.06 44.66Q26.95 44.88 26.84 45.12Q26.72 45.36 26.58 45.62Z" fill="#EAE3D2"/><path d="M35.45 33.96Q35.16 34.28 34.86 34.47Q34.57 34.67 34.25 34.75Q33.94 34.83 33.6 34.81Q33.15 34.77 32.72 34.74Q32.3 34.71 31.8 34.63Q31.3 34.54 30.6 34.41Q30.27 34.33 29.97 34.44Q29.75 34.52 29.58 34.65Q29.41 34.78 29.31 34.87Q29.25 34.93 29.27 35Q29.3 35.08 29.38 35.15L30.99 36.61Q31.27 36.87 31.58 36.89Q31.89 36.91 32.27 36.62Q32.41 36.52 32.51 36.48Q32.6 36.45 32.67 36.51Q32.73 36.56 32.7 36.65Q32.67 36.74 32.57 36.84Q32.37 37.06 32.2 37.23Q32.03 37.39 31.88 37.53Q31.72 37.68 31.57 37.84Q31.38 38.06 31.22 38.26Q31.06 38.47 30.9 38.67Q30.74 38.87 30.53 39.1Q30.44 39.2 30.36 39.25Q30.27 39.3 30.21 39.24Q30.1 39.13 30.28 38.83Q30.52 38.43 30.52 38.17Q30.52 37.9 30.21 37.62L26.34 34.13Q26.04 33.85 25.85 33.75Q25.66 33.64 25.49 33.69Q25.33 33.74 25.07 33.95Q24.93 34.08 24.82 34.1Q24.72 34.11 24.66 34.06Q24.6 34.01 24.63 33.92Q24.66 33.82 24.75 33.72Q24.98 33.46 25.12 33.33Q25.26 33.2 25.38 33.07Q25.5 32.94 25.68 32.75Q25.84 32.57 25.95 32.42Q26.07 32.26 26.22 32.07Q26.36 31.88 26.61 31.61Q27.51 30.61 28.35 30.4Q29.19 30.2 29.92 30.86Q30.32 31.22 30.46 31.64Q30.59 32.07 30.56 32.48Q30.52 32.9 30.4 33.25Q30.38 33.29 30.41 33.32Q30.45 33.34 30.51 33.36Q31.17 33.46 31.77 33.54Q32.36 33.62 32.97 33.64Q33.57 33.66 34.26 33.6Q34.71 33.56 35 33.32Q35.29 33.09 35.58 32.78Q35.7 32.65 35.82 32.76Q35.97 32.9 35.93 33.11Q35.89 33.33 35.75 33.55Q35.61 33.78 35.45 33.96ZM29.35 34.35Q29.7 33.97 29.77 33.54Q29.84 33.11 29.68 32.71Q29.53 32.3 29.19 31.99Q28.81 31.65 28.42 31.48Q28.04 31.31 27.64 31.42Q27.25 31.53 26.81 32.01Q26.59 32.26 26.68 32.51Q26.77 32.75 27.25 33.2Q27.45 33.4 27.8 33.72Q28.16 34.05 28.65 34.49Q28.86 34.69 29.02 34.62Q29.17 34.55 29.35 34.35Z" fill="#EAE3D2"/><path d="M42.53 28.51Q41.85 28.94 41.08 29.08Q40.32 29.23 39.56 29.08Q38.81 28.94 38.14 28.5Q37.48 28.05 37.01 27.3Q36.57 26.61 36.41 25.83Q36.24 25.05 36.37 24.28Q36.5 23.5 36.98 22.79Q37.46 22.08 38.31 21.55Q39 21.12 39.77 20.97Q40.53 20.83 41.29 20.97Q42.04 21.12 42.71 21.56Q43.37 22 43.84 22.75Q44.27 23.43 44.44 24.22Q44.61 25 44.48 25.78Q44.35 26.55 43.87 27.26Q43.39 27.97 42.53 28.51ZM42.42 27.98Q43.14 27.54 43.4 26.91Q43.67 26.28 43.54 25.54Q43.41 24.8 42.93 24.03Q42.5 23.35 41.97 22.83Q41.45 22.31 40.85 22.01Q40.25 21.71 39.63 21.72Q39.02 21.73 38.42 22.11Q37.73 22.54 37.46 23.16Q37.19 23.78 37.31 24.51Q37.43 25.24 37.91 26.01Q38.35 26.71 38.87 27.23Q39.39 27.75 39.99 28.05Q40.59 28.35 41.21 28.35Q41.82 28.36 42.42 27.98Z" fill="#EAE3D2"/><path d="M57.34 22.55Q57.23 22.58 56.86 22.49Q56.49 22.4 56.08 22.08Q55.91 21.97 55.57 21.74Q55.22 21.51 54.76 21.2Q54.29 20.89 53.77 20.54Q53.24 20.19 52.71 19.84Q52.19 19.5 51.72 19.19Q51.26 18.88 50.9 18.65Q50.54 18.41 50.36 18.31Q50.28 18.24 50.22 18.21Q50.15 18.18 50.11 18.19Q50.06 18.21 50.06 18.3Q50.06 18.39 50.08 18.46Q50.23 19.02 50.43 19.75Q50.63 20.48 50.84 21.25Q51.05 22.02 51.23 22.69Q51.32 23.02 51.58 23.22Q51.83 23.42 52.3 23.39Q52.47 23.38 52.58 23.4Q52.69 23.42 52.72 23.51Q52.74 23.58 52.65 23.64Q52.57 23.7 52.43 23.74Q52.12 23.82 51.95 23.85Q51.77 23.88 51.63 23.91Q51.49 23.95 51.26 24.01Q51.04 24.07 50.89 24.13Q50.74 24.18 50.59 24.24Q50.44 24.29 50.22 24.35Q50.1 24.39 49.99 24.38Q49.88 24.38 49.86 24.3Q49.84 24.22 49.92 24.14Q49.99 24.06 50.16 23.97Q50.44 23.79 50.52 23.5Q50.6 23.21 50.53 22.86Q50.46 22.4 50.31 21.67Q50.16 20.94 49.95 20.04Q49.74 19.14 49.47 18.19Q49.3 17.58 48.92 17.4Q48.53 17.22 48 17.2Q47.94 17.19 47.77 17.16Q47.61 17.13 47.58 17.03Q47.55 16.92 47.65 16.86Q47.74 16.79 47.81 16.78Q48.11 16.7 48.34 16.65Q48.57 16.59 48.78 16.54Q48.99 16.5 49.22 16.44Q49.46 16.38 49.77 16.29Q49.87 16.27 49.95 16.3Q50.02 16.34 50.08 16.39Q50.25 16.51 50.61 16.76Q50.97 17.01 51.46 17.34Q51.95 17.68 52.5 18.06Q53.05 18.43 53.61 18.82Q54.16 19.2 54.65 19.53Q55.14 19.87 55.5 20.11Q55.86 20.36 56.02 20.46Q56.08 20.5 56.18 20.56Q56.27 20.62 56.33 20.6Q56.44 20.57 56.39 20.35Q56.32 20.12 56.19 19.65Q56.06 19.19 55.9 18.58Q55.74 17.96 55.55 17.29Q55.36 16.61 55.16 15.94Q55.08 15.69 54.8 15.58Q54.52 15.46 54.24 15.48Q54.07 15.5 53.91 15.48Q53.76 15.46 53.73 15.37Q53.71 15.3 53.84 15.23Q53.97 15.15 54.1 15.12Q54.27 15.07 54.41 15.03Q54.54 15 54.67 14.96Q54.79 14.92 54.92 14.89Q55.19 14.82 55.35 14.77Q55.51 14.71 55.7 14.65Q55.88 14.59 56.22 14.49Q56.36 14.45 56.45 14.46Q56.55 14.48 56.57 14.56Q56.62 14.72 56.28 14.89Q55.88 15.08 55.77 15.26Q55.66 15.43 55.73 15.74Q55.78 15.92 55.89 16.35Q55.99 16.77 56.14 17.34Q56.29 17.91 56.46 18.54Q56.62 19.16 56.78 19.76Q56.95 20.37 57.09 20.85Q57.16 21.13 57.26 21.38Q57.35 21.64 57.42 21.82Q57.49 22.01 57.52 22.1Q57.58 22.32 57.52 22.42Q57.46 22.52 57.34 22.55Z" fill="#EAE3D2"/><path d="M64.68 21.8Q64.18 21.81 63.73 21.68Q63.29 21.55 62.91 21.29Q62.86 21.24 62.8 21.17Q62.75 21.11 62.72 21.04Q62.63 20.76 62.59 20.35Q62.55 19.94 62.54 19.61Q62.53 19.53 62.6 19.49Q62.68 19.44 62.77 19.44Q62.86 19.44 62.91 19.47Q62.96 19.5 62.99 19.58Q63.26 20.49 63.76 20.92Q64.27 21.36 64.84 21.35Q65.25 21.34 65.54 21.16Q65.83 20.97 65.99 20.66Q66.15 20.35 66.14 19.97Q66.13 19.51 65.97 19.23Q65.81 18.94 65.5 18.72Q65.2 18.5 64.75 18.24Q64.26 17.97 63.79 17.66Q63.33 17.36 63.02 16.95Q62.71 16.54 62.69 15.92Q62.68 15.28 62.97 14.77Q63.27 14.27 63.85 13.96Q64.43 13.65 65.26 13.64Q65.69 13.63 66.05 13.71Q66.4 13.79 66.62 13.88Q66.73 13.92 66.8 14Q66.87 14.08 66.91 14.2Q66.97 14.45 67.05 14.78Q67.13 15.12 67.14 15.47Q67.14 15.6 66.95 15.6Q66.84 15.61 66.74 15.56Q66.65 15.51 66.62 15.44Q66.37 14.78 66 14.44Q65.64 14.1 65.1 14.11Q64.74 14.12 64.45 14.25Q64.16 14.38 63.99 14.67Q63.83 14.95 63.84 15.41Q63.84 15.73 64.07 16.01Q64.3 16.29 64.68 16.54Q65.07 16.78 65.54 17.05Q66.04 17.34 66.44 17.65Q66.84 17.97 67.08 18.38Q67.32 18.79 67.33 19.36Q67.35 20.12 67.02 20.66Q66.7 21.2 66.1 21.49Q65.5 21.78 64.68 21.8Z" fill="#EAE3D2"/><path d="M73.76 22.3Q73.63 22.28 73.54 22.23Q73.45 22.18 73.47 22.1Q73.49 22.01 73.6 21.98Q73.7 21.95 73.87 21.95Q74.34 21.96 74.6 21.82Q74.86 21.68 74.95 21.27L75.94 16.62Q76.05 16.11 76.09 15.84Q76.12 15.57 76.09 15.46Q76.07 15.35 75.99 15.31Q75.86 15.24 75.68 15.2Q75.51 15.16 75.27 15.11L74.81 15.01Q74.51 14.94 74.18 15.01Q73.85 15.09 73.65 15.3Q73.59 15.36 73.47 15.46Q73.36 15.57 73.23 15.63Q73.11 15.7 73 15.68Q72.94 15.66 72.93 15.61Q72.91 15.56 72.92 15.49Q72.95 15.36 73.05 15.24Q73.31 14.91 73.46 14.64Q73.6 14.38 73.73 14Q73.79 13.82 73.87 13.79Q73.95 13.76 74.02 13.77Q74.08 13.78 74.15 13.95Q74.22 14.12 74.26 14.23Q74.33 14.35 74.57 14.47Q74.82 14.58 75.04 14.63L79.28 15.52Q79.65 15.6 79.9 15.6Q80.15 15.61 80.32 15.57Q80.5 15.52 80.61 15.44Q80.73 15.36 80.88 15.4Q80.93 15.41 80.93 15.49Q80.94 15.57 80.92 15.66Q80.91 15.71 80.88 15.8Q80.85 15.89 80.82 15.95Q80.73 16.16 80.66 16.28Q80.59 16.4 80.55 16.51Q80.51 16.62 80.47 16.79L80.44 16.96Q80.41 17.1 80.33 17.22Q80.26 17.34 80.16 17.32Q80.07 17.3 80.04 17.16Q80 17.03 80 16.78Q79.99 16.46 79.78 16.24Q79.58 16.03 79.03 15.91L78.04 15.7Q77.81 15.65 77.66 15.7Q77.52 15.75 77.42 16.01Q77.32 16.28 77.19 16.89L76.19 21.54Q76.11 21.94 76.3 22.17Q76.49 22.41 76.91 22.6Q77.07 22.67 77.15 22.73Q77.22 22.8 77.2 22.89Q77.19 22.96 77.1 22.98Q77.01 23 76.87 22.97Q76.58 22.91 76.33 22.84Q76.09 22.77 75.86 22.7Q75.63 22.64 75.37 22.59Q75.09 22.53 74.84 22.49Q74.59 22.45 74.33 22.41Q74.06 22.37 73.76 22.3Z" fill="#EAE3D2"/><path d="M82.75 24.76Q82.62 24.69 82.55 24.61Q82.48 24.53 82.52 24.45Q82.57 24.37 82.68 24.36Q82.79 24.35 82.97 24.37Q83.3 24.44 83.62 24.39Q83.95 24.34 84.28 24.06Q84.9 23.56 85.45 23.09Q86 22.62 86.52 22.16Q87.04 21.7 87.59 21.21Q88.14 20.71 88.74 20.14Q88.96 19.95 89.09 19.8Q89.22 19.66 89.29 19.54Q89.45 19.58 89.58 19.6Q89.72 19.62 89.9 19.62Q90.06 19.62 90.19 19.53Q90.32 19.45 90.39 19.41Q90.42 19.41 90.45 19.42Q90.48 19.43 90.48 19.48Q90.48 19.55 90.47 19.63Q90.45 19.7 90.43 19.78Q90.28 20.69 90.13 21.63Q89.98 22.57 89.84 23.47Q89.7 24.37 89.59 25.14Q89.47 25.91 89.38 26.49Q89.32 26.9 89.38 27.17Q89.45 27.44 89.58 27.62Q89.72 27.81 89.91 27.96Q90.05 28.07 90.1 28.18Q90.15 28.28 90.1 28.37Q90.07 28.43 89.98 28.42Q89.88 28.4 89.77 28.34Q89.6 28.26 89.33 28.1Q89.06 27.94 88.76 27.78Q88.47 27.61 88.22 27.49Q88.02 27.38 87.78 27.26Q87.53 27.13 87.31 27.03Q87.08 26.93 86.92 26.84Q86.79 26.78 86.73 26.7Q86.67 26.62 86.7 26.56Q86.75 26.47 86.87 26.47Q87 26.46 87.13 26.51Q87.53 26.63 87.76 26.59Q87.99 26.54 88.07 26.31Q88.15 26.13 88.23 25.82Q88.3 25.52 88.37 25.17Q88.44 24.82 88.5 24.53Q88.52 24.43 88.48 24.38Q88.44 24.33 88.31 24.27L86.34 23.25Q86.28 23.23 86.22 23.24Q86.16 23.26 86.06 23.34Q85.96 23.45 85.79 23.62Q85.62 23.78 85.45 23.96Q85.27 24.15 85.12 24.31Q84.98 24.47 84.93 24.55Q84.76 24.8 84.84 25.04Q84.93 25.28 85.22 25.54Q85.49 25.79 85.43 25.92Q85.39 25.99 85.3 25.98Q85.2 25.96 85.07 25.9Q84.87 25.79 84.61 25.65Q84.35 25.5 84.05 25.35Q83.71 25.17 83.37 25.04Q83.03 24.91 82.75 24.76ZM86.86 22.97 88.42 23.77Q88.57 23.84 88.59 23.79Q88.61 23.76 88.62 23.74Q88.62 23.71 88.63 23.66L89.14 20.73Q89.17 20.53 89.14 20.51Q89.12 20.5 88.99 20.63L86.75 22.7Q86.7 22.75 86.69 22.77Q86.66 22.83 86.71 22.87Q86.76 22.92 86.86 22.97Z" fill="#EAE3D2"/><path d="M96.3 33.79Q95.67 33.21 95.27 32.46Q94.88 31.7 94.78 30.9Q94.69 30.1 94.93 29.31Q95.17 28.52 95.79 27.85Q96.36 27.22 97.13 26.91Q97.9 26.6 98.75 26.62Q99.61 26.65 100.45 26.99Q101.29 27.33 102.03 28Q102.35 28.3 102.58 28.56Q102.81 28.83 103 29.1Q103.19 29.37 103.39 29.71Q103.47 29.85 103.47 29.97Q103.47 30.08 103.36 30.22Q103.18 30.47 102.98 30.74Q102.77 31.01 102.5 31.32Q102.43 31.4 102.33 31.37Q102.23 31.34 102.17 31.25Q102.12 31.15 102.18 31.03Q102.37 30.67 102.47 30.34Q102.57 30.01 102.51 29.68Q102.45 29.33 102.22 28.95Q101.98 28.58 101.59 28.22Q101.1 27.77 100.5 27.59Q99.89 27.41 99.28 27.5Q98.67 27.58 98.1 27.87Q97.53 28.16 97.09 28.64Q96.58 29.2 96.27 29.86Q95.95 30.51 95.89 31.18Q95.82 31.85 96.03 32.47Q96.24 33.1 96.77 33.58Q97.41 34.17 98.09 34.26Q98.77 34.35 99.54 34.07Q99.72 34 99.84 34.12Q99.97 34.23 99.84 34.37Q99.76 34.46 99.58 34.59Q99.41 34.71 99.19 34.85Q98.97 34.98 98.78 35.08Q98.62 35.15 98.54 35.15Q98.45 35.16 98.29 35.09Q97.82 34.92 97.3 34.57Q96.78 34.23 96.3 33.79Z" fill="#EAE3D2"/><path d="M101.62 39.35Q101.55 39.23 101.52 39.13Q101.5 39.02 101.57 38.98Q101.7 38.89 101.96 39.17Q102.27 39.51 102.52 39.55Q102.76 39.59 103.12 39.36L107.7 36.48Q108.04 36.27 108.1 36.03Q108.15 35.8 107.98 35.35Q107.86 35.02 108 34.93Q108.07 34.89 108.15 34.94Q108.23 35 108.3 35.11Q108.46 35.38 108.58 35.58Q108.69 35.79 108.81 35.98Q108.92 36.17 109.05 36.38Q109.17 36.57 109.28 36.74Q109.39 36.9 109.52 37.09Q109.64 37.27 109.8 37.53Q109.88 37.65 109.89 37.73Q109.91 37.81 109.84 37.86Q109.76 37.91 109.67 37.87Q109.58 37.82 109.45 37.69Q109.12 37.36 108.89 37.37Q108.67 37.37 108.38 37.56L106.41 38.79Q106.36 38.82 106.31 38.88Q106.25 38.94 106.28 38.98Q106.31 39.03 106.41 39.07Q106.52 39.11 106.62 39.13L109.96 39.83Q110.1 39.85 110.2 39.85Q110.31 39.84 110.38 39.8Q110.57 39.68 110.46 39.37Q110.41 39.19 110.41 39.09Q110.41 39 110.5 38.95Q110.56 38.91 110.63 38.97Q110.71 39.02 110.78 39.14L111.16 39.73Q111.36 40.05 111.59 40.39Q111.81 40.73 112.01 41.03Q112.22 41.32 112.32 41.49Q112.38 41.59 112.39 41.68Q112.39 41.77 112.34 41.8Q112.26 41.85 112.16 41.79Q112.05 41.74 111.93 41.61Q111.59 41.23 111.19 40.94Q110.78 40.64 110.3 40.47Q109.8 40.3 109.33 40.18Q108.85 40.05 108.37 39.95Q107.88 39.84 107.3 39.72Q107.16 39.68 107.1 39.91L105.99 44.02Q105.9 44.35 105.86 44.56Q105.81 44.78 105.84 45.01Q105.86 45.24 105.97 45.55Q106.03 45.73 106.05 45.84Q106.07 45.95 105.99 46.01Q105.93 46.04 105.83 45.97Q105.74 45.91 105.65 45.75Q105.46 45.46 105.32 45.2Q105.18 44.95 105.05 44.71Q104.92 44.46 104.73 44.16Q104.58 43.92 104.44 43.73Q104.3 43.55 104.09 43.2Q104.02 43.09 104 43Q103.98 42.9 104.05 42.86Q104.17 42.78 104.39 43Q104.67 43.28 104.83 43.17Q104.89 43.14 104.93 43.05Q104.97 42.96 105.01 42.85L105.99 39.47Q106.01 39.37 106.02 39.27Q106.03 39.17 106.01 39.13Q105.98 39.09 105.91 39.12Q105.84 39.16 105.77 39.19Q105.3 39.49 104.87 39.78Q104.44 40.06 103.89 40.44Q103.68 40.58 103.55 40.73Q103.42 40.89 103.4 41.08Q103.37 41.28 103.47 41.58Q103.54 41.75 103.55 41.85Q103.56 41.96 103.48 42.01Q103.42 42.05 103.33 41.99Q103.24 41.92 103.16 41.8Q102.98 41.52 102.89 41.33Q102.8 41.14 102.73 40.98Q102.65 40.82 102.53 40.62Q102.39 40.39 102.25 40.21Q102.11 40.04 101.96 39.84Q101.81 39.65 101.62 39.35Z" fill="#EAE3D2"/><path d="M24.86 98.82Q24.77 98.72 24.74 98.63Q24.71 98.54 24.77 98.49Q24.83 98.43 24.93 98.46Q25.03 98.48 25.18 98.56Q25.44 98.72 25.73 98.78Q26.03 98.84 26.4 98.71Q27.09 98.47 27.72 98.25Q28.34 98.02 28.93 97.79Q29.52 97.56 30.15 97.31Q30.78 97.06 31.48 96.77Q31.74 96.67 31.89 96.59Q32.05 96.5 32.15 96.42Q32.27 96.51 32.38 96.57Q32.49 96.63 32.65 96.69Q32.78 96.74 32.93 96.71Q33.07 96.67 33.14 96.67Q33.16 96.68 33.18 96.69Q33.21 96.71 33.19 96.76Q33.17 96.82 33.13 96.87Q33.09 96.93 33.05 97Q32.63 97.73 32.2 98.49Q31.77 99.25 31.36 99.98Q30.96 100.71 30.62 101.33Q30.27 101.96 30.01 102.42Q29.83 102.76 29.8 103.01Q29.76 103.26 29.82 103.46Q29.88 103.66 30 103.86Q30.08 104 30.09 104.11Q30.1 104.21 30.03 104.27Q29.98 104.32 29.91 104.27Q29.83 104.23 29.75 104.14Q29.63 104.01 29.45 103.79Q29.27 103.57 29.07 103.33Q28.87 103.1 28.7 102.91Q28.56 102.76 28.39 102.57Q28.22 102.38 28.05 102.23Q27.89 102.07 27.78 101.95Q27.69 101.85 27.67 101.76Q27.64 101.67 27.69 101.63Q27.75 101.57 27.86 101.61Q27.97 101.64 28.07 101.72Q28.37 101.96 28.59 101.99Q28.8 102.03 28.94 101.86Q29.07 101.72 29.23 101.48Q29.39 101.25 29.57 100.97Q29.74 100.69 29.88 100.46Q29.93 100.38 29.91 100.33Q29.89 100.27 29.8 100.17L28.42 98.67Q28.39 98.63 28.33 98.63Q28.27 98.62 28.16 98.66Q28.04 98.73 27.84 98.81Q27.64 98.9 27.43 99Q27.22 99.1 27.05 99.2Q26.87 99.29 26.8 99.34Q26.57 99.5 26.57 99.74Q26.57 99.97 26.73 100.28Q26.89 100.58 26.8 100.67Q26.74 100.72 26.66 100.68Q26.59 100.64 26.5 100.54Q26.36 100.39 26.18 100.18Q26 99.97 25.79 99.74Q25.56 99.48 25.31 99.26Q25.06 99.04 24.86 98.82ZM28.97 98.6 30.05 99.78Q30.15 99.89 30.19 99.86Q30.22 99.83 30.23 99.81Q30.24 99.8 30.27 99.76L31.64 97.4Q31.73 97.24 31.71 97.21Q31.7 97.2 31.54 97.27L28.96 98.33Q28.9 98.36 28.88 98.37Q28.84 98.41 28.87 98.47Q28.9 98.52 28.97 98.6Z" fill="#EAE3D2"/><path d="M32.53 106.69Q32.42 106.61 32.36 106.54Q32.31 106.47 32.36 106.41Q32.4 106.34 32.5 106.36Q32.6 106.39 32.76 106.44Q33.01 106.54 33.28 106.47Q33.55 106.4 33.81 106.12Q34.36 105.51 34.91 104.86Q35.46 104.22 35.95 103.63Q36.44 103.04 36.8 102.56Q36.84 102.5 36.9 102.41Q36.95 102.33 36.99 102.25Q37.06 102.15 37.09 102.05Q37.12 101.94 37.06 101.81Q37 101.59 36.89 101.44Q36.78 101.29 36.62 101.13Q36.53 101.04 36.51 100.95Q36.48 100.86 36.53 100.8Q36.58 100.72 36.68 100.75Q36.77 100.79 36.9 100.88Q37.01 100.95 37.19 101.1Q37.37 101.24 37.59 101.4Q37.81 101.57 38.01 101.72Q38.2 101.87 38.34 101.97Q38.4 102.01 38.43 102.09Q38.46 102.17 38.42 102.25Q38.36 102.45 38.29 102.65Q38.22 102.86 38.16 103.08L37.16 107.51Q37.15 107.59 37.21 107.64Q37.26 107.69 37.32 107.65L41.32 105.29Q41.52 105.12 41.7 104.96Q41.87 104.79 42 104.68Q42.11 104.58 42.19 104.63L42.54 104.87Q42.84 105.08 43.22 105.28Q43.59 105.48 43.77 105.6Q43.83 105.65 43.89 105.72Q43.95 105.79 43.9 105.85Q43.85 105.93 43.77 105.93Q43.7 105.92 43.55 105.89Q43.42 105.86 43.27 105.82Q43.12 105.78 42.99 105.76Q42.8 105.72 42.65 105.77Q42.5 105.82 42.39 106Q41.95 106.64 41.61 107.19Q41.27 107.74 40.96 108.23Q40.65 108.73 40.36 109.24Q40.06 109.74 39.72 110.3Q39.55 110.58 39.62 110.85Q39.69 111.11 39.97 111.4Q40.07 111.51 40.12 111.59Q40.16 111.68 40.11 111.75Q40.07 111.8 39.99 111.79Q39.91 111.77 39.8 111.7Q39.57 111.54 39.39 111.39Q39.21 111.25 39.03 111.11Q38.85 110.98 38.65 110.84Q38.47 110.71 38.31 110.62Q38.15 110.52 37.97 110.41Q37.79 110.31 37.55 110.15Q37.45 110.08 37.4 110.01Q37.35 109.94 37.39 109.88Q37.44 109.81 37.53 109.81Q37.63 109.82 37.77 109.89Q38.09 110.04 38.3 109.97Q38.51 109.91 38.71 109.61Q39.13 108.98 39.49 108.43Q39.84 107.89 40.17 107.35Q40.51 106.81 40.88 106.21Q40.93 106.13 40.89 106.11Q40.85 106.08 40.74 106.14L35.89 108.99Q35.82 109.04 35.75 108.99Q35.68 108.93 35.7 108.86Q36.04 107.53 36.32 106.21Q36.6 104.88 36.9 103.43Q36.91 103.36 36.86 103.34Q36.8 103.31 36.75 103.37Q36.29 103.89 35.87 104.39Q35.45 104.89 35.07 105.4Q34.69 105.91 34.3 106.48Q34.12 106.73 34.15 107.02Q34.18 107.32 34.44 107.59Q34.56 107.71 34.61 107.8Q34.66 107.89 34.61 107.96Q34.57 108.01 34.48 107.99Q34.39 107.97 34.28 107.89Q34.04 107.73 33.92 107.62Q33.8 107.52 33.71 107.45Q33.61 107.38 33.43 107.25Q33.26 107.13 33.12 107.05Q32.98 106.97 32.84 106.89Q32.71 106.81 32.53 106.69Z" fill="#EAE3D2"/><path d="M45.16 114.31Q44.74 114.13 44.41 113.86Q44.09 113.58 43.87 113.22Q43.85 113.16 43.83 113.08Q43.81 113.01 43.81 112.94Q43.84 112.68 43.96 112.32Q44.09 111.96 44.19 111.68Q44.22 111.61 44.3 111.6Q44.37 111.59 44.45 111.62Q44.52 111.65 44.56 111.7Q44.59 111.74 44.58 111.82Q44.47 112.68 44.72 113.24Q44.98 113.79 45.47 114Q45.81 114.15 46.12 114.1Q46.43 114.05 46.69 113.85Q46.94 113.66 47.07 113.33Q47.24 112.95 47.21 112.65Q47.18 112.35 47.01 112.05Q46.84 111.75 46.56 111.37Q46.26 110.95 45.98 110.53Q45.7 110.1 45.6 109.63Q45.49 109.17 45.71 108.66Q45.94 108.11 46.38 107.8Q46.82 107.49 47.42 107.45Q48.02 107.41 48.72 107.71Q49.08 107.86 49.35 108.07Q49.62 108.27 49.76 108.43Q49.84 108.5 49.87 108.59Q49.89 108.69 49.88 108.8Q49.84 109.03 49.78 109.34Q49.72 109.65 49.6 109.95Q49.55 110.06 49.39 109.99Q49.3 109.95 49.23 109.88Q49.17 109.8 49.18 109.73Q49.21 109.08 49.04 108.66Q48.87 108.24 48.41 108.04Q48.11 107.92 47.81 107.92Q47.52 107.92 47.27 108.09Q47.02 108.27 46.86 108.65Q46.74 108.93 46.83 109.24Q46.92 109.56 47.14 109.92Q47.37 110.27 47.67 110.67Q47.97 111.1 48.19 111.51Q48.41 111.93 48.46 112.36Q48.5 112.79 48.29 113.28Q48.02 113.91 47.55 114.24Q47.07 114.57 46.46 114.59Q45.85 114.61 45.16 114.31Z" fill="#EAE3D2"/><path d="M53.01 116.88Q52.89 116.86 52.82 116.81Q52.74 116.76 52.75 116.69Q52.77 116.61 52.87 116.58Q52.96 116.55 53.12 116.56Q53.55 116.57 53.79 116.45Q54.03 116.32 54.12 115.95L55.08 111.7Q55.19 111.23 55.22 110.98Q55.25 110.73 55.23 110.63Q55.21 110.53 55.14 110.49Q55.02 110.43 54.86 110.39Q54.7 110.35 54.48 110.3L54.06 110.21Q53.79 110.14 53.48 110.2Q53.18 110.27 52.99 110.46Q52.93 110.51 52.83 110.61Q52.72 110.7 52.61 110.76Q52.49 110.82 52.4 110.8Q52.34 110.79 52.33 110.74Q52.31 110.69 52.32 110.62Q52.35 110.51 52.44 110.4Q52.69 110.1 52.82 109.86Q52.96 109.62 53.08 109.27Q53.14 109.11 53.21 109.08Q53.29 109.05 53.35 109.06Q53.41 109.08 53.47 109.23Q53.53 109.39 53.56 109.48Q53.63 109.6 53.85 109.71Q54.07 109.81 54.28 109.86L58.15 110.73Q58.49 110.8 58.72 110.81Q58.95 110.82 59.1 110.78Q59.27 110.74 59.37 110.67Q59.48 110.6 59.62 110.63Q59.66 110.64 59.67 110.72Q59.67 110.79 59.65 110.88Q59.64 110.92 59.61 111Q59.58 111.09 59.56 111.14Q59.47 111.33 59.41 111.44Q59.34 111.55 59.3 111.65Q59.26 111.75 59.23 111.91L59.19 112.06Q59.16 112.19 59.1 112.29Q59.03 112.4 58.94 112.38Q58.85 112.36 58.83 112.24Q58.8 112.11 58.79 111.89Q58.79 111.59 58.61 111.39Q58.42 111.19 57.92 111.08L57.01 110.87Q56.8 110.83 56.67 110.87Q56.53 110.91 56.44 111.16Q56.34 111.4 56.22 111.96L55.25 116.21Q55.17 116.57 55.34 116.79Q55.51 117.01 55.9 117.19Q56.04 117.25 56.11 117.31Q56.18 117.38 56.16 117.46Q56.15 117.53 56.07 117.54Q55.98 117.56 55.86 117.53Q55.59 117.47 55.37 117.4Q55.14 117.33 54.93 117.27Q54.72 117.21 54.48 117.16Q54.23 117.1 54 117.06Q53.77 117.02 53.53 116.98Q53.29 116.95 53.01 116.88Z" fill="#EAE3D2"/><path d="M61.67 118.39Q61.53 118.38 61.46 118.35Q61.38 118.31 61.38 118.24Q61.39 118.1 61.71 118.05Q62.12 117.97 62.31 117.82Q62.49 117.67 62.51 117.28L62.68 112.31Q62.7 111.94 62.55 111.77Q62.4 111.6 62 111.51Q61.83 111.47 61.76 111.41Q61.68 111.35 61.68 111.28Q61.69 111.21 61.76 111.17Q61.84 111.14 61.97 111.14Q62.34 111.16 62.63 111.18Q62.92 111.2 63.2 111.22Q63.48 111.24 63.81 111.25Q64.25 111.27 64.74 111.28Q65.23 111.29 65.62 111.29Q66 111.31 66.25 111.3Q66.49 111.29 66.54 111.29Q66.6 111.29 66.67 111.32Q66.74 111.35 66.75 111.43Q66.8 111.77 66.84 112.1Q66.89 112.43 66.89 112.67Q66.88 112.78 66.83 112.82Q66.78 112.85 66.72 112.85Q66.67 112.85 66.64 112.81Q66.61 112.78 66.58 112.71Q66.51 112.49 66.45 112.31Q66.39 112.12 66.3 112.03Q66.16 111.87 65.98 111.79Q65.8 111.71 65.57 111.7L64.33 111.65Q64.19 111.65 64.03 111.75Q63.87 111.85 63.86 112.03L63.78 114.28Q63.78 114.39 63.84 114.46Q63.9 114.52 63.99 114.53L65.04 114.56Q65.35 114.57 65.48 114.44Q65.61 114.3 65.69 114Q65.78 113.79 65.91 113.79Q65.97 113.79 66.01 113.84Q66.05 113.89 66.05 113.99Q66.04 114.06 66.03 114.21Q66.01 114.37 65.99 114.53Q65.98 114.7 65.97 114.79Q65.97 114.91 65.97 115.09Q65.97 115.26 65.97 115.42Q65.98 115.59 65.98 115.66Q65.98 115.76 65.95 115.82Q65.93 115.88 65.87 115.88Q65.69 115.87 65.62 115.55Q65.56 115.26 65.45 115.12Q65.34 114.97 65.12 114.96L64.1 114.93Q63.92 114.92 63.84 114.97Q63.75 115.02 63.75 115.2L63.67 117.3Q63.66 117.68 63.82 117.84Q63.98 117.99 64.32 118.01L65.19 118.04Q65.5 118.05 65.73 118.01Q65.96 117.97 66.13 117.86Q66.32 117.73 66.47 117.53Q66.62 117.33 66.79 117.02Q66.83 116.96 66.88 116.92Q66.92 116.89 66.98 116.9Q67.05 116.9 67.07 116.95Q67.1 117 67.09 117.08Q67.09 117.2 67.03 117.44Q66.96 117.68 66.87 117.94Q66.78 118.2 66.71 118.39Q66.67 118.46 66.63 118.51Q66.58 118.56 66.51 118.56Q66.12 118.54 65.69 118.52Q65.26 118.49 64.81 118.46Q64.36 118.44 63.91 118.41Q63.46 118.38 63.02 118.37Q62.79 118.36 62.58 118.37Q62.37 118.38 62.16 118.39Q61.94 118.39 61.67 118.39Z" fill="#EAE3D2"/><path d="M77.29 117.55Q76.9 117.61 76.58 117.58Q76.25 117.54 75.98 117.42Q75.71 117.3 75.48 117.09Q75.18 116.8 74.9 116.54Q74.61 116.27 74.3 115.92Q73.99 115.58 73.57 115.08Q73.38 114.83 73.1 114.74Q72.9 114.67 72.7 114.66Q72.51 114.66 72.39 114.66Q72.31 114.68 72.28 114.74Q72.25 114.81 72.27 114.91L72.58 116.87Q72.64 117.22 72.85 117.41Q73.06 117.61 73.49 117.62Q73.65 117.63 73.74 117.66Q73.83 117.69 73.84 117.77Q73.85 117.84 73.78 117.88Q73.71 117.93 73.58 117.95Q73.31 117.99 73.09 118.01Q72.88 118.03 72.69 118.04Q72.49 118.06 72.29 118.09Q72.03 118.13 71.8 118.18Q71.56 118.24 71.33 118.29Q71.1 118.34 70.82 118.39Q70.7 118.41 70.61 118.39Q70.53 118.38 70.52 118.3Q70.49 118.16 70.8 118.05Q71.2 117.91 71.35 117.71Q71.51 117.52 71.45 117.14L70.69 112.43Q70.63 112.06 70.56 111.88Q70.49 111.69 70.34 111.63Q70.19 111.57 69.89 111.58Q69.71 111.58 69.63 111.53Q69.54 111.49 69.53 111.41Q69.52 111.35 69.59 111.29Q69.67 111.24 69.79 111.22Q70.1 111.17 70.28 111.16Q70.45 111.14 70.61 111.12Q70.77 111.1 71.01 111.06Q71.23 111.03 71.4 110.98Q71.57 110.94 71.78 110.89Q72 110.84 72.34 110.78Q73.55 110.59 74.27 110.93Q74.98 111.26 75.13 112.15Q75.21 112.64 75.06 113.02Q74.91 113.4 74.65 113.68Q74.38 113.96 74.1 114.13Q74.05 114.15 74.07 114.19Q74.08 114.23 74.11 114.28Q74.52 114.72 74.91 115.12Q75.29 115.53 75.71 115.89Q76.13 116.25 76.65 116.6Q77 116.83 77.34 116.84Q77.68 116.84 78.06 116.78Q78.22 116.75 78.25 116.9Q78.28 117.09 78.12 117.22Q77.97 117.35 77.74 117.43Q77.51 117.51 77.29 117.55ZM72.71 114.32Q73.18 114.25 73.48 113.98Q73.77 113.72 73.9 113.34Q74.02 112.96 73.95 112.54Q73.88 112.08 73.7 111.74Q73.52 111.4 73.18 111.25Q72.83 111.1 72.24 111.19Q71.94 111.24 71.86 111.47Q71.79 111.7 71.87 112.28Q71.9 112.55 71.97 112.98Q72.03 113.42 72.13 114.01Q72.17 114.28 72.32 114.32Q72.47 114.36 72.71 114.32Z" fill="#EAE3D2"/><path d="M85.03 114.96Q84.83 115.04 84.45 115.16Q84.07 115.29 83.64 115.43Q83.22 115.58 82.89 115.71Q82.68 115.79 82.51 115.87Q82.33 115.95 82.14 116.04Q81.95 116.12 81.69 116.22Q81.58 116.27 81.49 116.27Q81.4 116.26 81.38 116.19Q81.34 116.11 81.4 116.05Q81.46 115.98 81.6 115.89Q81.96 115.67 82.05 115.46Q82.14 115.25 82.01 114.9L80.2 110.26Q80.06 109.92 79.86 109.83Q79.65 109.73 79.23 109.8Q79.06 109.83 78.98 109.82Q78.89 109.81 78.86 109.73Q78.83 109.65 78.89 109.59Q78.95 109.52 79.07 109.48Q79.32 109.38 79.52 109.31Q79.72 109.25 79.91 109.18Q80.09 109.11 80.33 109.02Q80.49 108.96 80.75 108.85Q81 108.74 81.28 108.61Q81.56 108.47 81.8 108.37Q82.04 108.26 82.17 108.21Q83.12 107.84 83.92 107.81Q84.73 107.78 85.38 108.04Q86.02 108.3 86.5 108.8Q86.97 109.3 87.24 110Q87.52 110.72 87.51 111.46Q87.5 112.2 87.2 112.89Q86.91 113.58 86.36 114.11Q85.82 114.65 85.03 114.96ZM84.73 114.59Q85.49 114.3 85.91 113.71Q86.33 113.12 86.38 112.34Q86.43 111.56 86.09 110.7Q85.81 109.97 85.37 109.48Q84.94 109 84.42 108.74Q83.9 108.48 83.34 108.46Q82.78 108.43 82.26 108.64Q81.86 108.79 81.59 108.93Q81.31 109.06 81.21 109.23Q81.11 109.4 81.22 109.67L82.98 114.2Q83.14 114.59 83.4 114.71Q83.67 114.84 84.02 114.79Q84.36 114.73 84.73 114.59Z" fill="#EAE3D2"/><path d="M91.86 111.84Q91.75 111.91 91.65 111.93Q91.56 111.94 91.52 111.88Q91.47 111.8 91.51 111.71Q91.55 111.62 91.65 111.48Q91.85 111.25 91.96 110.97Q92.06 110.69 91.99 110.3Q91.87 109.58 91.75 108.93Q91.62 108.28 91.49 107.65Q91.36 107.03 91.21 106.37Q91.07 105.71 90.88 104.97Q90.83 104.71 90.77 104.54Q90.71 104.37 90.65 104.26Q90.75 104.15 90.83 104.05Q90.91 103.95 90.99 103.81Q91.06 103.68 91.05 103.54Q91.04 103.39 91.05 103.32Q91.06 103.3 91.08 103.28Q91.1 103.26 91.14 103.29Q91.2 103.31 91.25 103.36Q91.3 103.41 91.36 103.46Q92.02 103.99 92.7 104.54Q93.38 105.08 94.03 105.6Q94.69 106.12 95.26 106.55Q95.82 106.99 96.24 107.32Q96.54 107.56 96.78 107.63Q97.02 107.7 97.23 107.68Q97.44 107.65 97.65 107.57Q97.8 107.5 97.91 107.51Q98.01 107.52 98.06 107.6Q98.1 107.65 98.04 107.72Q97.99 107.79 97.89 107.86Q97.74 107.95 97.49 108.1Q97.25 108.24 96.98 108.4Q96.72 108.56 96.51 108.7Q96.33 108.81 96.12 108.95Q95.91 109.09 95.73 109.22Q95.55 109.36 95.41 109.45Q95.3 109.52 95.21 109.53Q95.12 109.55 95.08 109.49Q95.03 109.42 95.09 109.32Q95.14 109.22 95.24 109.13Q95.51 108.87 95.58 108.66Q95.65 108.46 95.5 108.29Q95.39 108.14 95.18 107.94Q94.97 107.75 94.73 107.53Q94.48 107.32 94.27 107.14Q94.21 107.08 94.15 107.09Q94.09 107.1 93.98 107.18L92.28 108.29Q92.23 108.32 92.22 108.38Q92.2 108.44 92.23 108.55Q92.27 108.68 92.32 108.89Q92.37 109.1 92.44 109.33Q92.51 109.55 92.58 109.74Q92.64 109.93 92.68 110.01Q92.8 110.25 93.03 110.29Q93.26 110.33 93.6 110.22Q93.92 110.11 93.99 110.22Q94.04 110.29 93.98 110.35Q93.93 110.42 93.82 110.49Q93.64 110.61 93.41 110.75Q93.17 110.89 92.91 111.06Q92.62 111.26 92.36 111.46Q92.11 111.67 91.86 111.84ZM92.29 107.75 93.63 106.87Q93.76 106.78 93.73 106.74Q93.71 106.71 93.69 106.69Q93.68 106.68 93.64 106.65L91.53 104.92Q91.39 104.8 91.36 104.82Q91.34 104.83 91.39 105L92.03 107.71Q92.04 107.78 92.06 107.8Q92.09 107.84 92.15 107.82Q92.21 107.8 92.29 107.75Z" fill="#EAE3D2"/><path d="M100.85 105.51Q100.75 105.62 100.67 105.66Q100.6 105.7 100.54 105.64Q100.48 105.59 100.52 105.5Q100.56 105.4 100.64 105.25Q100.77 105.02 100.75 104.74Q100.72 104.46 100.49 104.17Q99.97 103.52 99.42 102.87Q98.88 102.23 98.37 101.65Q97.86 101.07 97.45 100.65Q97.39 100.59 97.32 100.53Q97.25 100.46 97.18 100.4Q97.09 100.32 96.99 100.28Q96.89 100.23 96.75 100.27Q96.52 100.3 96.36 100.38Q96.19 100.47 96.01 100.59Q95.91 100.67 95.82 100.68Q95.72 100.69 95.67 100.63Q95.59 100.56 95.65 100.48Q95.7 100.39 95.81 100.28Q95.9 100.18 96.07 100.03Q96.23 99.87 96.43 99.68Q96.64 99.49 96.82 99.32Q96.99 99.15 97.11 99.03Q97.16 98.97 97.24 98.96Q97.32 98.95 97.4 98.99Q97.58 99.09 97.78 99.19Q97.97 99.29 98.18 99.39L102.4 101.07Q102.47 101.1 102.53 101.05Q102.58 101.01 102.56 100.94L100.87 96.61Q100.73 96.39 100.59 96.19Q100.46 95.99 100.37 95.84Q100.29 95.72 100.36 95.65L100.64 95.35Q100.9 95.08 101.16 94.74Q101.41 94.41 101.56 94.25Q101.61 94.19 101.7 94.15Q101.78 94.1 101.83 94.15Q101.9 94.22 101.88 94.29Q101.87 94.37 101.81 94.51Q101.76 94.63 101.7 94.77Q101.64 94.91 101.59 95.04Q101.53 95.22 101.55 95.38Q101.57 95.54 101.73 95.67Q102.3 96.21 102.79 96.63Q103.27 97.06 103.71 97.44Q104.15 97.82 104.61 98.19Q105.06 98.56 105.56 99Q105.8 99.2 106.08 99.18Q106.35 99.15 106.68 98.92Q106.81 98.84 106.9 98.81Q106.98 98.78 107.05 98.84Q107.1 98.88 107.07 98.96Q107.04 99.04 106.95 99.14Q106.76 99.34 106.58 99.49Q106.41 99.65 106.25 99.8Q106.08 99.96 105.92 100.13Q105.77 100.29 105.64 100.43Q105.52 100.58 105.39 100.74Q105.26 100.9 105.06 101.11Q104.98 101.2 104.9 101.24Q104.82 101.28 104.77 101.22Q104.71 101.17 104.73 101.07Q104.75 100.98 104.84 100.85Q105.04 100.56 105.01 100.34Q104.98 100.13 104.71 99.88Q104.16 99.36 103.68 98.93Q103.2 98.49 102.72 98.08Q102.24 97.66 101.7 97.2Q101.63 97.13 101.6 97.17Q101.57 97.21 101.61 97.32L103.65 102.56Q103.69 102.65 103.63 102.71Q103.56 102.77 103.49 102.73Q102.24 102.18 100.97 101.7Q99.71 101.21 98.33 100.68Q98.26 100.66 98.22 100.71Q98.19 100.76 98.24 100.82Q98.69 101.36 99.11 101.85Q99.54 102.34 99.98 102.8Q100.42 103.27 100.92 103.74Q101.14 103.95 101.44 103.97Q101.73 103.98 102.04 103.77Q102.18 103.68 102.27 103.64Q102.37 103.6 102.43 103.66Q102.48 103.71 102.44 103.8Q102.41 103.88 102.32 103.98Q102.11 104.19 101.99 104.29Q101.87 104.39 101.79 104.48Q101.7 104.56 101.55 104.72Q101.4 104.87 101.3 104.99Q101.2 105.12 101.09 105.24Q100.99 105.36 100.85 105.51Z" fill="#EAE3D2"/><path d="M37.75 82.19Q37.71 82.13 37.7 82.08Q37.69 82.03 37.72 82.01Q37.79 81.97 37.93 82.1Q38.1 82.28 38.23 82.32Q38.37 82.36 38.55 82.24L41 80.69Q41.18 80.57 41.21 80.44Q41.25 80.32 41.16 80.09Q41.12 80 41.13 79.95Q41.13 79.89 41.17 79.87Q41.2 79.85 41.24 79.87Q41.29 79.9 41.33 79.96Q41.44 80.14 41.53 80.29Q41.61 80.43 41.69 80.58Q41.77 80.72 41.88 80.88Q42.01 81.1 42.17 81.33Q42.33 81.57 42.45 81.76Q42.57 81.95 42.66 82.06Q42.74 82.18 42.75 82.2Q42.78 82.23 42.78 82.28Q42.79 82.32 42.76 82.35Q42.61 82.48 42.47 82.62Q42.33 82.75 42.21 82.82Q42.15 82.86 42.12 82.84Q42.08 82.83 42.07 82.8Q42.05 82.78 42.06 82.75Q42.06 82.72 42.08 82.69Q42.17 82.58 42.24 82.49Q42.31 82.4 42.32 82.33Q42.35 82.21 42.33 82.1Q42.31 81.98 42.24 81.87L41.86 81.26Q41.81 81.19 41.71 81.15Q41.61 81.1 41.52 81.16L40.42 81.86Q40.36 81.89 40.35 81.95Q40.34 82 40.36 82.04L40.69 82.56Q40.79 82.71 40.9 82.73Q41.01 82.74 41.18 82.69Q41.31 82.66 41.35 82.72Q41.37 82.75 41.36 82.79Q41.34 82.82 41.3 82.85Q41.26 82.87 41.18 82.92Q41.11 82.96 41.02 83.01Q40.94 83.05 40.89 83.08Q40.83 83.12 40.75 83.18Q40.66 83.23 40.59 83.29Q40.51 83.35 40.47 83.37Q40.43 83.41 40.39 83.41Q40.35 83.42 40.33 83.39Q40.28 83.3 40.41 83.16Q40.53 83.04 40.56 82.94Q40.6 82.84 40.53 82.73L40.21 82.23Q40.15 82.14 40.1 82.12Q40.05 82.09 39.96 82.15L38.93 82.8Q38.74 82.92 38.72 83.05Q38.7 83.18 38.8 83.34L39.07 83.77Q39.17 83.92 39.26 84.02Q39.36 84.12 39.47 84.17Q39.59 84.22 39.74 84.22Q39.89 84.23 40.08 84.21Q40.13 84.21 40.16 84.22Q40.2 84.23 40.21 84.26Q40.23 84.29 40.21 84.32Q40.2 84.35 40.16 84.37Q40.1 84.41 39.96 84.46Q39.83 84.51 39.67 84.55Q39.52 84.59 39.4 84.61Q39.36 84.62 39.32 84.62Q39.28 84.61 39.26 84.58Q39.14 84.38 39.01 84.17Q38.88 83.95 38.74 83.73Q38.61 83.5 38.47 83.28Q38.34 83.05 38.2 82.84Q38.13 82.72 38.06 82.63Q37.98 82.53 37.91 82.43Q37.83 82.33 37.75 82.19Z" fill="#EAE3D2"/><path d="M41.84 87.88Q41.66 87.69 41.55 87.46Q41.45 87.24 41.42 86.99Q41.43 86.96 41.43 86.91Q41.44 86.87 41.46 86.83Q41.54 86.7 41.69 86.54Q41.84 86.38 41.96 86.25Q42 86.22 42.04 86.24Q42.08 86.25 42.12 86.29Q42.15 86.32 42.15 86.35Q42.16 86.39 42.14 86.43Q41.87 86.85 41.87 87.21Q41.87 87.56 42.08 87.79Q42.22 87.95 42.4 88Q42.58 88.05 42.76 88.01Q42.94 87.96 43.09 87.83Q43.27 87.66 43.33 87.5Q43.38 87.33 43.37 87.13Q43.35 86.93 43.29 86.66Q43.23 86.37 43.19 86.07Q43.14 85.78 43.2 85.51Q43.26 85.24 43.5 85.02Q43.75 84.79 44.06 84.73Q44.37 84.67 44.69 84.8Q45.02 84.92 45.32 85.25Q45.47 85.42 45.57 85.59Q45.66 85.76 45.7 85.88Q45.72 85.93 45.71 85.99Q45.7 86.05 45.67 86.1Q45.59 86.22 45.49 86.37Q45.38 86.52 45.24 86.64Q45.19 86.69 45.12 86.61Q45.08 86.57 45.07 86.52Q45.05 86.46 45.07 86.43Q45.25 86.09 45.26 85.83Q45.27 85.56 45.07 85.35Q44.94 85.21 44.79 85.14Q44.63 85.07 44.46 85.1Q44.29 85.13 44.11 85.3Q43.98 85.41 43.95 85.6Q43.92 85.79 43.95 86.03Q43.99 86.28 44.05 86.56Q44.11 86.86 44.12 87.13Q44.14 87.4 44.06 87.64Q43.98 87.88 43.75 88.09Q43.45 88.36 43.12 88.42Q42.79 88.48 42.46 88.34Q42.14 88.21 41.84 87.88Z" fill="#EAE3D2"/><path d="M45.87 91.56Q45.82 91.52 45.79 91.48Q45.75 91.43 45.78 91.4Q45.81 91.36 45.87 91.37Q45.92 91.38 46.01 91.42Q46.23 91.53 46.39 91.52Q46.55 91.51 46.68 91.33L48.2 89.3Q48.37 89.07 48.44 88.95Q48.52 88.83 48.53 88.77Q48.54 88.71 48.51 88.67Q48.46 88.61 48.39 88.55Q48.31 88.49 48.21 88.41L48.01 88.26Q47.88 88.16 47.7 88.13Q47.53 88.09 47.38 88.14Q47.34 88.16 47.26 88.19Q47.18 88.21 47.11 88.21Q47.03 88.22 46.98 88.18Q46.96 88.16 46.96 88.13Q46.96 88.1 46.99 88.07Q47.03 88.02 47.1 87.98Q47.31 87.88 47.43 87.79Q47.56 87.69 47.71 87.53Q47.78 87.46 47.83 87.46Q47.87 87.47 47.9 87.49Q47.93 87.51 47.93 87.6Q47.92 87.7 47.92 87.76Q47.92 87.84 48.02 87.95Q48.11 88.06 48.21 88.13L50.06 89.51Q50.22 89.63 50.34 89.68Q50.46 89.74 50.55 89.76Q50.65 89.78 50.72 89.77Q50.8 89.75 50.86 89.8Q50.88 89.82 50.87 89.86Q50.85 89.9 50.82 89.94Q50.81 89.96 50.77 90Q50.74 90.04 50.71 90.06Q50.62 90.14 50.56 90.18Q50.5 90.23 50.46 90.27Q50.41 90.31 50.35 90.39L50.3 90.46Q50.25 90.52 50.19 90.56Q50.13 90.61 50.09 90.57Q50.05 90.54 50.06 90.47Q50.08 90.4 50.13 90.28Q50.2 90.12 50.14 89.97Q50.09 89.82 49.85 89.64L49.42 89.32Q49.32 89.24 49.24 89.23Q49.16 89.22 49.05 89.33Q48.94 89.44 48.74 89.7L47.22 91.73Q47.09 91.91 47.13 92.07Q47.17 92.22 47.34 92.41Q47.4 92.48 47.42 92.53Q47.44 92.58 47.41 92.62Q47.39 92.65 47.34 92.64Q47.29 92.62 47.23 92.58Q47.1 92.48 47 92.4Q46.9 92.31 46.8 92.23Q46.7 92.14 46.59 92.06Q46.47 91.97 46.36 91.89Q46.24 91.82 46.13 91.74Q46.01 91.66 45.87 91.56Z" fill="#EAE3D2"/><path d="M54.77 95.52Q54.61 95.46 54.54 95.3Q54.47 95.15 54.53 94.99Q54.6 94.82 54.75 94.76Q54.91 94.69 55.06 94.75Q55.22 94.81 55.29 94.96Q55.36 95.12 55.3 95.28Q55.24 95.44 55.08 95.51Q54.93 95.58 54.77 95.52Z" fill="#EAE3D2"/><path d="M61.35 98.3Q61.27 98.29 61.22 98.27Q61.18 98.25 61.18 98.21Q61.18 98.16 61.24 98.15Q61.29 98.13 61.39 98.11Q61.55 98.08 61.66 97.96Q61.77 97.85 61.82 97.63Q61.91 97.16 61.99 96.67Q62.08 96.19 62.14 95.75Q62.21 95.3 62.24 94.96Q62.25 94.92 62.25 94.86Q62.25 94.8 62.25 94.75Q62.25 94.68 62.24 94.62Q62.22 94.56 62.15 94.51Q62.05 94.42 61.95 94.37Q61.85 94.33 61.73 94.3Q61.66 94.28 61.62 94.24Q61.58 94.21 61.58 94.16Q61.58 94.1 61.64 94.1Q61.7 94.09 61.79 94.09Q61.87 94.1 62 94.11Q62.14 94.13 62.29 94.15Q62.45 94.17 62.6 94.18Q62.74 94.2 62.84 94.2Q62.88 94.21 62.92 94.24Q62.95 94.27 62.96 94.32Q62.99 94.44 63.02 94.56Q63.04 94.68 63.08 94.81L63.91 97.32Q63.92 97.36 63.97 97.37Q64.01 97.38 64.03 97.34L65.32 94.97Q65.37 94.82 65.41 94.69Q65.44 94.55 65.47 94.46Q65.5 94.38 65.56 94.38L65.8 94.4Q66.02 94.41 66.26 94.4Q66.51 94.38 66.63 94.39Q66.68 94.39 66.73 94.41Q66.78 94.43 66.78 94.48Q66.77 94.53 66.73 94.55Q66.69 94.57 66.61 94.6Q66.53 94.62 66.45 94.65Q66.36 94.68 66.29 94.7Q66.19 94.74 66.13 94.81Q66.06 94.88 66.06 95Q66.03 95.46 66.03 95.83Q66.02 96.21 66.02 96.55Q66.01 96.89 66.02 97.23Q66.02 97.57 66.02 97.95Q66.02 98.14 66.13 98.25Q66.25 98.36 66.47 98.42Q66.56 98.45 66.6 98.47Q66.65 98.5 66.65 98.55Q66.64 98.59 66.6 98.61Q66.55 98.63 66.47 98.62Q66.32 98.61 66.18 98.59Q66.05 98.57 65.92 98.56Q65.79 98.54 65.65 98.54Q65.52 98.53 65.41 98.53Q65.3 98.53 65.18 98.53Q65.06 98.53 64.89 98.52Q64.82 98.52 64.77 98.5Q64.73 98.48 64.73 98.43Q64.73 98.39 64.78 98.36Q64.83 98.33 64.92 98.32Q65.13 98.3 65.21 98.21Q65.29 98.12 65.31 97.91Q65.33 97.46 65.34 97.09Q65.36 96.71 65.36 96.34Q65.37 95.97 65.37 95.56Q65.38 95.51 65.35 95.51Q65.32 95.51 65.28 95.56L63.72 98.44Q63.69 98.49 63.64 98.48Q63.59 98.48 63.58 98.43Q63.35 97.67 63.1 96.92Q62.84 96.18 62.56 95.37Q62.54 95.33 62.5 95.33Q62.47 95.33 62.46 95.38Q62.39 95.78 62.33 96.15Q62.27 96.53 62.23 96.9Q62.19 97.27 62.17 97.66Q62.16 97.84 62.26 97.98Q62.36 98.12 62.57 98.18Q62.67 98.2 62.72 98.23Q62.77 98.26 62.77 98.31Q62.77 98.35 62.71 98.36Q62.66 98.38 62.58 98.37Q62.41 98.36 62.32 98.35Q62.23 98.33 62.16 98.33Q62.09 98.32 61.97 98.31Q61.85 98.3 61.75 98.3Q61.66 98.3 61.57 98.3Q61.47 98.3 61.35 98.3Z" fill="#EAE3D2"/><path d="M69.57 98.43Q69.48 98.45 69.43 98.44Q69.38 98.44 69.38 98.39Q69.37 98.35 69.42 98.32Q69.47 98.28 69.56 98.24Q69.7 98.17 69.78 98.03Q69.86 97.9 69.85 97.68Q69.82 97.19 69.78 96.7Q69.74 96.21 69.69 95.77Q69.65 95.32 69.6 94.98Q69.59 94.94 69.58 94.88Q69.57 94.82 69.55 94.77Q69.54 94.71 69.5 94.65Q69.47 94.59 69.39 94.56Q69.28 94.5 69.17 94.49Q69.06 94.47 68.93 94.47Q68.86 94.47 68.81 94.44Q68.76 94.42 68.76 94.37Q68.74 94.32 68.8 94.29Q68.85 94.27 68.94 94.25Q69.02 94.24 69.15 94.22Q69.28 94.2 69.44 94.18Q69.6 94.16 69.74 94.14Q69.89 94.12 69.98 94.1Q70.02 94.09 70.07 94.11Q70.11 94.13 70.13 94.18Q70.19 94.29 70.24 94.4Q70.3 94.51 70.37 94.63L71.8 96.85Q71.82 96.89 71.87 96.89Q71.91 96.88 71.92 96.84L72.58 94.22Q72.59 94.07 72.59 93.93Q72.59 93.79 72.6 93.69Q72.6 93.6 72.66 93.59L72.9 93.55Q73.11 93.51 73.35 93.43Q73.58 93.36 73.7 93.33Q73.75 93.33 73.8 93.33Q73.86 93.34 73.86 93.38Q73.87 93.43 73.84 93.46Q73.81 93.5 73.73 93.54Q73.67 93.58 73.59 93.63Q73.52 93.68 73.45 93.72Q73.36 93.78 73.32 93.87Q73.28 93.95 73.3 94.07Q73.39 94.51 73.48 94.88Q73.57 95.24 73.65 95.57Q73.73 95.9 73.82 96.23Q73.91 96.56 74 96.93Q74.04 97.11 74.18 97.19Q74.32 97.27 74.55 97.28Q74.64 97.28 74.7 97.29Q74.75 97.31 74.76 97.36Q74.76 97.4 74.72 97.43Q74.68 97.45 74.61 97.47Q74.45 97.5 74.32 97.51Q74.18 97.53 74.05 97.55Q73.92 97.57 73.78 97.59Q73.66 97.62 73.55 97.64Q73.45 97.67 73.33 97.7Q73.21 97.74 73.05 97.77Q72.98 97.78 72.93 97.77Q72.88 97.77 72.87 97.72Q72.86 97.68 72.9 97.64Q72.94 97.6 73.03 97.57Q73.23 97.5 73.28 97.39Q73.34 97.27 73.3 97.07Q73.21 96.63 73.13 96.27Q73.05 95.9 72.96 95.54Q72.87 95.18 72.78 94.78Q72.77 94.73 72.74 94.73Q72.71 94.74 72.69 94.81L71.89 97.98Q71.88 98.04 71.83 98.04Q71.78 98.05 71.76 98.01Q71.35 97.32 70.91 96.67Q70.48 96.01 70 95.29Q69.98 95.26 69.94 95.27Q69.91 95.29 69.91 95.33Q69.94 95.74 69.98 96.11Q70.02 96.49 70.07 96.86Q70.12 97.23 70.2 97.62Q70.23 97.79 70.37 97.9Q70.5 98.01 70.72 98.01Q70.82 98.01 70.87 98.03Q70.93 98.04 70.94 98.09Q70.95 98.13 70.9 98.16Q70.86 98.19 70.78 98.2Q70.61 98.23 70.52 98.24Q70.43 98.25 70.36 98.26Q70.29 98.27 70.17 98.29Q70.05 98.32 69.96 98.34Q69.87 98.36 69.78 98.39Q69.69 98.41 69.57 98.43Z" fill="#EAE3D2"/><path d="M77.41 96.55Q77.34 96.58 77.28 96.59Q77.22 96.59 77.2 96.55Q77.18 96.5 77.22 96.45Q77.26 96.41 77.33 96.34Q77.42 96.26 77.53 96.13Q77.63 96 77.72 95.82Q77.81 95.64 77.87 95.43L78.18 94.19Q78.21 94.07 78.19 93.98Q78.17 93.89 78.03 93.81L76.73 93.05Q76.54 92.93 76.39 92.88Q76.25 92.82 76.13 92.82Q76.02 92.81 75.9 92.83Q75.81 92.84 75.75 92.83Q75.69 92.83 75.67 92.78Q75.65 92.74 75.69 92.71Q75.72 92.67 75.79 92.64Q75.97 92.56 76.23 92.46Q76.5 92.36 76.73 92.26Q76.91 92.18 77.08 92.09Q77.24 92 77.35 91.95Q77.42 91.92 77.48 91.91Q77.54 91.91 77.56 91.94Q77.58 91.99 77.54 92.04Q77.5 92.08 77.42 92.15Q77.29 92.26 77.23 92.33Q77.16 92.41 77.2 92.49Q77.24 92.58 77.5 92.72L78.37 93.23Q78.48 93.29 78.51 93.27Q78.55 93.25 78.57 93.16L78.79 92.13Q78.82 92.01 78.83 91.92Q78.83 91.82 78.8 91.76Q78.77 91.69 78.69 91.67Q78.61 91.65 78.46 91.69Q78.39 91.7 78.31 91.7Q78.23 91.7 78.21 91.65Q78.2 91.62 78.24 91.58Q78.28 91.54 78.36 91.5Q78.44 91.46 78.52 91.43Q78.6 91.4 78.68 91.37Q78.76 91.34 78.86 91.29Q79.03 91.21 79.18 91.12Q79.34 91.03 79.48 90.97Q79.55 90.93 79.61 90.93Q79.67 90.92 79.69 90.96Q79.71 91 79.67 91.05Q79.63 91.1 79.55 91.16Q79.42 91.27 79.31 91.52Q79.21 91.77 79.14 92.04L78.81 93.22Q78.77 93.34 78.78 93.4Q78.79 93.45 78.87 93.51L80.4 94.42Q80.59 94.54 80.79 94.59Q80.99 94.64 81.15 94.62Q81.25 94.6 81.32 94.6Q81.38 94.61 81.41 94.66Q81.42 94.69 81.39 94.73Q81.35 94.77 81.27 94.8Q81.15 94.86 80.98 94.92Q80.81 94.99 80.64 95.05Q80.47 95.12 80.32 95.19Q80.14 95.27 79.98 95.35Q79.82 95.43 79.69 95.49Q79.62 95.52 79.56 95.52Q79.51 95.52 79.49 95.48Q79.47 95.44 79.52 95.39Q79.57 95.33 79.62 95.29Q79.7 95.21 79.77 95.11Q79.84 95.01 79.79 94.89Q79.77 94.85 79.73 94.82Q79.7 94.79 79.65 94.75L78.63 94.15Q78.54 94.09 78.5 94.1Q78.46 94.11 78.44 94.2L78.16 95.45Q78.15 95.53 78.16 95.58Q78.16 95.64 78.18 95.67Q78.22 95.75 78.32 95.78Q78.41 95.81 78.54 95.78Q78.64 95.76 78.7 95.77Q78.76 95.77 78.78 95.82Q78.8 95.85 78.76 95.89Q78.72 95.93 78.65 95.96Q78.54 96.01 78.39 96.07Q78.24 96.13 78.1 96.2Q77.91 96.28 77.74 96.38Q77.57 96.48 77.41 96.55Z" fill="#EAE3D2"/><path d="M83.69 93.39Q83.63 93.44 83.57 93.46Q83.52 93.47 83.49 93.44Q83.46 93.4 83.49 93.34Q83.51 93.29 83.57 93.21Q83.64 93.11 83.72 92.96Q83.79 92.81 83.84 92.62Q83.89 92.42 83.9 92.2L83.94 90.92Q83.94 90.81 83.9 90.72Q83.86 90.63 83.71 90.58L82.28 90.12Q82.06 90.05 81.91 90.03Q81.76 90 81.65 90.02Q81.53 90.04 81.42 90.08Q81.33 90.12 81.27 90.12Q81.21 90.13 81.18 90.08Q81.16 90.05 81.19 90.01Q81.21 89.97 81.27 89.92Q81.43 89.8 81.67 89.65Q81.9 89.5 82.11 89.35Q82.27 89.23 82.41 89.11Q82.55 88.98 82.65 88.91Q82.71 88.86 82.77 88.85Q82.82 88.83 82.85 88.86Q82.88 88.9 82.85 88.96Q82.82 89.01 82.76 89.09Q82.66 89.23 82.61 89.31Q82.56 89.4 82.62 89.47Q82.67 89.55 82.96 89.63L83.92 89.94Q84.04 89.98 84.07 89.95Q84.09 89.93 84.1 89.84L84.1 88.78Q84.1 88.66 84.08 88.56Q84.07 88.47 84.03 88.42Q83.98 88.36 83.9 88.35Q83.81 88.35 83.68 88.42Q83.61 88.44 83.53 88.46Q83.46 88.48 83.43 88.44Q83.4 88.41 83.44 88.36Q83.47 88.31 83.53 88.26Q83.61 88.2 83.68 88.16Q83.75 88.11 83.82 88.06Q83.89 88.01 83.98 87.95Q84.13 87.84 84.26 87.71Q84.4 87.59 84.52 87.5Q84.58 87.45 84.64 87.43Q84.69 87.41 84.72 87.44Q84.75 87.48 84.72 87.54Q84.69 87.59 84.63 87.67Q84.53 87.8 84.47 88.07Q84.42 88.34 84.41 88.61L84.34 89.84Q84.34 89.97 84.36 90.02Q84.38 90.07 84.47 90.11L86.16 90.67Q86.37 90.75 86.58 90.75Q86.78 90.76 86.93 90.7Q87.02 90.67 87.09 90.66Q87.16 90.65 87.19 90.69Q87.21 90.72 87.19 90.76Q87.16 90.81 87.09 90.86Q86.98 90.94 86.83 91.04Q86.68 91.14 86.53 91.24Q86.38 91.34 86.24 91.44Q86.08 91.56 85.94 91.67Q85.8 91.78 85.69 91.87Q85.63 91.91 85.58 91.93Q85.52 91.94 85.5 91.91Q85.47 91.87 85.5 91.81Q85.54 91.74 85.58 91.69Q85.65 91.6 85.69 91.48Q85.73 91.37 85.66 91.27Q85.63 91.23 85.59 91.21Q85.55 91.18 85.49 91.16L84.37 90.79Q84.27 90.75 84.23 90.77Q84.19 90.79 84.2 90.88L84.19 92.16Q84.19 92.24 84.21 92.29Q84.23 92.34 84.26 92.37Q84.32 92.44 84.42 92.45Q84.52 92.45 84.63 92.4Q84.73 92.36 84.79 92.35Q84.85 92.34 84.88 92.38Q84.9 92.41 84.87 92.46Q84.84 92.51 84.77 92.56Q84.68 92.62 84.55 92.72Q84.41 92.81 84.29 92.9Q84.12 93.03 83.97 93.16Q83.83 93.29 83.69 93.39Z" fill="#EAE3D2"/><path d="M90.47 87.52Q90.43 87.57 90.36 87.55Q90.27 87.52 90.14 87.47Q90.01 87.42 89.91 87.39L86.8 86.25Q86.63 86.19 86.47 86.19Q86.31 86.2 86.16 86.3Q86.08 86.34 86.02 86.36Q85.97 86.38 85.93 86.35Q85.89 86.32 85.91 86.27Q85.93 86.23 85.98 86.17Q86.06 86.09 86.15 85.99Q86.25 85.89 86.35 85.77Q86.45 85.66 86.55 85.55Q86.63 85.46 86.72 85.35Q86.81 85.23 86.9 85.13Q86.98 85.03 87.04 84.96Q87.09 84.91 87.14 84.88Q87.19 84.85 87.22 84.87Q87.26 84.91 87.25 84.97Q87.24 85.04 87.19 85.11Q87.09 85.27 87.06 85.39Q87.03 85.51 87.11 85.58Q87.17 85.64 87.24 85.66Q87.31 85.69 87.35 85.71L89.73 86.62Q89.77 86.63 89.78 86.62Q89.8 86.61 89.78 86.56L88.68 84.5Q88.51 84.19 88.31 84.14Q88.11 84.1 87.94 84.26Q87.88 84.32 87.81 84.34Q87.75 84.36 87.71 84.33Q87.68 84.3 87.7 84.25Q87.72 84.19 87.77 84.14Q87.84 84.06 87.91 83.99Q87.97 83.92 88.04 83.84Q88.11 83.77 88.19 83.67Q88.32 83.53 88.44 83.38Q88.55 83.22 88.65 83.12Q88.7 83.05 88.75 83.02Q88.8 82.99 88.84 83.03Q88.87 83.06 88.86 83.11Q88.84 83.17 88.8 83.26Q88.69 83.46 88.71 83.68Q88.73 83.89 88.84 84.1L90.14 86.73Q90.19 86.83 90.25 86.95Q90.31 87.07 90.37 87.19Q90.44 87.31 90.48 87.42Q90.5 87.45 90.49 87.47Q90.49 87.5 90.47 87.52Z" fill="#EAE3D2"/><path d="M93.41 83.53Q93.37 83.59 93.33 83.62Q93.3 83.66 93.26 83.63Q93.19 83.59 93.25 83.41Q93.34 83.18 93.31 83.03Q93.29 82.88 93.11 82.77L90.63 81.28Q90.44 81.16 90.32 81.19Q90.19 81.22 90.02 81.4Q89.89 81.54 89.82 81.49Q89.78 81.47 89.78 81.42Q89.79 81.38 89.83 81.31Q89.91 81.17 89.99 81.06Q90.06 80.95 90.13 80.85Q90.2 80.75 90.27 80.63Q90.34 80.52 90.4 80.41Q90.46 80.31 90.52 80.2Q90.57 80.09 90.66 79.95Q90.7 79.89 90.73 79.86Q90.77 79.83 90.81 79.85Q90.85 79.88 90.85 79.93Q90.85 79.99 90.82 80.08Q90.74 80.32 90.77 80.45Q90.79 80.58 90.98 80.69L93.46 82.19Q93.64 82.3 93.78 82.25Q93.93 82.19 94.09 82.01Q94.16 81.94 94.2 81.92Q94.25 81.89 94.29 81.92Q94.33 81.94 94.32 81.98Q94.32 82.03 94.28 82.1Q94.19 82.23 94.12 82.34Q94.04 82.45 93.97 82.56Q93.9 82.66 93.83 82.78Q93.75 82.91 93.68 83.03Q93.62 83.14 93.56 83.27Q93.49 83.39 93.41 83.53Z" fill="#EAE3D2"/><path d="M58.78 74Q58.78 74.34 58.98 74.56Q59.18 74.77 59.56 74.87L60.5 75.08Q61.13 75.27 61.13 75.83Q61.13 76.13 60.92 76.32Q60.71 76.5 60.25 76.5H52.41Q51.94 76.5 51.73 76.32Q51.51 76.13 51.51 75.83Q51.51 75.27 52.14 75.08L53.1 74.87Q53.48 74.77 53.67 74.56Q53.86 74.34 53.86 74V56.6Q53.86 56.26 53.67 56.04Q53.48 55.83 53.1 55.73L52.14 55.52Q51.51 55.33 51.51 54.77Q51.51 54.45 51.73 54.28Q51.94 54.1 52.41 54.1H60.25Q60.71 54.1 60.92 54.28Q61.13 54.45 61.13 54.77Q61.13 55.33 60.5 55.52L59.56 55.73Q59.18 55.83 58.98 56.04Q58.78 56.26 58.78 56.6Z" fill="#EAE3D2"/><path d="M73.24 76.98Q71.91 76.98 70.97 76.66Q70.02 76.34 69.43 76.02Q68.84 75.7 68.55 75.7Q68.26 75.7 68.05 75.9Q67.83 76.1 67.64 76.36Q67.45 76.63 67.23 76.83Q67.02 77.03 66.73 77.03Q66.42 77.03 66.22 76.84Q66.01 76.64 65.93 76.21L64.82 70.82Q64.76 70.5 64.9 70.27Q65.03 70.04 65.35 69.92Q65.7 69.8 65.97 69.93Q66.23 70.07 66.42 70.45Q67.38 72.34 68.43 73.44Q69.48 74.53 70.62 75Q71.75 75.48 72.92 75.48Q74.57 75.48 75.51 74.61Q76.46 73.75 76.47 72.28Q76.47 71.35 76.04 70.57Q75.61 69.8 74.42 69.08Q73.22 68.37 70.92 67.62Q68.47 66.82 67.01 65.79Q65.54 64.76 64.88 63.38Q64.22 62 64.22 60.21Q64.22 58.28 65.14 56.8Q66.07 55.33 67.74 54.51Q69.42 53.68 71.64 53.68Q73.08 53.68 74.02 53.99Q74.95 54.29 75.55 54.6Q76.15 54.9 76.54 54.9Q76.89 54.9 77.1 54.59Q77.3 54.28 77.54 53.96Q77.78 53.64 78.2 53.64Q78.52 53.64 78.74 53.84Q78.95 54.05 79.11 54.61L80.65 60.02Q80.76 60.4 80.62 60.7Q80.49 61 80.15 61.12Q79.82 61.24 79.54 61.1Q79.27 60.96 79.1 60.61Q78.07 58.56 76.92 57.38Q75.77 56.2 74.57 55.69Q73.37 55.19 72.12 55.19Q70.49 55.19 69.51 56.14Q68.54 57.09 68.54 58.64Q68.54 59.57 68.96 60.37Q69.38 61.17 70.55 61.93Q71.72 62.69 73.93 63.49Q76.42 64.39 77.89 65.42Q79.35 66.45 79.99 67.73Q80.63 69.01 80.63 70.66Q80.62 72.4 79.74 73.84Q78.87 75.27 77.22 76.12Q75.58 76.98 73.24 76.98Z" fill="#EAE3D2"/></g><line x1="146" y1="33" x2="146" y2="99" stroke="#3A3629" stroke-width="1.4"/><path d="M183.55 68.85Q183.55 69.29 183.81 69.55Q184.07 69.82 184.56 69.96L185.84 70.24Q186.62 70.47 186.62 71.16Q186.62 71.54 186.35 71.77Q186.09 72 185.5 72H175.17Q174.6 72 174.33 71.77Q174.06 71.54 174.06 71.16Q174.06 70.47 174.86 70.24L176.12 69.96Q176.62 69.82 176.88 69.55Q177.15 69.29 177.15 68.85V45.75Q177.15 45.31 176.88 45.05Q176.62 44.78 176.12 44.64L174.86 44.36Q174.06 44.13 174.06 43.44Q174.06 43.04 174.33 42.82Q174.6 42.6 175.17 42.6H185.5Q186.09 42.6 186.35 42.82Q186.62 43.04 186.62 43.44Q186.62 44.13 185.84 44.36L184.56 44.64Q184.07 44.78 183.81 45.05Q183.55 45.31 183.55 45.75Z" fill="#EAE3D2"/><path d="M198.06 60.98Q198.06 57.97 198.92 55.94Q199.78 53.9 201.15 52.88Q202.53 51.86 204.11 51.86Q206.04 51.86 207.09 52.97Q208.14 54.09 208.14 56.17Q208.14 57.99 207.37 58.9Q206.6 59.8 205.39 59.8Q204.17 59.8 203.54 59.14Q202.91 58.48 202.91 57.3L202.89 56.54Q202.89 55.89 202.59 55.57Q202.3 55.24 201.65 55.24Q200.91 55.24 200.24 55.85Q199.57 56.46 199.15 57.71Q198.73 58.96 198.73 60.89ZM198.44 53.14 198.73 58.24V68.95Q198.73 69.48 198.95 69.75Q199.17 70.03 199.76 70.11L201.59 70.4Q202.03 70.49 202.24 70.68Q202.45 70.87 202.45 71.22Q202.45 71.6 202.18 71.8Q201.92 72 201.42 72H191.69Q191.17 72 190.93 71.79Q190.69 71.58 190.69 71.24Q190.69 70.97 190.85 70.77Q191.02 70.57 191.38 70.45L192.26 70.24Q192.62 70.13 192.79 69.86Q192.95 69.58 192.95 69V56.46Q192.95 56 192.81 55.78Q192.66 55.56 192.34 55.52L191.19 55.43Q190.85 55.37 190.71 55.2Q190.56 55.03 190.56 54.78Q190.56 54.47 190.74 54.28Q190.92 54.09 191.4 53.92L195.56 52.51Q196.46 52.18 196.88 52.07Q197.3 51.97 197.55 51.97Q197.95 51.97 198.16 52.24Q198.37 52.51 198.44 53.14Z" fill="#EAE3D2"/><path d="M221.49 51.86Q224.66 51.86 227.07 53.17Q229.49 54.49 230.84 56.83Q232.2 59.17 232.2 62.23Q232.2 65.17 230.8 67.5Q229.41 69.82 226.96 71.16Q224.51 72.5 221.28 72.5Q218.11 72.5 215.7 71.18Q213.3 69.86 211.94 67.53Q210.59 65.2 210.59 62.15Q210.59 59.17 211.99 56.85Q213.38 54.53 215.83 53.19Q218.28 51.86 221.49 51.86ZM222.92 70.59Q224.32 70.38 225.2 69.28Q226.07 68.18 226.31 66.21Q226.55 64.25 226.07 61.48Q225.61 58.73 224.7 56.93Q223.8 55.14 222.57 54.34Q221.34 53.54 219.87 53.77Q218.47 53.98 217.59 55.09Q216.72 56.21 216.49 58.16Q216.26 60.11 216.74 62.89Q217.21 65.62 218.11 67.41Q219.01 69.21 220.24 70Q221.47 70.8 222.92 70.59Z" fill="#EAE3D2"/><path d="M243.64 53.12V68.98Q243.64 69.56 243.82 69.85Q244 70.13 244.35 70.24L245.17 70.47Q245.76 70.7 245.76 71.2Q245.76 72 244.75 72H236.58Q236.08 72 235.84 71.8Q235.6 71.6 235.6 71.24Q235.6 70.97 235.75 70.77Q235.91 70.57 236.27 70.47L237.15 70.24Q237.53 70.13 237.7 69.85Q237.87 69.56 237.87 68.98V56.44Q237.87 55.96 237.72 55.75Q237.57 55.54 237.24 55.49L236.1 55.41Q235.77 55.35 235.62 55.18Q235.47 55.01 235.47 54.76Q235.47 54.44 235.65 54.26Q235.83 54.07 236.31 53.9L240.55 52.43Q241.25 52.18 241.67 52.06Q242.09 51.95 242.46 51.95Q243.05 51.95 243.35 52.27Q243.64 52.6 243.64 53.12ZM243.03 57.72 242.19 56.84 242.99 56.12Q245.55 53.83 247.38 52.85Q249.21 51.86 250.86 51.86Q253.34 51.86 254.73 53.51Q256.11 55.16 256.41 57.99L257.65 68.91Q257.71 69.52 257.87 69.83Q258.03 70.13 258.42 70.26L259.2 70.47Q259.56 70.57 259.73 70.77Q259.89 70.97 259.89 71.24Q259.89 71.6 259.65 71.8Q259.41 72 258.89 72H250.63Q249.6 72 249.6 71.2Q249.6 70.7 250.21 70.47L251.07 70.24Q251.45 70.13 251.66 69.83Q251.87 69.52 251.81 68.91L250.65 58.79Q250.44 56.98 249.74 56.08Q249.04 55.18 247.67 55.18Q246.79 55.18 245.85 55.64Q244.9 56.1 243.85 57.01Z" fill="#EAE3D2"/><path d="M271.02 70.82Q272.47 70.82 273.27 70.1Q274.06 69.38 274.06 68.24Q274.06 67.53 273.75 66.95Q273.44 66.37 272.55 65.88Q271.67 65.39 269.99 64.99Q266.88 64.29 265.16 63.3Q263.44 62.3 262.77 60.99Q262.1 59.67 262.1 58.08Q262.1 55.2 264.12 53.53Q266.15 51.86 269.93 51.86Q271.31 51.86 272.2 52.09Q273.08 52.32 273.62 52.56Q274.17 52.81 274.57 52.81Q274.99 52.81 275.27 52.56Q275.56 52.32 275.84 52.08Q276.12 51.84 276.52 51.84Q276.8 51.84 277.03 52.03Q277.26 52.22 277.4 52.7L278.75 57.22Q278.96 57.85 278.87 58.26Q278.79 58.66 278.37 58.83Q277.95 59 277.65 58.84Q277.34 58.69 277.05 58.27Q276.08 56.52 274.99 55.48Q273.9 54.44 272.71 53.98Q271.52 53.52 270.24 53.52Q268.48 53.52 267.59 54.27Q266.69 55.01 266.69 56.25Q266.69 57.01 267.07 57.61Q267.45 58.22 268.49 58.74Q269.53 59.25 271.46 59.72Q274.13 60.32 275.69 61.25Q277.26 62.17 277.94 63.47Q278.62 64.78 278.62 66.5Q278.62 68.28 277.7 69.64Q276.77 70.99 275.15 71.75Q273.52 72.5 271.4 72.5Q270.05 72.5 269.22 72.23Q268.4 71.96 267.86 71.69Q267.32 71.41 266.88 71.41Q266.46 71.41 266.14 71.67Q265.81 71.94 265.51 72.21Q265.2 72.48 264.85 72.48Q264.57 72.48 264.36 72.28Q264.15 72.08 264.07 71.58L263.23 67.38Q263.08 66.64 263.18 66.28Q263.27 65.91 263.65 65.76Q264.05 65.59 264.35 65.79Q264.66 65.99 264.99 66.5Q266.34 68.83 267.88 69.83Q269.42 70.82 271.02 70.82Z" fill="#EAE3D2"/><path d="M283.62 54.17 282.5 53.88Q282.06 53.73 281.88 53.54Q281.71 53.35 281.71 53.08Q281.71 52.72 281.96 52.53Q282.21 52.34 282.61 52.34H283.97Q284.44 52.34 284.73 52.18Q285.02 52.01 285.34 51.57L287.9 48.25Q288.28 47.77 288.65 47.53Q289.01 47.3 289.37 47.3Q289.75 47.3 289.97 47.56Q290.19 47.81 290.19 48.27V66.18Q290.19 67.69 290.78 68.48Q291.37 69.27 292.42 69.27Q293.13 69.27 293.55 68.99Q293.97 68.7 294.23 68.34Q294.49 67.97 294.74 67.63Q294.98 67.3 295.33 67.19Q295.61 67.17 295.76 67.35Q295.92 67.53 295.92 67.97Q295.86 69.19 295.11 70.2Q294.37 71.22 293.08 71.82Q291.79 72.42 290.11 72.42Q287.46 72.42 285.96 71.11Q284.46 69.8 284.46 67.11V55.3Q284.46 54.8 284.27 54.56Q284.08 54.32 283.62 54.17ZM287.98 54.15 288 52.34H294.85Q295.29 52.34 295.53 52.51Q295.78 52.68 295.78 53.02Q295.78 53.5 295.29 53.82Q294.81 54.15 293.74 54.15Z" fill="#EAE3D2"/><path d="M311.29 69.44V69.04L310.91 69V56.31Q310.91 54.82 310.19 54.02Q309.46 53.23 308.12 53.23Q306.88 53.23 306.21 53.77Q305.54 54.32 305.54 55.09V56.92Q305.54 58.16 304.71 58.84Q303.88 59.53 302.41 59.53Q301.19 59.53 300.54 58.93Q299.89 58.33 299.89 57.26Q299.89 55.98 300.94 54.74Q301.99 53.5 304.06 52.68Q306.12 51.86 309.13 51.86Q312.93 51.86 314.79 53.41Q316.65 54.97 316.65 57.61V68.53Q316.65 69.14 316.89 69.45Q317.13 69.75 317.57 69.75Q318.01 69.75 318.25 69.53Q318.49 69.31 318.64 69.04Q318.75 68.91 318.86 68.82Q318.98 68.72 319.12 68.72Q319.35 68.72 319.46 68.89Q319.56 69.06 319.56 69.33Q319.56 69.98 319.09 70.72Q318.62 71.45 317.66 71.98Q316.71 72.5 315.28 72.5Q313.43 72.5 312.36 71.67Q311.29 70.84 311.29 69.44ZM298.96 67.65Q298.96 65.09 301.24 63.51Q303.52 61.92 307.7 61.92Q309.06 61.92 310.11 62.16Q311.16 62.4 311.96 62.78L311.56 63.94Q310.83 63.62 310.08 63.42Q309.34 63.22 308.46 63.22Q306.75 63.22 305.8 64.15Q304.84 65.07 304.84 66.71Q304.84 68.33 305.67 69.18Q306.5 70.03 307.83 70.03Q308.92 70.03 309.93 69.52Q310.93 69.02 311.63 68.14L312.05 69.17Q310.93 70.76 309.04 71.63Q307.15 72.5 305.01 72.5Q302.32 72.5 300.64 71.16Q298.96 69.82 298.96 67.65Z" fill="#EAE3D2"/><path d="M340.71 57.51Q340.71 58.69 339.9 59.48Q339.09 60.28 337.75 60.28Q336.42 60.28 335.72 59.55Q335.02 58.81 335.02 57.59V56.8Q335.02 55.37 334.18 54.52Q333.34 53.67 331.87 53.67Q330.56 53.67 329.54 54.48Q328.51 55.28 327.91 56.79Q327.31 58.29 327.31 60.41Q327.31 63.05 328.19 64.88Q329.07 66.71 330.62 67.64Q332.16 68.58 334.13 68.58Q335.94 68.58 337.27 67.83Q338.61 67.09 339.34 65.68Q339.66 65.32 339.86 65.2Q340.06 65.07 340.27 65.07Q340.56 65.07 340.69 65.33Q340.81 65.59 340.79 65.95Q340.64 67.78 339.51 69.27Q338.38 70.76 336.48 71.63Q334.57 72.5 332.12 72.5Q329.2 72.5 326.92 71.29Q324.64 70.07 323.35 67.84Q322.06 65.62 322.06 62.59Q322.06 59.55 323.36 57.11Q324.66 54.67 327.04 53.26Q329.41 51.84 332.6 51.84Q335.12 51.84 336.94 52.62Q338.75 53.39 339.73 54.69Q340.71 55.98 340.71 57.51Z" fill="#EAE3D2"/><path d="M344.92 72Q344.42 72 344.21 71.8Q344 71.6 344 71.24Q344 70.97 344.17 70.77Q344.34 70.57 344.69 70.45L345.55 70.24Q345.93 70.13 346.1 69.85Q346.27 69.56 346.27 68.98V45.27Q346.27 44.8 346.12 44.59Q345.97 44.38 345.64 44.32L344.5 44.26Q344.17 44.17 344.02 44.02Q343.87 43.86 343.87 43.59Q343.87 43.29 344.05 43.1Q344.23 42.91 344.71 42.73L348.96 41.28Q349.65 41 350.07 40.9Q350.49 40.79 350.87 40.79Q351.45 40.79 351.75 41.11Q352.04 41.42 352.04 41.97V68.98Q352.04 69.56 352.22 69.85Q352.4 70.13 352.76 70.24L353.58 70.47Q354.16 70.7 354.16 71.2Q354.16 72 353.16 72ZM350.4 63.2 358.95 56Q359.71 55.37 359.61 54.81Q359.52 54.25 358.64 54.02L357.88 53.83Q357.55 53.71 357.41 53.54Q357.27 53.37 357.27 53.1Q357.27 52.74 357.53 52.54Q357.8 52.34 358.24 52.34H365.61Q366.07 52.34 366.33 52.53Q366.6 52.72 366.6 53.08Q366.6 53.41 366.38 53.64Q366.15 53.86 365.46 54.02Q364.31 54.28 363.39 54.77Q362.48 55.26 361.22 56.31L350.99 64.75ZM357.57 58.01 364.94 68.95Q365.4 69.63 365.77 69.9Q366.13 70.17 366.81 70.38Q367.2 70.57 367.39 70.79Q367.58 71.01 367.58 71.29Q367.58 71.62 367.33 71.81Q367.08 72 366.64 72H357.99Q357.59 72 357.35 71.8Q357.1 71.6 357.1 71.24Q357.1 71.01 357.23 70.84Q357.36 70.68 357.67 70.55L358.38 70.38Q358.95 70.24 359 69.9Q359.06 69.56 358.53 68.81L353.66 61.52Z" fill="#EAE3D2"/><path d="M177.72 97.19Q177.17 97.19 176.69 97.05Q176.21 96.9 175.81 96.6Q175.75 96.55 175.7 96.47Q175.64 96.4 175.61 96.32Q175.52 96.03 175.49 95.58Q175.46 95.13 175.44 94.78Q175.44 94.69 175.52 94.64Q175.6 94.59 175.7 94.59Q175.79 94.59 175.85 94.63Q175.91 94.66 175.94 94.75Q176.21 95.74 176.74 96.23Q177.28 96.71 177.9 96.71Q178.34 96.71 178.66 96.52Q178.98 96.32 179.16 95.99Q179.34 95.66 179.34 95.25Q179.34 94.75 179.17 94.44Q179 94.13 178.68 93.88Q178.35 93.63 177.87 93.35Q177.35 93.03 176.85 92.7Q176.35 92.36 176.03 91.9Q175.7 91.45 175.7 90.79Q175.7 90.08 176.03 89.54Q176.37 89 177 88.69Q177.64 88.37 178.54 88.37Q179 88.37 179.39 88.47Q179.77 88.56 180 88.67Q180.12 88.71 180.19 88.8Q180.26 88.89 180.3 89.02Q180.37 89.29 180.45 89.66Q180.53 90.02 180.53 90.4Q180.53 90.54 180.32 90.54Q180.2 90.54 180.1 90.49Q179.99 90.44 179.97 90.36Q179.71 89.63 179.32 89.25Q178.94 88.88 178.35 88.88Q177.96 88.88 177.65 89.01Q177.33 89.15 177.14 89.45Q176.95 89.76 176.95 90.25Q176.95 90.6 177.19 90.91Q177.43 91.22 177.84 91.49Q178.25 91.77 178.76 92.07Q179.29 92.4 179.72 92.75Q180.15 93.1 180.39 93.55Q180.64 94 180.64 94.62Q180.64 95.44 180.28 96.02Q179.91 96.6 179.26 96.9Q178.6 97.19 177.72 97.19Z" fill="#9C947F"/><path d="M191.06 97.18Q190.19 97.18 189.41 96.88Q188.62 96.57 188.01 96.01Q187.4 95.44 187.04 94.65Q186.68 93.87 186.68 92.91Q186.68 92.02 186.97 91.21Q187.27 90.4 187.83 89.76Q188.4 89.12 189.24 88.75Q190.09 88.37 191.18 88.37Q192.06 88.37 192.85 88.67Q193.64 88.98 194.25 89.54Q194.86 90.11 195.22 90.9Q195.57 91.68 195.57 92.64Q195.57 93.52 195.28 94.34Q194.99 95.15 194.42 95.79Q193.86 96.43 193.01 96.81Q192.17 97.18 191.06 97.18ZM191.27 96.64Q192.18 96.64 192.79 96.21Q193.39 95.79 193.7 95.04Q194 94.28 194 93.3Q194 92.42 193.81 91.64Q193.62 90.86 193.25 90.25Q192.87 89.63 192.3 89.28Q191.73 88.94 190.96 88.94Q190.08 88.94 189.47 89.36Q188.87 89.77 188.56 90.51Q188.26 91.25 188.26 92.24Q188.26 93.13 188.44 93.91Q188.62 94.69 189 95.3Q189.37 95.92 189.94 96.28Q190.5 96.64 191.27 96.64Z" fill="#9C947F"/><path d="M205.36 97.18Q205.23 97.18 205.16 97.05Q205.1 96.88 205 96.61Q204.9 96.34 204.83 96.14L202.39 89.88Q202.26 89.53 202.04 89.28Q201.82 89.04 201.47 88.95Q201.29 88.89 201.19 88.83Q201.08 88.77 201.08 88.67Q201.08 88.58 201.18 88.54Q201.28 88.51 201.42 88.51Q201.65 88.51 201.93 88.52Q202.21 88.54 202.52 88.54Q202.84 88.55 203.12 88.55Q203.38 88.55 203.67 88.54Q203.97 88.52 204.24 88.52Q204.51 88.51 204.7 88.51Q204.84 88.51 204.95 88.55Q205.06 88.59 205.06 88.67Q205.06 88.77 204.95 88.84Q204.84 88.91 204.66 88.94Q204.28 88.99 204.06 89.11Q203.84 89.23 203.84 89.45Q203.84 89.62 203.88 89.76Q203.93 89.9 203.95 89.99L205.76 94.84Q205.79 94.91 205.83 94.92Q205.87 94.93 205.9 94.83L207.58 90.4Q207.84 89.72 207.64 89.36Q207.44 89 206.97 88.95Q206.79 88.93 206.67 88.86Q206.55 88.78 206.55 88.68Q206.55 88.6 206.66 88.56Q206.78 88.52 206.93 88.52Q207.14 88.52 207.33 88.53Q207.53 88.54 207.74 88.54Q207.95 88.55 208.21 88.55Q208.58 88.55 208.98 88.52Q209.38 88.5 209.66 88.5Q209.83 88.5 209.94 88.53Q210.05 88.56 210.05 88.67Q210.05 88.76 209.94 88.82Q209.83 88.88 209.65 88.93Q209.19 89.03 208.89 89.35Q208.58 89.67 208.41 90.1L206.14 95.61Q206.05 95.82 205.94 96.08Q205.84 96.34 205.74 96.59Q205.64 96.84 205.54 97.05Q205.51 97.12 205.47 97.15Q205.42 97.18 205.36 97.18Z" fill="#9C947F"/><path d="M215.71 97.06Q215.56 97.06 215.47 97.03Q215.38 96.99 215.38 96.91Q215.38 96.74 215.75 96.66Q216.23 96.56 216.45 96.37Q216.66 96.18 216.66 95.73V89.85Q216.66 89.41 216.48 89.21Q216.3 89.02 215.82 88.93Q215.62 88.89 215.53 88.82Q215.44 88.76 215.44 88.67Q215.44 88.59 215.53 88.54Q215.62 88.5 215.78 88.5Q216.21 88.5 216.55 88.51Q216.9 88.52 217.23 88.54Q217.56 88.55 217.95 88.55Q218.47 88.55 219.05 88.54Q219.63 88.54 220.1 88.52Q220.54 88.52 220.83 88.5Q221.12 88.48 221.17 88.48Q221.25 88.48 221.34 88.52Q221.42 88.55 221.43 88.64Q221.5 89.04 221.57 89.43Q221.64 89.81 221.64 90.1Q221.64 90.23 221.58 90.27Q221.53 90.32 221.46 90.32Q221.4 90.32 221.36 90.28Q221.32 90.24 221.28 90.16Q221.19 89.9 221.11 89.69Q221.03 89.47 220.93 89.37Q220.76 89.19 220.54 89.1Q220.32 89 220.04 89H218.59Q218.42 89 218.23 89.13Q218.04 89.25 218.04 89.47V92.12Q218.04 92.25 218.12 92.33Q218.2 92.41 218.3 92.41H219.54Q219.91 92.41 220.06 92.24Q220.2 92.07 220.29 91.72Q220.38 91.46 220.54 91.46Q220.6 91.46 220.65 91.52Q220.71 91.58 220.71 91.7Q220.71 91.77 220.69 91.96Q220.68 92.14 220.67 92.33Q220.65 92.53 220.65 92.64Q220.65 92.79 220.66 92.99Q220.67 93.19 220.68 93.39Q220.69 93.58 220.69 93.67Q220.71 93.79 220.67 93.86Q220.64 93.93 220.58 93.93Q220.37 93.93 220.26 93.56Q220.19 93.22 220.05 93.05Q219.91 92.88 219.65 92.88H218.44Q218.24 92.88 218.14 92.94Q218.04 93.01 218.04 93.22V95.7Q218.04 96.16 218.24 96.33Q218.43 96.51 218.83 96.51H219.86Q220.23 96.51 220.5 96.45Q220.77 96.4 220.97 96.26Q221.19 96.1 221.36 95.86Q221.53 95.61 221.71 95.25Q221.76 95.17 221.81 95.12Q221.86 95.08 221.93 95.09Q222.01 95.09 222.04 95.15Q222.07 95.21 222.07 95.3Q222.07 95.44 222.01 95.73Q221.94 96.01 221.84 96.32Q221.75 96.64 221.67 96.86Q221.63 96.95 221.58 97.01Q221.53 97.06 221.45 97.06Q220.98 97.06 220.47 97.05Q219.97 97.04 219.43 97.03Q218.9 97.01 218.37 97Q217.83 96.99 217.31 96.99Q217.04 96.99 216.79 97.01Q216.55 97.03 216.29 97.05Q216.04 97.06 215.71 97.06Z" fill="#9C947F"/><path d="M235.68 97.27Q235.21 97.27 234.84 97.18Q234.47 97.08 234.18 96.88Q233.88 96.69 233.65 96.4Q233.35 96.01 233.07 95.65Q232.79 95.28 232.49 94.82Q232.19 94.36 231.79 93.7Q231.62 93.37 231.31 93.22Q231.09 93.1 230.86 93.05Q230.63 93.01 230.49 93Q230.4 93 230.35 93.07Q230.31 93.14 230.31 93.26V95.61Q230.31 96.03 230.52 96.29Q230.72 96.56 231.23 96.65Q231.41 96.69 231.51 96.74Q231.61 96.79 231.61 96.9Q231.61 96.97 231.52 97.01Q231.43 97.05 231.27 97.05Q230.95 97.05 230.69 97.03Q230.44 97.01 230.21 96.99Q229.98 96.97 229.74 96.97Q229.42 96.97 229.14 96.99Q228.87 97.01 228.59 97.03Q228.31 97.05 227.97 97.05Q227.83 97.05 227.73 97.02Q227.63 96.99 227.63 96.9Q227.63 96.73 228.01 96.65Q228.5 96.56 228.72 96.36Q228.93 96.17 228.93 95.71V90.07Q228.93 89.63 228.88 89.4Q228.83 89.17 228.66 89.08Q228.5 88.98 228.15 88.93Q227.94 88.9 227.85 88.83Q227.76 88.76 227.76 88.67Q227.76 88.59 227.86 88.54Q227.96 88.5 228.1 88.5Q228.48 88.5 228.68 88.51Q228.89 88.52 229.08 88.53Q229.27 88.54 229.55 88.54Q229.81 88.54 230.02 88.52Q230.23 88.5 230.49 88.48Q230.75 88.46 231.15 88.46Q232.61 88.46 233.38 88.99Q234.16 89.51 234.16 90.58Q234.16 91.16 233.92 91.58Q233.68 92 233.31 92.27Q232.95 92.54 232.58 92.7Q232.53 92.71 232.54 92.76Q232.54 92.8 232.57 92.87Q232.97 93.46 233.34 94Q233.71 94.54 234.14 95.04Q234.56 95.54 235.11 96.05Q235.47 96.39 235.87 96.45Q236.26 96.52 236.72 96.52Q236.91 96.52 236.91 96.7Q236.91 96.92 236.71 97.05Q236.51 97.17 236.22 97.22Q235.94 97.27 235.68 97.27ZM230.93 92.66Q231.49 92.66 231.89 92.4Q232.28 92.15 232.5 91.73Q232.71 91.31 232.71 90.81Q232.71 90.25 232.57 89.82Q232.43 89.39 232.05 89.15Q231.67 88.91 230.97 88.91Q230.61 88.91 230.48 89.17Q230.35 89.42 230.33 90.12Q230.32 90.44 230.31 90.95Q230.31 91.47 230.31 92.19Q230.31 92.5 230.48 92.58Q230.65 92.66 230.93 92.66Z" fill="#9C947F"/><path d="M242.59 97.06Q242.43 97.06 242.34 97.03Q242.25 96.99 242.25 96.91Q242.25 96.74 242.63 96.66Q243.11 96.56 243.32 96.37Q243.54 96.18 243.54 95.73V89.85Q243.54 89.41 243.36 89.21Q243.17 89.02 242.69 88.93Q242.5 88.89 242.41 88.82Q242.32 88.76 242.32 88.67Q242.32 88.59 242.41 88.54Q242.5 88.5 242.65 88.5Q243.08 88.5 243.43 88.51Q243.77 88.52 244.1 88.54Q244.43 88.55 244.82 88.55Q245.34 88.55 245.92 88.54Q246.5 88.54 246.97 88.52Q247.41 88.52 247.7 88.5Q248 88.48 248.05 88.48Q248.13 88.48 248.21 88.52Q248.3 88.55 248.31 88.64Q248.37 89.04 248.44 89.43Q248.52 89.81 248.52 90.1Q248.52 90.23 248.46 90.27Q248.4 90.32 248.33 90.32Q248.27 90.32 248.23 90.28Q248.19 90.24 248.15 90.16Q248.06 89.9 247.98 89.69Q247.91 89.47 247.8 89.37Q247.63 89.19 247.41 89.1Q247.19 89 246.92 89H245.46Q245.29 89 245.1 89.13Q244.92 89.25 244.92 89.47V92.12Q244.92 92.25 244.99 92.33Q245.07 92.41 245.18 92.41H246.41Q246.79 92.41 246.93 92.24Q247.07 92.07 247.16 91.72Q247.26 91.46 247.41 91.46Q247.48 91.46 247.53 91.52Q247.58 91.58 247.58 91.7Q247.58 91.77 247.57 91.96Q247.55 92.14 247.54 92.33Q247.53 92.53 247.53 92.64Q247.53 92.79 247.53 92.99Q247.54 93.19 247.55 93.39Q247.57 93.58 247.57 93.67Q247.58 93.79 247.55 93.86Q247.52 93.93 247.45 93.93Q247.24 93.93 247.14 93.56Q247.06 93.22 246.92 93.05Q246.79 92.88 246.53 92.88H245.32Q245.11 92.88 245.01 92.94Q244.92 93.01 244.92 93.22V95.7Q244.92 96.16 245.11 96.33Q245.31 96.51 245.71 96.51H246.74Q247.1 96.51 247.37 96.45Q247.65 96.4 247.84 96.26Q248.06 96.1 248.23 95.86Q248.4 95.61 248.58 95.25Q248.63 95.17 248.69 95.12Q248.74 95.08 248.8 95.09Q248.88 95.09 248.91 95.15Q248.95 95.21 248.95 95.3Q248.95 95.44 248.88 95.73Q248.82 96.01 248.72 96.32Q248.62 96.64 248.54 96.86Q248.5 96.95 248.45 97.01Q248.4 97.06 248.32 97.06Q247.85 97.06 247.35 97.05Q246.84 97.04 246.31 97.03Q245.77 97.01 245.24 97Q244.71 96.99 244.19 96.99Q243.91 96.99 243.67 97.01Q243.42 97.03 243.17 97.05Q242.91 97.06 242.59 97.06Z" fill="#9C947F"/><path d="M254.8 97.05Q254.66 97.05 254.56 97.02Q254.47 96.99 254.47 96.9Q254.47 96.73 254.84 96.65Q255.34 96.56 255.57 96.36Q255.8 96.17 255.8 95.73V89.85Q255.8 89.41 255.62 89.22Q255.44 89.03 254.95 88.93Q254.57 88.85 254.57 88.67Q254.57 88.58 254.66 88.54Q254.75 88.5 254.89 88.5Q255.23 88.5 255.5 88.51Q255.77 88.52 256.01 88.54Q256.26 88.55 256.55 88.55Q256.82 88.55 257.06 88.54Q257.3 88.54 257.55 88.52Q257.81 88.51 258.13 88.51Q258.29 88.51 258.38 88.54Q258.47 88.58 258.47 88.67Q258.47 88.77 258.37 88.83Q258.27 88.89 258.09 88.93Q257.59 89.04 257.38 89.23Q257.18 89.41 257.18 89.85V95.73Q257.18 96.16 257.43 96.35Q257.68 96.55 258.16 96.65Q258.35 96.69 258.44 96.74Q258.53 96.79 258.53 96.9Q258.53 96.97 258.45 97.01Q258.37 97.05 258.21 97.05Q257.88 97.05 257.61 97.03Q257.34 97.01 257.08 97Q256.83 96.99 256.55 96.99Q256.23 96.99 255.97 97Q255.7 97.01 255.41 97.03Q255.13 97.05 254.8 97.05Z" fill="#9C947F"/><path d="M268.79 97.18Q267.88 97.18 267.06 96.87Q266.25 96.56 265.62 95.99Q264.99 95.41 264.63 94.63Q264.26 93.85 264.26 92.94Q264.26 92.01 264.63 91.18Q264.99 90.34 265.65 89.72Q266.32 89.1 267.19 88.74Q268.07 88.38 269.1 88.38Q269.33 88.38 269.7 88.42Q270.07 88.46 270.48 88.52Q270.88 88.59 271.21 88.67Q271.54 88.75 271.7 88.82Q271.78 88.85 271.82 88.89Q271.85 88.94 271.87 89.03Q271.92 89.43 271.96 89.82Q272 90.2 272 90.46Q272 90.56 271.94 90.64Q271.88 90.72 271.8 90.72Q271.66 90.72 271.59 90.62Q271.53 90.51 271.48 90.4Q271.39 90.17 271.28 89.99Q271.18 89.8 271 89.6Q270.89 89.47 270.65 89.32Q270.41 89.17 270.03 89.06Q269.64 88.94 269.09 88.94Q268.34 88.94 267.75 89.25Q267.15 89.55 266.73 90.08Q266.32 90.62 266.1 91.29Q265.87 91.97 265.87 92.71Q265.87 93.62 266.11 94.35Q266.36 95.08 266.78 95.58Q267.2 96.09 267.77 96.36Q268.34 96.62 268.98 96.62Q269.59 96.62 269.9 96.47Q270.2 96.31 270.32 96.21Q270.46 96.08 270.57 95.82Q270.68 95.57 270.68 95.26Q270.68 95.14 270.69 94.98Q270.7 94.83 270.7 94.67Q270.71 94.5 270.71 94.39Q270.71 94.24 270.68 94.14Q270.65 94.04 270.57 93.97Q270.45 93.85 270.23 93.78Q270.01 93.71 269.79 93.67Q269.58 93.63 269.45 93.62Q269.37 93.62 269.27 93.55Q269.16 93.48 269.16 93.37Q269.16 93.28 269.27 93.22Q269.37 93.17 269.44 93.17Q269.75 93.17 270.03 93.18Q270.31 93.19 270.59 93.2Q270.88 93.22 271.2 93.22Q271.54 93.22 271.85 93.19Q272.15 93.17 272.52 93.17Q272.58 93.17 272.67 93.21Q272.76 93.26 272.76 93.37Q272.76 93.48 272.67 93.54Q272.57 93.61 272.5 93.62Q272.19 93.71 272.07 93.85Q271.95 94 271.91 94.26Q271.87 94.54 271.85 94.76Q271.84 94.98 271.84 95.23V95.61Q271.84 95.67 271.87 95.72Q271.91 95.77 271.95 95.83Q271.98 95.89 272.04 95.95Q272.1 96.01 272.1 96.08Q272.1 96.13 272.07 96.21Q272.04 96.3 271.89 96.32Q271.8 96.34 271.54 96.47Q271.27 96.61 270.87 96.77Q270.48 96.94 269.95 97.06Q269.42 97.18 268.79 97.18Z" fill="#9C947F"/><path d="M286.93 97.23Q286.8 97.23 286.44 97.03Q286.08 96.83 285.75 96.38Q285.6 96.22 285.31 95.88Q285.02 95.53 284.62 95.08Q284.23 94.62 283.78 94.1Q283.33 93.58 282.88 93.07Q282.43 92.55 282.03 92.1Q281.64 91.64 281.33 91.29Q281.03 90.94 280.87 90.79Q280.81 90.69 280.75 90.64Q280.69 90.59 280.64 90.59Q280.59 90.59 280.56 90.69Q280.53 90.79 280.53 90.86Q280.52 91.49 280.52 92.31Q280.52 93.13 280.51 93.99Q280.51 94.86 280.51 95.61Q280.51 95.99 280.72 96.27Q280.92 96.55 281.42 96.65Q281.6 96.69 281.71 96.74Q281.82 96.79 281.82 96.9Q281.82 96.97 281.72 97.01Q281.61 97.05 281.46 97.05Q281.11 97.05 280.92 97.03Q280.73 97.01 280.57 97.01Q280.42 97 280.16 97Q279.91 97 279.73 97.01Q279.56 97.03 279.39 97.04Q279.22 97.05 278.97 97.05Q278.83 97.05 278.72 97.02Q278.61 96.99 278.61 96.9Q278.61 96.81 278.71 96.75Q278.82 96.69 279.01 96.64Q279.36 96.53 279.53 96.25Q279.7 95.97 279.73 95.58Q279.78 95.09 279.84 94.28Q279.9 93.48 279.94 92.48Q279.97 91.47 279.97 90.41Q279.97 89.72 279.62 89.42Q279.27 89.12 278.73 88.94Q278.66 88.91 278.5 88.84Q278.34 88.76 278.34 88.64Q278.34 88.52 278.45 88.48Q278.57 88.45 278.65 88.45Q278.99 88.46 279.24 88.47Q279.49 88.47 279.73 88.48Q279.96 88.5 280.22 88.5Q280.48 88.51 280.83 88.51Q280.95 88.51 281.01 88.57Q281.08 88.63 281.13 88.71Q281.27 88.88 281.58 89.24Q281.89 89.6 282.29 90.1Q282.7 90.59 283.17 91.14Q283.64 91.7 284.11 92.25Q284.58 92.81 284.99 93.31Q285.41 93.8 285.71 94.16Q286.02 94.52 286.15 94.67Q286.2 94.72 286.29 94.82Q286.37 94.91 286.44 94.91Q286.55 94.91 286.57 94.66Q286.57 94.4 286.57 93.88Q286.57 93.36 286.57 92.67Q286.58 91.98 286.58 91.22Q286.58 90.46 286.57 89.71Q286.55 89.42 286.29 89.22Q286.03 89.02 285.73 88.95Q285.55 88.93 285.4 88.86Q285.24 88.8 285.24 88.69Q285.24 88.61 285.4 88.58Q285.55 88.54 285.69 88.54Q285.89 88.54 286.04 88.54Q286.19 88.54 286.33 88.54Q286.47 88.54 286.62 88.54Q286.92 88.54 287.1 88.53Q287.28 88.52 287.49 88.51Q287.71 88.5 288.09 88.5Q288.24 88.5 288.34 88.54Q288.44 88.58 288.44 88.67Q288.44 88.85 288.03 88.93Q287.57 89.02 287.4 89.17Q287.23 89.32 287.22 89.66Q287.22 89.86 287.2 90.34Q287.19 90.81 287.18 91.45Q287.18 92.09 287.16 92.79Q287.15 93.49 287.15 94.17Q287.15 94.84 287.15 95.39Q287.15 95.7 287.18 95.99Q287.2 96.28 287.22 96.5Q287.24 96.71 287.24 96.82Q287.24 97.06 287.15 97.15Q287.06 97.23 286.93 97.23Z" fill="#9C947F"/><path d="M301.91 97.05Q301.77 97.05 301.67 97.02Q301.57 96.99 301.57 96.9Q301.57 96.73 301.95 96.65Q302.44 96.56 302.68 96.36Q302.91 96.17 302.91 95.73V89.85Q302.91 89.41 302.73 89.22Q302.55 89.03 302.05 88.93Q301.67 88.85 301.67 88.67Q301.67 88.58 301.77 88.54Q301.86 88.5 302 88.5Q302.34 88.5 302.6 88.51Q302.87 88.52 303.12 88.54Q303.36 88.55 303.65 88.55Q303.92 88.55 304.16 88.54Q304.4 88.54 304.66 88.52Q304.91 88.51 305.24 88.51Q305.39 88.51 305.48 88.54Q305.57 88.58 305.57 88.67Q305.57 88.77 305.48 88.83Q305.38 88.89 305.2 88.93Q304.69 89.04 304.49 89.23Q304.29 89.41 304.29 89.85V95.73Q304.29 96.16 304.53 96.35Q304.78 96.55 305.26 96.65Q305.46 96.69 305.55 96.74Q305.64 96.79 305.64 96.9Q305.64 96.97 305.55 97.01Q305.47 97.05 305.31 97.05Q304.99 97.05 304.72 97.03Q304.44 97.01 304.19 97Q303.94 96.99 303.65 96.99Q303.34 96.99 303.07 97Q302.81 97.01 302.52 97.03Q302.23 97.05 301.91 97.05Z" fill="#9C947F"/><path d="M319.6 97.23Q319.47 97.23 319.11 97.03Q318.75 96.83 318.41 96.38Q318.27 96.22 317.98 95.88Q317.69 95.53 317.29 95.08Q316.89 94.62 316.44 94.1Q316 93.58 315.55 93.07Q315.1 92.55 314.7 92.1Q314.31 91.64 314 91.29Q313.69 90.94 313.54 90.79Q313.47 90.69 313.41 90.64Q313.36 90.59 313.3 90.59Q313.25 90.59 313.23 90.69Q313.2 90.79 313.2 90.86Q313.19 91.49 313.19 92.31Q313.19 93.13 313.18 93.99Q313.17 94.86 313.17 95.61Q313.17 95.99 313.38 96.27Q313.59 96.55 314.08 96.65Q314.27 96.69 314.38 96.74Q314.49 96.79 314.49 96.9Q314.49 96.97 314.38 97.01Q314.28 97.05 314.12 97.05Q313.77 97.05 313.58 97.03Q313.4 97.01 313.24 97.01Q313.08 97 312.82 97Q312.58 97 312.4 97.01Q312.23 97.03 312.06 97.04Q311.89 97.05 311.64 97.05Q311.5 97.05 311.39 97.02Q311.28 96.99 311.28 96.9Q311.28 96.81 311.38 96.75Q311.48 96.69 311.68 96.64Q312.03 96.53 312.2 96.25Q312.37 95.97 312.39 95.58Q312.45 95.09 312.5 94.28Q312.56 93.48 312.6 92.48Q312.64 91.47 312.64 90.41Q312.64 89.72 312.29 89.42Q311.94 89.12 311.39 88.94Q311.33 88.91 311.17 88.84Q311 88.76 311 88.64Q311 88.52 311.12 88.48Q311.24 88.45 311.32 88.45Q311.65 88.46 311.91 88.47Q312.16 88.47 312.39 88.48Q312.63 88.5 312.89 88.5Q313.15 88.51 313.5 88.51Q313.62 88.51 313.68 88.57Q313.75 88.63 313.8 88.71Q313.94 88.88 314.25 89.24Q314.55 89.6 314.96 90.1Q315.37 90.59 315.84 91.14Q316.31 91.7 316.78 92.25Q317.24 92.81 317.66 93.31Q318.08 93.8 318.38 94.16Q318.69 94.52 318.82 94.67Q318.87 94.72 318.95 94.82Q319.04 94.91 319.1 94.91Q319.22 94.91 319.23 94.66Q319.23 94.4 319.23 93.88Q319.23 93.36 319.24 92.67Q319.25 91.98 319.25 91.22Q319.25 90.46 319.23 89.71Q319.22 89.42 318.96 89.22Q318.7 89.02 318.4 88.95Q318.22 88.93 318.06 88.86Q317.91 88.8 317.91 88.69Q317.91 88.61 318.06 88.58Q318.22 88.54 318.36 88.54Q318.56 88.54 318.71 88.54Q318.86 88.54 319 88.54Q319.14 88.54 319.28 88.54Q319.58 88.54 319.77 88.53Q319.95 88.52 320.16 88.51Q320.38 88.5 320.75 88.5Q320.91 88.5 321.01 88.54Q321.1 88.58 321.1 88.67Q321.1 88.85 320.7 88.93Q320.23 89.02 320.06 89.17Q319.9 89.32 319.88 89.66Q319.88 89.86 319.87 90.34Q319.86 90.81 319.85 91.45Q319.84 92.09 319.83 92.79Q319.82 93.49 319.82 94.17Q319.82 94.84 319.82 95.39Q319.82 95.7 319.84 95.99Q319.87 96.28 319.89 96.5Q319.91 96.71 319.91 96.82Q319.91 97.06 319.82 97.15Q319.73 97.23 319.6 97.23Z" fill="#9C947F"/><path d="M326.9 97.05Q326.75 97.05 326.66 97.02Q326.57 96.99 326.57 96.9Q326.57 96.73 326.95 96.65Q327.44 96.56 327.63 96.36Q327.81 96.17 327.81 95.71V90.11Q327.81 89.56 327.66 89.29Q327.51 89.02 327.03 88.93Q326.82 88.89 326.73 88.82Q326.64 88.76 326.64 88.67Q326.64 88.59 326.73 88.54Q326.83 88.5 326.98 88.5Q327.4 88.5 327.74 88.51Q328.07 88.52 328.39 88.54Q328.72 88.55 329.11 88.55Q329.54 88.55 330.03 88.55Q330.52 88.55 330.98 88.55Q331.43 88.55 331.79 88.48Q332.15 88.42 332.4 88.42Q332.47 88.42 332.57 88.45Q332.66 88.48 332.67 88.58Q332.7 88.77 332.71 89.07Q332.72 89.37 332.73 89.64Q332.73 89.92 332.73 90.05Q332.73 90.32 332.6 90.32Q332.54 90.32 332.47 90.27Q332.41 90.21 332.38 90.14Q332.32 89.89 332.23 89.69Q332.15 89.5 332.03 89.37Q331.85 89.17 331.63 89.1Q331.41 89.03 331.14 89.03H329.72Q329.41 89.03 329.3 89.21Q329.2 89.39 329.19 89.67Q329.19 89.9 329.19 90.25Q329.19 90.59 329.19 90.89Q329.19 91.2 329.19 91.54Q329.19 91.88 329.19 92.14Q329.19 92.25 329.23 92.34Q329.28 92.42 329.38 92.42Q329.76 92.42 330.15 92.41Q330.55 92.4 330.8 92.4Q331.11 92.4 331.3 92.23Q331.49 92.06 331.58 91.81Q331.62 91.75 331.69 91.67Q331.77 91.59 331.82 91.59Q331.89 91.59 331.95 91.66Q332.01 91.72 331.99 91.83Q331.98 92.07 331.96 92.26Q331.94 92.45 331.94 92.62Q331.94 92.84 331.95 93.03Q331.97 93.22 331.99 93.5Q331.99 93.63 331.97 93.7Q331.94 93.78 331.86 93.78Q331.75 93.78 331.67 93.67Q331.59 93.56 331.56 93.46Q331.47 93.14 331.3 93.02Q331.12 92.91 330.94 92.91Q330.78 92.91 330.62 92.9Q330.46 92.89 330.3 92.89Q330.1 92.89 329.89 92.89Q329.69 92.89 329.48 92.91Q329.35 92.92 329.27 92.99Q329.19 93.06 329.19 93.23Q329.19 93.81 329.19 94.44Q329.2 95.06 329.22 95.7Q329.24 96.12 329.43 96.34Q329.61 96.56 330.12 96.65Q330.32 96.69 330.41 96.74Q330.5 96.79 330.5 96.9Q330.5 96.97 330.41 97.01Q330.32 97.05 330.17 97.05Q329.84 97.05 329.58 97.03Q329.33 97.01 329.11 96.99Q328.89 96.97 328.63 96.97Q328.34 96.97 328.07 96.99Q327.79 97.01 327.51 97.03Q327.24 97.05 326.9 97.05Z" fill="#9C947F"/><path d="M346.37 97.27Q345.9 97.27 345.53 97.18Q345.16 97.08 344.86 96.88Q344.57 96.69 344.34 96.4Q344.04 96.01 343.76 95.65Q343.48 95.28 343.18 94.82Q342.88 94.36 342.48 93.7Q342.31 93.37 342 93.22Q341.78 93.1 341.55 93.05Q341.32 93.01 341.18 93Q341.09 93 341.04 93.07Q341 93.14 341 93.26V95.61Q341 96.03 341.21 96.29Q341.41 96.56 341.92 96.65Q342.1 96.69 342.2 96.74Q342.3 96.79 342.3 96.9Q342.3 96.97 342.21 97.01Q342.12 97.05 341.96 97.05Q341.63 97.05 341.38 97.03Q341.13 97.01 340.9 96.99Q340.67 96.97 340.43 96.97Q340.11 96.97 339.83 96.99Q339.55 97.01 339.27 97.03Q339 97.05 338.66 97.05Q338.51 97.05 338.42 97.02Q338.32 96.99 338.32 96.9Q338.32 96.73 338.7 96.65Q339.19 96.56 339.4 96.36Q339.62 96.17 339.62 95.71V90.07Q339.62 89.63 339.57 89.4Q339.52 89.17 339.35 89.08Q339.19 88.98 338.84 88.93Q338.63 88.9 338.54 88.83Q338.45 88.76 338.45 88.67Q338.45 88.59 338.55 88.54Q338.64 88.5 338.79 88.5Q339.16 88.5 339.37 88.51Q339.58 88.52 339.77 88.53Q339.96 88.54 340.24 88.54Q340.5 88.54 340.71 88.52Q340.92 88.5 341.18 88.48Q341.44 88.46 341.84 88.46Q343.3 88.46 344.07 88.99Q344.85 89.51 344.85 90.58Q344.85 91.16 344.6 91.58Q344.36 92 344 92.27Q343.64 92.54 343.27 92.7Q343.22 92.71 343.23 92.76Q343.23 92.8 343.26 92.87Q343.66 93.46 344.03 94Q344.4 94.54 344.83 95.04Q345.25 95.54 345.79 96.05Q346.16 96.39 346.55 96.45Q346.95 96.52 347.41 96.52Q347.6 96.52 347.6 96.7Q347.6 96.92 347.4 97.05Q347.2 97.17 346.91 97.22Q346.63 97.27 346.37 97.27ZM341.62 92.66Q342.18 92.66 342.58 92.4Q342.97 92.15 343.19 91.73Q343.4 91.31 343.4 90.81Q343.4 90.25 343.26 89.82Q343.12 89.39 342.74 89.15Q342.36 88.91 341.66 88.91Q341.3 88.91 341.17 89.17Q341.04 89.42 341.02 90.12Q341.01 90.44 341 90.95Q341 91.47 341 92.19Q341 92.5 341.17 92.58Q341.34 92.66 341.62 92.66Z" fill="#9C947F"/><path d="M352.86 97.06Q352.71 97.06 352.6 97.02Q352.5 96.97 352.5 96.88Q352.5 96.78 352.6 96.71Q352.71 96.65 352.89 96.58Q353.24 96.48 353.52 96.27Q353.81 96.06 353.99 95.64Q354.34 94.84 354.64 94.12Q354.94 93.4 355.21 92.7Q355.49 92 355.77 91.25Q356.06 90.5 356.36 89.66Q356.48 89.36 356.53 89.15Q356.58 88.95 356.59 88.8Q356.76 88.76 356.9 88.71Q357.05 88.67 357.22 88.58Q357.37 88.5 357.46 88.35Q357.54 88.2 357.59 88.13Q357.62 88.12 357.65 88.11Q357.68 88.11 357.71 88.16Q357.75 88.22 357.77 88.3Q357.79 88.38 357.81 88.47Q358.11 89.42 358.43 90.4Q358.75 91.38 359.06 92.32Q359.37 93.26 359.65 94.06Q359.92 94.86 360.12 95.45Q360.26 95.88 360.45 96.11Q360.65 96.34 360.87 96.45Q361.09 96.56 361.35 96.61Q361.55 96.65 361.64 96.73Q361.74 96.81 361.74 96.91Q361.74 96.99 361.64 97.02Q361.55 97.05 361.4 97.05Q361.19 97.05 360.86 97.03Q360.52 97.01 360.15 97Q359.79 96.99 359.49 96.99Q359.24 96.99 358.95 96.99Q358.65 96.99 358.38 97Q358.11 97.01 357.92 97.01Q357.76 97.01 357.66 96.97Q357.57 96.92 357.57 96.84Q357.57 96.74 357.68 96.67Q357.8 96.61 357.96 96.58Q358.4 96.51 358.6 96.35Q358.8 96.19 358.76 95.93Q358.75 95.71 358.67 95.38Q358.59 95.05 358.49 94.68Q358.39 94.31 358.3 94Q358.27 93.89 358.2 93.87Q358.14 93.84 357.98 93.84H355.58Q355.51 93.84 355.46 93.89Q355.41 93.93 355.36 94.06Q355.32 94.22 355.23 94.46Q355.15 94.7 355.07 94.97Q354.99 95.23 354.93 95.46Q354.88 95.69 354.86 95.79Q354.82 96.12 355.03 96.3Q355.23 96.49 355.63 96.6Q356.02 96.7 356.02 96.86Q356.02 96.95 355.92 96.98Q355.83 97.01 355.67 97.01Q355.42 97.01 355.1 97Q354.77 96.99 354.41 96.99Q353.99 96.99 353.6 97.03Q353.21 97.06 352.86 97.06ZM355.94 93.31H357.84Q358.02 93.31 358.02 93.24Q358.02 93.2 358.02 93.18Q358.01 93.15 358 93.1L357.03 90.02Q356.97 89.81 356.93 89.81Q356.9 89.81 356.84 90.01L355.71 93.1Q355.68 93.18 355.68 93.2Q355.68 93.27 355.75 93.29Q355.83 93.31 355.94 93.31Z" fill="#9C947F"/><path d="M369.38 97.19Q368.83 97.19 368.35 97.05Q367.87 96.9 367.47 96.6Q367.42 96.55 367.36 96.47Q367.3 96.4 367.27 96.32Q367.18 96.03 367.15 95.58Q367.12 95.13 367.1 94.78Q367.1 94.69 367.18 94.64Q367.26 94.59 367.36 94.59Q367.46 94.59 367.51 94.63Q367.57 94.66 367.6 94.75Q367.87 95.74 368.4 96.23Q368.94 96.71 369.56 96.71Q370 96.71 370.32 96.52Q370.64 96.32 370.82 95.99Q371 95.66 371 95.25Q371 94.75 370.84 94.44Q370.67 94.13 370.34 93.88Q370.02 93.63 369.54 93.35Q369.02 93.03 368.51 92.7Q368.01 92.36 367.69 91.9Q367.36 91.45 367.36 90.79Q367.36 90.08 367.7 89.54Q368.03 89 368.66 88.69Q369.3 88.37 370.2 88.37Q370.67 88.37 371.05 88.47Q371.43 88.56 371.67 88.67Q371.78 88.71 371.86 88.8Q371.93 88.89 371.97 89.02Q372.03 89.29 372.11 89.66Q372.19 90.02 372.19 90.4Q372.19 90.54 371.98 90.54Q371.86 90.54 371.76 90.49Q371.65 90.44 371.63 90.36Q371.37 89.63 370.98 89.25Q370.6 88.88 370.02 88.88Q369.63 88.88 369.31 89.01Q368.99 89.15 368.8 89.45Q368.61 89.76 368.61 90.25Q368.61 90.6 368.85 90.91Q369.09 91.22 369.5 91.49Q369.91 91.77 370.42 92.07Q370.95 92.4 371.38 92.75Q371.81 93.1 372.06 93.55Q372.3 94 372.3 94.62Q372.3 95.44 371.94 96.02Q371.58 96.6 370.92 96.9Q370.26 97.19 369.38 97.19Z" fill="#9C947F"/><path d="M380.58 97.05Q380.44 97.05 380.33 97.02Q380.23 96.99 380.23 96.9Q380.23 96.81 380.33 96.75Q380.44 96.69 380.62 96.65Q381.11 96.56 381.36 96.35Q381.61 96.14 381.61 95.69V90.54Q381.61 89.97 381.58 89.67Q381.56 89.38 381.5 89.27Q381.45 89.16 381.36 89.14Q381.2 89.1 381.01 89.09Q380.81 89.08 380.55 89.08H380.05Q379.71 89.08 379.38 89.23Q379.05 89.38 378.88 89.66Q378.83 89.73 378.73 89.87Q378.63 90.01 378.51 90.1Q378.4 90.2 378.28 90.2Q378.21 90.2 378.18 90.15Q378.15 90.1 378.15 90.02Q378.15 89.88 378.23 89.73Q378.44 89.32 378.53 89Q378.62 88.69 378.67 88.26Q378.7 88.06 378.77 88Q378.85 87.95 378.93 87.95Q378.99 87.95 379.1 88.11Q379.22 88.28 379.28 88.38Q379.38 88.5 379.67 88.56Q379.96 88.63 380.2 88.63L384.9 88.61Q385.3 88.61 385.57 88.56Q385.83 88.51 386 88.43Q386.18 88.34 386.29 88.23Q386.39 88.12 386.56 88.12Q386.61 88.12 386.64 88.21Q386.66 88.29 386.66 88.39Q386.66 88.45 386.65 88.55Q386.64 88.65 386.63 88.72Q386.57 88.97 386.53 89.11Q386.48 89.25 386.46 89.38Q386.44 89.5 386.44 89.69V89.88Q386.44 90.03 386.39 90.17Q386.34 90.32 386.24 90.32Q386.13 90.32 386.07 90.18Q386 90.05 385.94 89.78Q385.86 89.45 385.59 89.27Q385.33 89.08 384.71 89.08H383.62Q383.36 89.08 383.22 89.17Q383.08 89.25 383.03 89.56Q382.99 89.86 382.99 90.54V95.69Q382.99 96.13 383.24 96.34Q383.49 96.55 383.99 96.65Q384.17 96.69 384.27 96.74Q384.36 96.79 384.36 96.9Q384.36 96.97 384.27 97.01Q384.18 97.05 384.03 97.05Q383.7 97.05 383.43 97.03Q383.15 97.01 382.89 97Q382.63 96.99 382.35 96.99Q382.04 96.99 381.76 97Q381.49 97.01 381.2 97.03Q380.92 97.05 380.58 97.05Z" fill="#9C947F"/><path d="M399.98 97.27Q399.52 97.27 399.15 97.18Q398.78 97.08 398.48 96.88Q398.19 96.69 397.96 96.4Q397.66 96.01 397.38 95.65Q397.1 95.28 396.8 94.82Q396.5 94.36 396.1 93.7Q395.93 93.37 395.62 93.22Q395.4 93.1 395.17 93.05Q394.94 93.01 394.8 93Q394.71 93 394.66 93.07Q394.62 93.14 394.62 93.26V95.61Q394.62 96.03 394.82 96.29Q395.03 96.56 395.54 96.65Q395.72 96.69 395.82 96.74Q395.92 96.79 395.92 96.9Q395.92 96.97 395.82 97.01Q395.73 97.05 395.58 97.05Q395.25 97.05 395 97.03Q394.75 97.01 394.52 96.99Q394.29 96.97 394.04 96.97Q393.73 96.97 393.45 96.99Q393.17 97.01 392.89 97.03Q392.61 97.05 392.28 97.05Q392.13 97.05 392.03 97.02Q391.94 96.99 391.94 96.9Q391.94 96.73 392.31 96.65Q392.81 96.56 393.02 96.36Q393.24 96.17 393.24 95.71V90.07Q393.24 89.63 393.19 89.4Q393.13 89.17 392.97 89.08Q392.81 88.98 392.46 88.93Q392.25 88.9 392.16 88.83Q392.07 88.76 392.07 88.67Q392.07 88.59 392.16 88.54Q392.26 88.5 392.41 88.5Q392.78 88.5 392.99 88.51Q393.2 88.52 393.39 88.53Q393.58 88.54 393.86 88.54Q394.12 88.54 394.33 88.52Q394.54 88.5 394.8 88.48Q395.06 88.46 395.46 88.46Q396.92 88.46 397.69 88.99Q398.46 89.51 398.46 90.58Q398.46 91.16 398.22 91.58Q397.98 92 397.62 92.27Q397.25 92.54 396.89 92.7Q396.84 92.71 396.84 92.76Q396.85 92.8 396.88 92.87Q397.28 93.46 397.65 94Q398.02 94.54 398.44 95.04Q398.87 95.54 399.41 96.05Q399.78 96.39 400.17 96.45Q400.57 96.52 401.02 96.52Q401.22 96.52 401.22 96.7Q401.22 96.92 401.02 97.05Q400.82 97.17 400.53 97.22Q400.24 97.27 399.98 97.27ZM395.24 92.66Q395.8 92.66 396.19 92.4Q396.59 92.15 396.81 91.73Q397.02 91.31 397.02 90.81Q397.02 90.25 396.88 89.82Q396.73 89.39 396.36 89.15Q395.98 88.91 395.28 88.91Q394.91 88.91 394.78 89.17Q394.65 89.42 394.64 90.12Q394.63 90.44 394.62 90.95Q394.62 91.47 394.62 92.19Q394.62 92.5 394.78 92.58Q394.95 92.66 395.24 92.66Z" fill="#9C947F"/><path d="M410.99 97.18Q409.82 97.18 409.03 96.77Q408.23 96.35 407.83 95.59Q407.43 94.83 407.43 93.81V89.93Q407.43 89.5 407.25 89.25Q407.08 89 406.82 88.95Q406.4 88.84 406.4 88.67Q406.4 88.58 406.51 88.54Q406.61 88.5 406.77 88.5Q407.1 88.5 407.45 88.52Q407.81 88.55 408.17 88.55Q408.49 88.55 408.85 88.53Q409.2 88.51 409.47 88.51Q409.64 88.51 409.74 88.55Q409.83 88.59 409.83 88.68Q409.83 88.78 409.7 88.84Q409.56 88.9 409.34 88.98Q409.17 89.04 408.99 89.28Q408.82 89.53 408.82 89.94V93.5Q408.82 94.49 409.14 95.13Q409.47 95.77 410.04 96.06Q410.61 96.36 411.33 96.36Q412.62 96.36 413.22 95.51Q413.82 94.66 413.82 93.17Q413.82 92.87 413.82 92.41Q413.82 91.96 413.82 91.45Q413.81 90.94 413.8 90.49Q413.79 90.06 413.73 89.75Q413.67 89.45 413.54 89.24Q413.41 89.03 413.2 88.97Q413.07 88.91 412.91 88.85Q412.75 88.78 412.75 88.68Q412.75 88.6 412.85 88.56Q412.95 88.52 413.12 88.52Q413.49 88.52 413.69 88.54Q413.9 88.55 414.2 88.55Q414.42 88.55 414.6 88.54Q414.77 88.52 414.94 88.51Q415.11 88.5 415.29 88.5Q415.45 88.5 415.55 88.54Q415.66 88.58 415.66 88.67Q415.66 88.84 415.25 88.93Q414.88 89.02 414.73 89.28Q414.58 89.54 414.55 89.97Q414.49 91.03 414.47 91.92Q414.46 92.81 414.44 93.7Q414.42 94.71 413.96 95.5Q413.5 96.3 412.73 96.74Q411.97 97.18 410.99 97.18Z" fill="#9C947F"/><path d="M426.05 97.19Q425.12 97.19 424.25 96.88Q423.39 96.57 422.72 96Q422.06 95.43 421.68 94.62Q421.29 93.81 421.29 92.83Q421.29 91.9 421.68 91.09Q422.07 90.28 422.77 89.67Q423.47 89.07 424.39 88.73Q425.31 88.38 426.39 88.38Q426.87 88.38 427.25 88.43Q427.63 88.47 427.98 88.55Q428.33 88.63 428.73 88.76Q428.9 88.81 428.98 88.9Q429.07 88.99 429.08 89.17Q429.12 89.51 429.15 89.88Q429.19 90.24 429.2 90.68Q429.2 90.8 429.1 90.85Q429 90.9 428.89 90.87Q428.77 90.84 428.73 90.69Q428.61 90.27 428.46 89.93Q428.3 89.59 428 89.37Q427.7 89.14 427.24 89Q426.78 88.88 426.21 88.88Q425.48 88.88 424.87 89.17Q424.26 89.47 423.83 89.99Q423.4 90.5 423.16 91.15Q422.92 91.8 422.92 92.5Q422.92 93.32 423.15 94.07Q423.37 94.83 423.81 95.41Q424.25 96 424.87 96.34Q425.49 96.69 426.27 96.69Q427.21 96.69 427.82 96.27Q428.43 95.84 428.85 95.05Q428.94 94.87 429.12 94.87Q429.3 94.87 429.3 95.08Q429.3 95.21 429.26 95.43Q429.21 95.66 429.13 95.93Q429.06 96.19 428.98 96.42Q428.9 96.58 428.83 96.65Q428.77 96.71 428.59 96.78Q428.09 96.99 427.42 97.09Q426.75 97.19 426.05 97.19Z" fill="#9C947F"/><path d="M437.75 97.05Q437.6 97.05 437.5 97.02Q437.4 96.99 437.4 96.9Q437.4 96.81 437.5 96.75Q437.6 96.69 437.79 96.65Q438.28 96.56 438.53 96.35Q438.77 96.14 438.77 95.69V90.54Q438.77 89.97 438.75 89.67Q438.72 89.38 438.67 89.27Q438.62 89.16 438.53 89.14Q438.37 89.1 438.18 89.09Q437.98 89.08 437.72 89.08H437.21Q436.88 89.08 436.54 89.23Q436.21 89.38 436.04 89.66Q435.99 89.73 435.89 89.87Q435.8 90.01 435.68 90.1Q435.56 90.2 435.45 90.2Q435.38 90.2 435.35 90.15Q435.32 90.1 435.32 90.02Q435.32 89.88 435.39 89.73Q435.6 89.32 435.69 89Q435.78 88.69 435.84 88.26Q435.86 88.06 435.94 88Q436.02 87.95 436.1 87.95Q436.16 87.95 436.27 88.11Q436.38 88.28 436.45 88.38Q436.55 88.5 436.84 88.56Q437.12 88.63 437.37 88.63L442.06 88.61Q442.47 88.61 442.73 88.56Q443 88.51 443.17 88.43Q443.35 88.34 443.45 88.23Q443.56 88.12 443.73 88.12Q443.78 88.12 443.81 88.21Q443.83 88.29 443.83 88.39Q443.83 88.45 443.82 88.55Q443.81 88.65 443.79 88.72Q443.74 88.97 443.69 89.11Q443.65 89.25 443.63 89.38Q443.61 89.5 443.61 89.69V89.88Q443.61 90.03 443.56 90.17Q443.51 90.32 443.4 90.32Q443.3 90.32 443.23 90.18Q443.17 90.05 443.1 89.78Q443.03 89.45 442.76 89.27Q442.49 89.08 441.88 89.08H440.79Q440.53 89.08 440.39 89.17Q440.24 89.25 440.2 89.56Q440.15 89.86 440.15 90.54V95.69Q440.15 96.13 440.41 96.34Q440.66 96.55 441.15 96.65Q441.34 96.69 441.43 96.74Q441.53 96.79 441.53 96.9Q441.53 96.97 441.44 97.01Q441.35 97.05 441.19 97.05Q440.87 97.05 440.59 97.03Q440.32 97.01 440.06 97Q439.8 96.99 439.52 96.99Q439.2 96.99 438.93 97Q438.66 97.01 438.37 97.03Q438.09 97.05 437.75 97.05Z" fill="#9C947F"/><path d="M453.67 97.18Q452.5 97.18 451.7 96.77Q450.91 96.35 450.51 95.59Q450.11 94.83 450.11 93.81V89.93Q450.11 89.5 449.93 89.25Q449.75 89 449.49 88.95Q449.08 88.84 449.08 88.67Q449.08 88.58 449.18 88.54Q449.29 88.5 449.44 88.5Q449.78 88.5 450.13 88.52Q450.48 88.55 450.85 88.55Q451.17 88.55 451.52 88.53Q451.87 88.51 452.15 88.51Q452.32 88.51 452.41 88.55Q452.51 88.59 452.51 88.68Q452.51 88.78 452.37 88.84Q452.24 88.9 452.02 88.98Q451.85 89.04 451.67 89.28Q451.5 89.53 451.5 89.94V93.5Q451.5 94.49 451.82 95.13Q452.15 95.77 452.72 96.06Q453.29 96.36 454.01 96.36Q455.29 96.36 455.9 95.51Q456.5 94.66 456.5 93.17Q456.5 92.87 456.5 92.41Q456.5 91.96 456.49 91.45Q456.49 90.94 456.48 90.49Q456.46 90.06 456.4 89.75Q456.35 89.45 456.22 89.24Q456.09 89.03 455.88 88.97Q455.75 88.91 455.58 88.85Q455.42 88.78 455.42 88.68Q455.42 88.6 455.53 88.56Q455.63 88.52 455.8 88.52Q456.16 88.52 456.37 88.54Q456.58 88.55 456.88 88.55Q457.1 88.55 457.27 88.54Q457.45 88.52 457.62 88.51Q457.79 88.5 457.97 88.5Q458.13 88.5 458.23 88.54Q458.33 88.58 458.33 88.67Q458.33 88.84 457.93 88.93Q457.55 89.02 457.4 89.28Q457.26 89.54 457.23 89.97Q457.16 91.03 457.15 91.92Q457.14 92.81 457.11 93.7Q457.1 94.71 456.64 95.5Q456.18 96.3 455.41 96.74Q454.64 97.18 453.67 97.18Z" fill="#9C947F"/><path d="M471.77 97.27Q471.3 97.27 470.93 97.18Q470.56 97.08 470.27 96.88Q469.98 96.69 469.74 96.4Q469.44 96.01 469.16 95.65Q468.89 95.28 468.59 94.82Q468.29 94.36 467.88 93.7Q467.72 93.37 467.4 93.22Q467.18 93.1 466.95 93.05Q466.73 93.01 466.58 93Q466.49 93 466.45 93.07Q466.4 93.14 466.4 93.26V95.61Q466.4 96.03 466.61 96.29Q466.82 96.56 467.33 96.65Q467.51 96.69 467.6 96.74Q467.7 96.79 467.7 96.9Q467.7 96.97 467.61 97.01Q467.52 97.05 467.36 97.05Q467.04 97.05 466.79 97.03Q466.53 97.01 466.3 96.99Q466.08 96.97 465.83 96.97Q465.52 96.97 465.24 96.99Q464.96 97.01 464.68 97.03Q464.4 97.05 464.06 97.05Q463.92 97.05 463.82 97.02Q463.72 96.99 463.72 96.9Q463.72 96.73 464.1 96.65Q464.6 96.56 464.81 96.36Q465.02 96.17 465.02 95.71V90.07Q465.02 89.63 464.97 89.4Q464.92 89.17 464.76 89.08Q464.6 88.98 464.24 88.93Q464.04 88.9 463.95 88.83Q463.85 88.76 463.85 88.67Q463.85 88.59 463.95 88.54Q464.05 88.5 464.19 88.5Q464.57 88.5 464.78 88.51Q464.99 88.52 465.17 88.53Q465.36 88.54 465.65 88.54Q465.91 88.54 466.12 88.52Q466.32 88.5 466.58 88.48Q466.84 88.46 467.25 88.46Q468.7 88.46 469.48 88.99Q470.25 89.51 470.25 90.58Q470.25 91.16 470.01 91.58Q469.77 92 469.41 92.27Q469.04 92.54 468.68 92.7Q468.63 92.71 468.63 92.76Q468.64 92.8 468.66 92.87Q469.07 93.46 469.44 94Q469.81 94.54 470.23 95.04Q470.65 95.54 471.2 96.05Q471.56 96.39 471.96 96.45Q472.36 96.52 472.81 96.52Q473.01 96.52 473.01 96.7Q473.01 96.92 472.8 97.05Q472.6 97.17 472.32 97.22Q472.03 97.27 471.77 97.27ZM467.03 92.66Q467.59 92.66 467.98 92.4Q468.38 92.15 468.59 91.73Q468.81 91.31 468.81 90.81Q468.81 90.25 468.66 89.82Q468.52 89.39 468.14 89.15Q467.77 88.91 467.07 88.91Q466.7 88.91 466.57 89.17Q466.44 89.42 466.43 90.12Q466.42 90.44 466.41 90.95Q466.4 91.47 466.4 92.19Q466.4 92.5 466.57 92.58Q466.74 92.66 467.03 92.66Z" fill="#9C947F"/><path d="M478.68 97.06Q478.53 97.06 478.44 97.03Q478.34 96.99 478.34 96.91Q478.34 96.74 478.72 96.66Q479.2 96.56 479.42 96.37Q479.63 96.18 479.63 95.73V89.85Q479.63 89.41 479.45 89.21Q479.27 89.02 478.79 88.93Q478.59 88.89 478.5 88.82Q478.41 88.76 478.41 88.67Q478.41 88.59 478.5 88.54Q478.59 88.5 478.75 88.5Q479.18 88.5 479.52 88.51Q479.87 88.52 480.2 88.54Q480.53 88.55 480.92 88.55Q481.44 88.55 482.02 88.54Q482.6 88.54 483.06 88.52Q483.51 88.52 483.8 88.5Q484.09 88.48 484.14 88.48Q484.22 88.48 484.3 88.52Q484.39 88.55 484.4 88.64Q484.47 89.04 484.54 89.43Q484.61 89.81 484.61 90.1Q484.61 90.23 484.55 90.27Q484.49 90.32 484.43 90.32Q484.36 90.32 484.32 90.28Q484.29 90.24 484.25 90.16Q484.16 89.9 484.08 89.69Q484 89.47 483.9 89.37Q483.73 89.19 483.51 89.1Q483.28 89 483.01 89H481.56Q481.39 89 481.2 89.13Q481.01 89.25 481.01 89.47V92.12Q481.01 92.25 481.09 92.33Q481.17 92.41 481.27 92.41H482.5Q482.88 92.41 483.02 92.24Q483.17 92.07 483.26 91.72Q483.35 91.46 483.51 91.46Q483.57 91.46 483.62 91.52Q483.67 91.58 483.67 91.7Q483.67 91.77 483.66 91.96Q483.65 92.14 483.64 92.33Q483.62 92.53 483.62 92.64Q483.62 92.79 483.63 92.99Q483.64 93.19 483.65 93.39Q483.66 93.58 483.66 93.67Q483.67 93.79 483.64 93.86Q483.61 93.93 483.54 93.93Q483.34 93.93 483.23 93.56Q483.15 93.22 483.02 93.05Q482.88 92.88 482.62 92.88H481.41Q481.2 92.88 481.11 92.94Q481.01 93.01 481.01 93.22V95.7Q481.01 96.16 481.2 96.33Q481.4 96.51 481.8 96.51H482.83Q483.19 96.51 483.47 96.45Q483.74 96.4 483.93 96.26Q484.16 96.1 484.32 95.86Q484.49 95.61 484.68 95.25Q484.73 95.17 484.78 95.12Q484.83 95.08 484.9 95.09Q484.97 95.09 485.01 95.15Q485.04 95.21 485.04 95.3Q485.04 95.44 484.97 95.73Q484.91 96.01 484.81 96.32Q484.71 96.64 484.64 96.86Q484.6 96.95 484.55 97.01Q484.49 97.06 484.42 97.06Q483.95 97.06 483.44 97.05Q482.93 97.04 482.4 97.03Q481.87 97.01 481.33 97Q480.8 96.99 480.28 96.99Q480.01 96.99 479.76 97.01Q479.51 97.03 479.26 97.05Q479.01 97.06 478.68 97.06Z" fill="#9C947F"/></svg>